<svg width="578" height="215" viewBox="0 0 578 215" fill="none" xmlns="http://www.w3.org/2000/svg">
<g clip-path="url(#clip0_38_8065)">
<path d="M141.006 7.94238L141.125 8.80273C133.012 12.8934 125.922 19.9475 133.621 28.4355C144.176 40.0701 164.339 42.0378 179.06 43.4438C192.181 45.041 205.695 49.6654 212.797 61.6067C216.649 69.2623 219.712 74.9103 227.702 78.8974C240.066 85.0672 261.387 86.2741 273.512 79.1125C278.427 76.2088 281.829 71.9031 280.622 65.9165L281.211 64.8968L281.884 64.367C294.415 68.7803 308.834 69.1348 321.241 63.9249C322.623 62.8574 323.185 62.7937 323.324 64.7136C319.907 69.5132 317.103 74.7311 314.474 80.2317C313.45 82.4981 312.056 84.1591 310.288 85.2106C310.308 85.5054 310.308 85.7922 310.26 86.075C310.009 87.4929 306.237 90.4285 304.847 91.484C286.819 105.146 261.077 103.688 240.396 97.5622C224.687 92.906 208.83 84.7645 202.131 69.0591C198.518 62.6543 192.396 58.1773 185.135 56.9266C167.948 53.9592 157.858 67.5057 148.956 79.8533C140.5 92.0855 126.989 95.6185 113.415 99.0559C104.433 101.593 94.7302 106.735 91.5238 116.036C88.8631 123.751 92.9895 130.036 100.538 132.454C115.649 137.302 129.837 125.91 140.795 116.88C146.327 112.324 152.441 107.134 157.663 102.246C166.956 93.5473 171.353 84.3981 175.484 72.863C180.849 58.5955 198.291 62.5906 196.618 78.2004C194.822 84.8322 194.36 91.8983 200.02 96.7736C200.274 97.5383 199.924 97.861 199.159 97.5582L197.626 97.7335C175.28 88.6321 155.807 108.113 143.623 124.779C139.054 130.172 133.486 134.278 126.798 136.557L127.065 136.995C126.392 138.656 124.97 139.946 122.807 140.871C118.9 143.037 115.108 145.284 111.523 147.949C110.432 148.761 106.038 154.166 107.153 154.979C107.516 155.242 115.02 155.062 116.084 154.959C134.629 153.178 147.833 140.978 159.918 127.738C170.879 117.466 179.996 112.539 195.288 114.291C199.171 114.737 212.558 117.581 214.952 119.876C215.351 120.258 214.9 121.031 214.299 120.664C205.958 118.059 194.774 116.713 186.202 117.462C174.81 118.454 156.333 132.701 155.349 144.563C152.776 155.218 149.673 165.761 146.041 176.193C138.608 193.659 123.576 191.245 115.825 175.528C113.582 171.214 111.101 167.067 108.376 163.084C108.321 163.925 107.898 164.076 107.153 163.682C107.002 160.611 106.182 158.683 103.445 157.233C99.2908 155.03 94.057 155.126 89.5163 154.035C76.376 150.876 66.3864 142.348 64.1359 128.63C64.2754 127.635 64.2754 126.639 64.1359 125.643C63.6779 122.97 63.6859 119.625 64.1359 116.88C64.2634 115.793 64.2634 114.662 64.1359 113.495C65.5699 103.684 70.9391 93.4557 78.4632 86.9951C79.1801 86.3817 82.6335 83.7767 83.2548 83.6214L84.9875 82.3348C94.9652 79.706 104.835 76.8222 114.594 73.6875C117.175 72.7953 121.234 70.3098 121.513 67.3504L122.285 66.8923L122.664 65.9125C131.594 62.9212 139.899 53.5888 128.714 47.2556C120.847 42.8264 113.323 38.3215 116.609 27.8898C118.844 20.7959 126.563 14.8849 132.785 11.3679L132.645 10.7306C135.39 9.683 138.254 8.93418 141.01 7.94238H141.006Z" fill="#757575"/>
<path d="M530.064 73.0143L531.41 72.2217C531.474 72.1818 531.549 72.1579 531.621 72.15C545.359 70.5248 558.929 65.2512 568.891 55.5524C569.656 55.2974 569.978 55.6519 569.675 56.4127C564.031 63.8093 556.734 70.489 552.584 78.6504C552.56 78.6982 552.532 78.738 552.496 78.7739C545.936 85.6845 537.898 94.6067 532.214 103.413C521.532 119.963 521.197 137.7 522.635 156.659C522.647 156.839 522.575 157.018 522.432 157.133L522.026 157.468C521.93 157.548 521.811 157.592 521.683 157.592C518.903 157.643 516.194 157.775 513.558 157.982C513.526 157.982 513.494 157.982 513.462 157.982C512.442 157.886 511.721 157.711 511.036 156.946C510.957 156.855 510.909 156.735 510.897 156.616C510.379 149.908 510.976 143.021 510.737 136.262C510.634 133.271 510.092 129.746 509.909 126.734C508.726 107.273 508.726 94.9692 490.543 83.9638C478.371 76.5951 460.511 72.1061 446.594 69.5609L446.494 69.2941C439.806 68.4297 433.103 67.5933 426.379 66.7847C426.316 66.7767 426.248 66.7847 426.184 66.7967C424.615 67.195 422.922 67.2428 421.114 66.944C421.09 66.944 421.066 66.9361 421.042 66.9361C416.258 66.8405 415.346 66.9201 418.314 67.1671C417.971 67.8562 416.78 67.5574 416.123 67.5654C399.274 67.7207 382.533 70.019 367.051 77.0452C363.669 78.5787 360.523 80.5583 357.241 82.2631C357.113 82.3308 357.014 82.4423 356.966 82.5817C356.484 84.0355 356.193 85.5491 356.153 87.0746C356.137 87.7159 355.213 87.8075 355.054 87.1862C354.946 86.7679 354.934 86.278 354.97 85.8001C355.006 85.3221 354.488 85.0433 354.102 85.2982C346.048 90.6594 342.372 98.7292 340.34 107.93C340.34 107.942 340.332 107.958 340.332 107.97C337.349 118.43 326.18 121.278 316.521 122.684C316.414 122.7 316.302 122.684 316.203 122.636L315.314 122.214C315.207 122.162 315.083 122.146 314.968 122.17C309.989 123.185 304.715 123.942 300.087 126.081C300.039 126.105 299.983 126.121 299.932 126.125L298.374 126.324C298.326 126.332 298.279 126.344 298.235 126.36C281.825 133.211 266.055 134.382 248.721 128.81C243.858 127.244 238.273 125.173 234.477 121.899C234.366 121.803 234.218 121.752 234.075 121.767C233.406 121.835 233.071 121.536 233.251 120.995C233.342 120.724 233.235 120.425 232.972 120.31L232.251 119.991C232.179 119.959 232.119 119.915 232.068 119.86C229.128 116.625 225.738 113.857 221.986 111.615C221.899 111.563 221.827 111.487 221.783 111.399L221.146 110.181C220.791 109.464 220.999 109.006 221.783 109.077C240.623 117.179 261.084 117.541 281.597 116.824C282.578 117.5 283.218 116.741 284.079 117C284.23 117.044 284.443 117.084 284.579 117L285.099 116.98C285.162 116.944 285.23 116.92 285.302 116.908C292.674 115.777 300.019 114.566 307.014 112.172C315.462 109.28 322.269 105.955 329.215 100.518C337.353 94.1486 342.583 86.9392 345.606 77.4116C345.614 77.3877 345.626 77.3599 345.638 77.336C352.011 64.0682 369.568 59.3642 383.374 56.8548C412.494 51.5653 442.16 54.9429 470.492 62.9649C488.101 67.9079 505.4 72.3491 523.774 72.6956C523.806 72.6956 523.838 72.6956 523.866 72.6877C525.925 72.3571 527.837 72.4806 529.601 73.0581C529.753 73.1059 529.916 73.094 530.056 73.0103L530.064 73.0143Z" fill="#616161"/>
<path d="M405.882 25.0698C417.808 34.9558 435.688 37.744 450.68 39.4209L455.273 40.2056C461.594 40.8588 467.863 41.2212 474.085 41.2969H474.879C481.873 41.3925 488.814 41.0141 495.689 40.1936C518.497 37.4692 541.507 29.4273 564.521 34.7168C569.05 35.7564 578.116 38.2538 577.076 44.3081C576.467 47.8531 571.822 53.2104 569.588 56.138C569.425 55.3413 568.588 56.5522 568.393 56.7354C558.057 66.4462 543.781 71.5247 529.757 72.867L528.164 72.0266C524.149 72.5404 519.174 72.879 515.613 70.8356C513.518 71.915 511.781 72.4289 509.586 71.2419C507.734 71.7358 505.492 71.1383 503.95 70.0111C503.281 70.4254 502.795 70.5369 502.022 70.3935C495.861 69.2503 489.91 67.8005 484.098 65.793C482.075 65.9762 480.402 65.4425 479.084 64.1918L477.921 64.7972C469.568 62.5707 461.132 60.4118 452.604 58.3247L452.369 57.6993C450.959 58.0299 443.578 56.9983 443.017 56.2893C443.021 55.6162 442.885 55.0625 442.602 54.6284C440.707 55.433 438.48 54.4213 439.312 52.1987L437.855 52.7284C436.803 54.5806 435.21 53.999 435.094 52.0234C433.489 52.1429 431.86 52.0593 430.215 51.7685C429.462 53.7521 427.917 52.8917 426.77 51.7526C425.336 53.1626 424.69 53.6445 422.874 52.5094C421.679 53.1984 420.679 53.2064 419.871 52.5412C417.871 55.1741 414.068 50.3027 414.322 48.3191C414.506 46.9051 416.768 45.8456 418.122 46.1842C416.151 43.6509 419.094 41.9621 420.373 44.6706C420.926 43.1491 422.014 43.1052 423.4 43.1172C422.906 41.5638 423.416 39.8232 425.2 40.6636C427.22 44.0771 427.435 41.7191 426.997 39.1062C427.546 37.8515 428.474 38.1861 429.514 38.7437L430.414 37.6364C425.105 36.3579 419.915 34.7367 414.88 32.327C413.155 33.725 411.909 32.6098 410.674 31.1281C409.622 32.4863 408.029 33.0439 406.42 32.3509C404.739 32.5381 404.221 37.9153 404.743 39.3651C405.102 41.0261 402.066 43.9298 400.732 44.6308C399.764 45.1406 395.204 46.7378 396.319 44.5949L396.279 44.0492C401.111 41.8267 405.329 39.6599 399.772 34.7208L399.904 33.8366L399.537 33.1515C397.944 31.7932 396.765 30.0367 399.74 28.8736C398.617 27.9296 402.246 22.879 402.6 22.8591C403.787 23.8549 404.882 24.5958 405.878 25.0737L405.882 25.0698Z" fill="#878787"/>
<path d="M34.2587 50.9599C37.2818 50.4859 39.9386 50.8842 42.2249 52.1548C47.4308 52.5412 54.2937 54.0946 54.6482 60.6189C54.8394 64.1639 52.8399 67.3345 50.4938 69.8C41.0738 78.4633 35.3978 86.2383 32.6535 99.0957C31.7414 103.378 30.1919 111.678 30.415 115.805C30.4588 116.641 33.8922 100.39 33.8723 99.4582C36.0152 81.6218 50.0358 71.8672 65.7093 65.7492C80.1281 60.125 101.139 57.6396 116.139 61.6545C118.458 62.2759 123.731 64.0803 122.285 66.8883C122.692 70.7042 117.294 73.4485 114.323 74.6594C107.791 77.3241 100.677 78.6106 93.9057 80.5305C90.3129 81.5502 86.8317 82.7092 83.2509 83.6174C84.7365 80.9089 80.9048 79.5785 78.8814 79.0249C72.5283 77.2922 59.5155 77.344 54.3694 82.0202C53.5927 82.7252 53.5249 83.2589 52.9793 84.0157C49.0838 90.2891 45.8415 97.1838 44.778 104.859L42.5714 119.39C41.5836 130.837 33.6891 146.777 20.3178 144.157C17.8085 143.153 14.2954 141.094 14.3113 137.983C14.3113 137.357 14.6777 136.895 14.7295 136.378C16.9481 115.108 26.3562 92.7865 20.1266 71.6521C16.7091 60.0494 9.68293 49.064 3.18648 39.0026C2.72843 37.7758 3.04707 37.501 4.39336 37.7241C12.722 43.7903 22.3611 47.5265 32.5499 49.761L34.2547 50.9519L34.2587 50.9599Z" fill="#949494"/>
<path d="M405.882 25.0697C405.508 26.0654 404.835 24.9541 404.488 24.6713C403.919 24.2013 403.552 23.341 402.696 23.4764C403.034 24.8745 400.636 26.3721 400.342 27.3121C400.095 28.1127 400.887 29.2758 400.704 29.4511C400.298 29.8374 397.649 29.7777 399.099 31.6537C399.497 32.1675 401.099 33.0398 399.908 33.8325C398.94 34.1232 397.896 33.8803 396.777 33.1036C384.377 29.7976 370.142 28.5071 357.129 27.7702C350.848 27.4157 345.136 27.4555 338.863 27.9216C338.536 27.9455 338.193 27.7543 337.847 27.5033C334.644 28.1088 331.434 28.6266 328.216 29.0528L327.1 30.1999C320.257 32.8287 313.669 36.0272 307.328 39.7952C301.258 43.0335 294.762 44.8418 287.919 44.8975L286.791 44.1886C285.608 44.2722 284.501 44.4514 283.47 44.7303L282.808 44.1886C282.362 44.6227 281.836 44.8298 281.227 44.786C277.351 44.4953 273.153 43.8858 269.664 42.197L268.613 42.7029C258.065 38.9428 246.813 33.9002 242.232 22.9626C240.894 21.6402 240.611 20.6165 241.384 19.8916C249.916 24.7032 258.902 28.8735 268.457 31.2554C276.507 33.2589 287.174 34.9557 295.267 32.9482C306.595 30.1362 312.721 18.4816 321.863 11.7462C341.778 -2.9236 369.094 0.402289 389.691 11.9891C396.522 15.8328 400.159 20.3218 405.886 25.0697H405.882Z" fill="#858585"/>
<path d="M132.641 10.7305L135.031 11.1288C133.952 11.3996 132.625 12.1644 131.701 12.7778C124.11 17.8084 114.128 25.8463 117.294 36.2343C119.402 43.141 129.646 45.0011 133.625 50.5735C134.418 51.6847 135.163 53.3656 135.019 54.7278C134.37 60.9614 127.674 65.056 122.285 66.8922C122.118 65.3149 120.214 64.0045 118.816 63.3911C116.064 62.1802 112.308 61.6704 109.352 61.3039C90.7909 59.0057 70.6722 62.4112 54.4371 72.134C49.0758 75.3444 42.8582 79.8572 39.6598 85.2384C33.2151 96.0804 34.5255 109.575 29.2917 121.074L28.284 122.656C27.9335 121.445 28.9492 120.632 29.0767 119.668C30.7695 107.006 31.0324 93.2883 38.2936 82.2829C40.5201 78.9053 43.4995 75.9379 46.2 73.0621C49.8963 69.1268 54.5645 65.7292 53.7639 59.5354C53.4891 57.4045 50.2309 54.5924 48.3151 53.8316C46.5187 53.1187 43.8858 53.4134 42.2249 52.1548L44.0093 51.4139C60.3161 51.621 75.6033 45.3755 89.5999 37.485C94.2761 34.6809 98.53 31.7413 102.37 28.6544C102.366 28.2482 107.95 24.285 108.763 23.6955C116.251 18.3024 124.006 14.0285 132.641 10.7305Z" fill="#878787"/>
<path d="M107.149 163.682C108.149 163.12 107.209 161.822 107.149 160.894C107.715 161.176 108.348 161.798 108.747 162.284C114.319 169.111 118.776 183.346 127.061 186.589C133.581 189.142 139.672 186.039 143.073 180.287C148.681 170.807 150.51 156.771 154.349 146.156C154.572 145.543 154.536 144.746 155.341 144.559C154.971 149.044 155.759 153.533 156.126 157.914C157.01 168.569 158.125 179.08 159.746 189.743L163.319 206.906C163.355 208.619 156.958 211.861 155.345 212.475C145.586 216.191 129.674 215.984 120.553 210.615C116.936 208.484 114.403 205.751 113.2 201.637L107.146 163.678L107.149 163.682Z" fill="#989898"/>
<path d="M298.45 125.436C299.024 125.4 299.247 126.169 298.737 126.432C293.714 129.017 286.903 133.984 286.377 139.572C285.935 144.24 286.079 149 286.079 154.5C285.928 155.467 286.03 155.908 285.943 156L285.914 154.935C285.711 150.111 285.68 145.312 285.597 140.588C285.704 146.761 285.851 152.939 286.031 159.129C286.035 159.316 285.939 159.495 285.78 159.595L285.72 159.631C285.64 159.679 285.549 159.706 285.457 159.71C271.337 160.053 256.038 160.053 241.786 159.71C241.567 159.675 241.396 159.635 241.396 159.587C241.209 153.652 241.352 147.606 241.591 141.663C241.453 145.5 241.486 144.5 241.388 140.189V140.5C241.894 139.468 239.508 135.549 239.397 135.055C239.385 135.007 239.365 134.959 239.337 134.916C236.923 130.992 230.984 127.71 226.336 125.376C226.133 125.273 226.001 125.05 226.053 124.826C226.416 123.241 231.633 122.767 233.103 124.074C233.247 124.201 233.438 124.249 233.621 124.189C233.976 124.078 234.103 123.643 233.872 123.353C233.135 122.429 232.53 121.206 234.135 121.449C234.191 121.457 234.246 121.477 234.294 121.501C239.305 123.986 244.367 126.424 249.745 128.045C262.188 131.797 273.791 132.673 286.409 129.24C289.998 128.264 294.343 126.173 297.829 125.52C298.052 125.48 298.259 125.448 298.458 125.436H298.45Z" fill="#858585"/>
<path d="M552.461 78.4432C550.66 82.0001 548.995 86.1903 548.079 89.9942C546.088 102.645 545.546 115.602 546.442 128.865L547.896 154.72C547.88 155.098 547.541 155.433 546.884 155.715C539.097 158.089 534.333 157.484 526.355 157.691C523.356 157.767 520.313 158.129 517.21 158.105C516.553 158.101 515.358 158.396 515.019 157.707C517.246 157.655 519.504 157.52 521.791 157.309C521.914 156.612 521.424 155.891 521.376 155.134C521.157 151.629 521.552 147.885 521.408 144.348C520.389 118.7 526.961 106.217 543.291 87.4012C545.518 84.8361 548.645 80.9764 551.066 78.8455C551.6 78.3755 551.656 77.8099 552.461 78.4472V78.4432Z" fill="#989898"/>
<path d="M233.414 120.266C233.609 120.525 234.29 121.13 234.211 121.461C234.199 121.52 233.904 121.568 233.864 121.744C233.685 122.488 235.441 123.504 236.087 123.779C236.497 123.954 237.198 124.113 236.6 124.647C236.509 124.731 235.294 124.591 234.82 124.659C234.282 124.739 233.812 125.121 233.219 125.073C232.585 125.022 232.323 124.345 231.629 124.241C230.204 124.03 227.152 123.871 226.643 125.444C227.897 125.77 229.24 126.464 230.363 127.101C231.864 127.957 240.05 133.45 239.735 134.72C239.691 134.896 239.4 134.944 239.389 135.003C234.159 129.116 226.113 125.121 218.788 122.345C217.362 121.803 215.681 121.098 214.295 120.664L214.522 120.242C200.442 114.948 185.306 111.427 171.54 119.533C160.077 126.288 152.931 137.919 142.177 145.535C135.214 150.466 125.065 155.126 116.526 155.731C113.164 155.97 109.627 155.237 106.353 156.114C106.078 152.883 108.173 149.781 110.527 147.745C115.498 143.447 122.07 141.038 127.065 136.999L127.005 136.465C134.063 133.729 141.05 130.71 146.73 125.149L158.145 114.614C174.986 100.745 189.432 102.246 208.918 109.814C217.127 113.339 225.292 116.824 233.414 120.27V120.266Z" fill="#878787"/>
<path d="M97.1917 30.6459C97.6617 30.4627 99.952 30.391 99.4661 31.1677C99.1673 31.6457 91.703 36.2939 90.4563 36.983C73.6715 46.2676 53.0231 49.6095 34.2587 50.9637C26.4398 49.3067 18.3661 46.7934 11.2682 43.0851C8.85046 41.8225 6.61992 39.8708 4.24201 38.5563C3.17453 37.9668 3.92336 38.4329 3.18648 39.0144C0.462041 34.7923 -2.67266 32.1196 3.87158 29.5426C11.2324 26.6429 22.6838 27.5231 30.4588 28.6703C40.8706 30.2078 51.0196 33.7448 61.523 34.6489C73.0422 35.6407 86.1585 34.402 97.1877 30.6499L97.1917 30.6459Z" fill="#878787"/>
<path d="M356.093 88.0028C356.277 88.907 355.771 89.5124 355.707 90.2055C354.337 104.684 352.477 119.198 350.927 133.621C350.836 134.466 350.995 135.326 350.884 136.167C349.151 136.796 347.347 137.445 345.514 137.768C339.157 138.887 332.749 138.445 326.439 137.369C322.341 136.672 318.354 135.378 314.279 134.589C314.327 133.342 314.171 132.044 314.251 130.801C314.374 128.846 314.506 126.814 314.649 124.827C314.717 123.855 315.299 122.931 315.064 121.855C320.731 120.692 325.858 120.314 331.131 117.41C339.468 112.826 339.189 107.512 341.838 99.4383C344.3 91.9262 349.466 87.0867 355.89 82.8208C356.516 83.3864 355.751 84.426 355.703 85.0235C355.588 86.4972 355.878 86.9553 356.09 87.9988L356.093 88.0028Z" fill="#858585"/>
<path d="M52.9793 84.0196C53.0589 86.051 52.4455 87.7638 52.569 89.7832C50.6491 105.054 50.7487 120.708 49.0081 136.011C48.8448 137.429 49.024 138.74 48.3867 140.169C47.6857 141.743 45.0091 143.292 43.4238 143.969C36.8079 146.793 26.9815 146.833 20.3178 144.165C20.8914 143.332 21.9071 144.256 22.8829 144.165C31.4984 143.364 38.0546 135.003 40.1457 127.149C43.9416 112.865 42.4201 97.4148 51.7883 85.0194C52.1667 84.5175 52.7403 84.2985 52.5849 83.4262C53.1067 82.7889 52.9713 83.7249 52.9793 84.0196Z" fill="#898989"/>
<path d="M241.38 19.8915C241.44 20.8833 242.272 21.4848 242.91 22.5443C244.188 24.6752 245.224 27.077 246.777 29.0327C251.398 34.8361 262.702 40.0819 269.66 42.1969C270.624 42.7864 271.795 43.2365 272.894 43.5153C275.567 44.1884 280.375 45.2519 282.804 44.1885C284.127 44.2203 285.465 44.1646 286.787 44.1885C287.584 45.0886 286.859 45.5148 284.613 45.463C285.218 47.9684 283.521 48.072 281.562 48.1676C279.797 48.5659 280.207 48.6535 282.792 48.4225C286.477 50.0317 290.32 51.2266 294.32 51.9993C295.51 52.4614 295.718 53.3058 294.355 53.3456C278.793 51.8679 261.204 44.6027 247.076 37.8912C243.846 36.3577 234.86 32.2152 233.071 29.5904C230.104 25.2329 231.884 18.2306 229.371 13.3752C227.933 10.595 225.241 9.17298 222.54 7.85856C222.221 7.70322 220.879 7.50805 221.863 7.1416C224.942 8.40425 227.487 9.40002 230.363 11.1884C231.705 12.0209 241.34 19.1865 241.38 19.8875V19.8915Z" fill="#989898"/>
<path d="M102.37 28.6544C102.37 28.6942 102.939 28.8017 102.394 29.2399C86.1187 42.2646 63.4787 53.1345 42.2249 52.1547C39.5602 52.0312 36.8796 51.5174 34.2587 50.9598L37.258 50.1751C53.2382 48.4982 74.8465 44.6784 89.102 37.0946C92.5355 35.2663 95.6781 32.761 99.1793 31.0403L97.1877 30.6419C98.9283 30.0485 100.581 29.1323 102.366 28.6504L102.37 28.6544Z" fill="#757575"/>
<path d="M548.078 89.9943C547.274 93.3282 547.123 96.3753 546.872 99.741C545.598 116.641 547.115 134.649 548.094 151.517C548.134 152.175 548.234 155.576 548.07 155.708C547.907 155.839 547.186 155.624 546.884 155.716C545.773 155.273 547.652 155.254 547.632 154.732C547.628 154.58 547.29 154.106 547.266 153.545C546.302 132.486 544.507 110.615 547.696 89.8071L548.082 89.9983L548.078 89.9943Z" fill="#858585"/>
<path d="M64.1318 128.63C63.2836 123.46 63.3792 118.661 64.1318 113.495L64.4822 113.734C65.0038 114.694 64.1318 116.426 64.1318 116.88V125.643C64.1318 125.978 64.9959 127.527 64.4822 128.391L64.1318 128.63Z" fill="#616161"/>
<path d="M310.288 85.2146C311.674 84.5933 312.825 83.3426 313.741 81.4506L318.549 72.4966C319.086 70.0191 320.329 68.7843 322.277 68.7883C323.731 66.5817 325.117 66.0918 326.439 67.3146C327.873 66.9202 329.65 66.5817 329.825 68.5414L331.346 67.2708C329.705 64.9566 331.888 62.9132 334.119 64.4388C334.887 63.4908 335.999 63.0845 337.464 63.216C339.372 61.7781 341.479 60.9018 343.105 63.1522C344.825 62.3715 347.339 61.9892 348.526 63.7019C346.916 63.5027 347.637 59.5196 349.382 59.8144C351.569 60.1808 350.513 65.558 348.526 63.7019C349.039 65.0283 350.147 63.905 350.457 62.7659C350.135 60.5791 351.764 59.3563 353.5 60.9496C354.97 58.7469 359.376 60.6628 357.376 63.0447C357.699 63.2438 358.073 63.5147 358.129 63.8931C358.296 65.0163 352.728 68.0674 351.342 68.0992L351.123 69.4176C348.745 71.5247 346.968 74.1177 345.666 77.1289C344.363 77.3281 343.61 78.0371 343.411 79.2519C341.989 80.0565 341.934 80.8651 343.244 81.6776C343.467 82.307 340.408 90.8866 338.253 89.7673C338.655 91.6115 337.102 92.6869 335.449 92.9737L335.664 94.3837C335.314 95.4074 330.562 98.6058 329.379 99.3746C329.14 100.816 327.642 102.342 326.141 101.764C325.73 102.9 323.293 104.592 322.106 105.278C317.557 107.902 311.885 110.081 306.93 111.897C304.64 112.738 301.788 113.598 299.41 113.977C295.216 114.913 290.946 115.769 286.608 116.546C285.835 116.645 283.709 116.809 283.199 116.283C283.139 116.219 284.88 116.53 284.394 117.079C268.951 118.685 252.903 117.956 237.692 114.59C232.904 113.531 227.125 112.053 222.652 110.113C222.229 109.93 221.293 109.061 221.062 109.91C220.325 109.902 219.545 109.89 218.864 109.571C212.156 106.445 205.811 102.605 199.661 98.7174L199.155 97.5623C199.948 97.4029 198.737 96.5545 198.558 96.3673C194.778 92.4758 194.308 88.7715 194.758 83.4063C194.921 81.4506 195.801 79.0528 195.957 77.0373C196.407 71.1344 193.268 65.5102 186.995 64.9167C177.782 64.0444 175.515 75.6671 172.672 82.0321C171.385 84.9159 169.732 88.3414 168.163 91.0658C163.51 99.1595 156.815 103.915 149.956 109.902C137.194 121.039 117.876 140.086 99.1753 132.813C87.9868 128.463 87.5048 117.33 94.7899 108.906C105.469 96.5506 123.122 98.0163 136.354 90.325C150.486 82.1118 154.74 64.8889 169.274 58.3207C181.092 52.9794 194.415 56.0822 201.728 66.9003C203.628 69.7084 205.006 73.2773 206.93 76.0376C220.15 95.033 257.324 103.509 279 100.729C290.185 99.2949 303.106 94.0412 310.28 85.2067L310.288 85.2146Z" fill="#878787"/>
<path d="M199.159 97.5621C202.095 98.9801 205.202 101.434 208.185 103.075C212.443 105.417 216.876 107.436 221.066 109.91C225.778 112.69 230.136 115.852 233.414 120.266C233.334 120.76 231.972 120.27 231.709 120.178C214.283 114.152 197.255 102.178 177.866 105.54C158.058 108.978 151.481 126.794 134.513 134.282C132.713 135.075 127.981 136.25 127.065 136.991C125.432 137.19 123.64 137.943 122.07 138.174C121.664 138.234 120.584 138.465 120.692 137.791C126.499 136.776 132.195 133.828 136.832 130.228C144.463 124.305 149.036 115.478 156.134 108.902C167.912 97.9843 183.346 89.9145 199.163 97.5621H199.159Z" fill="#989898"/>
<path d="M328.331 29.0329C331.581 28.4554 334.856 28.0093 338.154 27.6946C338.819 27.6309 339.48 27.8738 339.958 28.3399C343.479 31.7693 342.352 33.2391 337.317 33.8047C337.034 33.8365 336.756 33.9122 336.505 34.0477C336.082 34.2747 335.68 34.5216 335.302 34.7925C335.091 34.9438 334.86 35.0594 334.609 35.1311C329.498 36.5929 323.683 39.3691 320.242 43.5832C318.517 45.6942 317.696 48.104 315.446 49.9402C311.264 53.3538 306.102 53.9353 300.935 54.1105C300.529 54.1265 300.147 53.9871 299.776 53.8118C299.661 53.7561 299.502 53.7441 299.35 53.7321C298.179 53.6366 296.976 53.5569 295.837 53.4693C295.387 53.4334 294.985 53.2303 294.618 52.9674C294.395 52.8081 293.814 52.6926 293.662 52.6487C291.209 51.9477 288.699 51.5454 286.373 50.7727C285.29 50.4142 283.163 49.2392 282.426 49.1516C281.864 49.0839 281.327 49.4423 280.634 49.3706C278.037 49.1117 279.371 47.7575 281.426 47.3751C283.035 47.0764 283.844 47.4747 283.94 46.69C284.075 45.5787 284.899 44.6746 286.015 44.5989C286.082 44.5949 286.146 44.5869 286.214 44.579C286.668 44.5272 286.756 44.1807 286.791 44.1767C289.647 43.9178 292.432 43.9417 295.335 43.3601C307.277 40.9663 316.358 32.2473 328.104 29.0728C328.18 29.0528 328.26 29.0329 328.335 29.021L328.331 29.0329Z" fill="#9C9C9C"/>
<path d="M221.863 7.14574C230.713 10.2088 231.864 15.801 232.159 24.536C232.864 28.3956 233.47 29.4432 236.652 31.5502C238.289 32.6336 240.07 33.5657 241.822 34.4579C258.308 42.8224 276.037 49.7172 294.355 53.3537C295.423 52.3022 300.884 52.358 299.932 54.1504C299.593 54.3615 299.251 54.5606 298.884 54.704C295.674 55.9786 282.31 54.3137 278.096 53.6963C263.247 51.5255 250.963 46.3076 237.935 39.5164C234.183 37.6962 230.263 36.4455 226.252 35.4138C217.589 33.1873 212.339 38.6601 222.018 43.9855C227.491 46.9927 233.593 48.2315 239.847 49.2033L258.484 52.0951C265.996 53.6166 274.189 55.4488 279.618 61.2124C280.319 61.9572 281.805 64.0364 281.207 64.9008C283.792 75.1612 274.567 80.6261 266.083 83.0358C252.457 86.9034 228.702 84.6769 218.864 73.2772C215.864 69.8 214.263 65.4265 211.841 61.5788C203.7 48.6736 189.297 45.268 175.077 43.7744C165.932 42.8144 157.735 42.209 148.968 38.8154C142.515 36.318 131.725 30.7895 129.933 23.596C129.821 23.1538 129.423 20.8317 129.447 20.513C129.491 19.8638 130.072 18.0913 130.339 17.3903C131.315 14.8531 133.414 13.0328 135.449 11.3479L141.006 7.94236C144.758 6.58811 148.255 4.86741 152.147 3.74816C172.93 -2.20659 201.832 -1.06742 221.863 7.14574Z" fill="#B5B5B5"/>
<path d="M177.941 15.5978C180.387 15.2592 183.681 15.3827 186.027 16.0997C191.759 17.8482 191.886 20.8196 186.035 22.4965C182.633 23.4724 176.563 23.4206 173.528 21.429C169.19 18.5811 175.049 16.0001 177.941 15.5978Z" fill="#878787"/>
<path d="M399.908 33.8324C401.887 35.1389 403.767 37.8713 403.038 40.3488C402.505 42.169 398.326 44.4503 396.61 45C396.16 45.1434 395.57 44.9731 395.526 44.9851C386.05 47.4347 376.491 49.2112 366.84 50.3185C351.887 53.011 337.855 57.2531 324.408 64.2155C324.069 64.3908 323.771 64.3868 323.432 64.104C323.34 63.4508 323.691 63.3034 324.026 62.9011C334.354 50.5694 351.772 49.1634 366.151 44.8815C368.951 44.0491 373.308 42.6948 374.734 39.9265C376.606 36.286 371.54 34.3622 368.851 33.6213C360.443 31.3031 343.495 32.6853 334.983 35.0273L334.696 34.5454C335.565 34.5095 336.082 33.4739 336.568 33.227C337.719 32.6414 342.905 33.3186 340.747 30.2635C340.169 29.447 339.472 29.3275 338.962 28.8495C338.393 28.3158 338.819 27.3877 337.233 27.9175C336.875 28.037 336.632 28.5389 336.325 28.6066C335.983 28.6822 335.365 28.2282 334.784 28.2202C333.669 28.2083 331.466 29.0089 330.215 29.2598C329.618 29.3793 328.562 29.8573 328.212 29.0527C343.503 24.974 359.184 26.9854 374.603 28.6663C381.848 29.455 393.774 29.7856 399.908 33.8324Z" fill="#B5B5B5"/>
<path d="M269.66 42.197C273.874 43.4796 278.439 44.085 282.804 44.1886C282.892 45.4751 281.578 45.6265 280.673 45.3277C278.722 44.6785 279.439 45.1684 277.837 45.0011C276.368 44.8458 275.866 44.1965 273.516 44.1009C272.114 44.0452 270.847 42.7945 269.433 42.6192L269.66 42.197Z" fill="#9C9C9C"/>
<path d="M396.323 44.5868C396.797 45.5706 397.601 44.774 398.115 44.5868C398.992 44.2642 400.501 43.9734 401.103 43.591C401.704 43.2086 401.839 42.4877 402.309 42.0097C402.58 41.7309 403.186 41.6273 403.52 41.229C404.452 40.1177 403.628 38.0107 403.648 36.8197C403.656 36.3179 404.102 35.6885 404.217 35.1508C404.369 34.4418 404.15 33.7049 404.484 33.0318C404.584 32.8326 405.962 31.5222 406.133 31.4864C406.476 31.4147 407.244 31.9444 408.065 31.8568C408.929 31.7652 410.224 30.8969 410.272 30.0524C410.284 29.8493 408.631 29.7497 409.471 29.0567C409.786 28.7978 411.419 29.4311 411.69 29.8413C411.869 30.1122 411.359 30.5583 411.634 31.0442C411.817 31.3669 412.897 32.0998 413.259 32.2392C414.259 32.6295 413.582 31.1797 414.052 31.0482C416.366 32.1475 418.903 33.2947 421.309 34.1471C422.436 34.5454 423.579 34.5494 424.479 35.3579L431.776 37.0229C431.199 38.4847 429.048 39.4207 430.183 41.002H428.59C428.47 40.536 429.064 39.9744 428.98 39.6358C428.885 39.2534 428.004 38.7874 427.793 39.0104C427.538 39.2853 428.076 40.1536 428.108 40.4762C428.152 40.9303 427.777 41.4282 427.761 42.0017C427.742 42.6988 428.259 43.3321 427.793 44.1885L425.188 42.2168L424.607 41.002C423.316 41.4043 424.591 43.0971 424.209 44.1885C423.966 44.4354 422.352 43.4237 421.496 44.2721C421.149 44.6107 421.273 45.7578 420.03 45.3834C419.437 45.2042 419.692 43.6508 418.238 44.1925C417.776 45.2719 419.827 46.2398 419.827 46.3832C419.827 47.2873 417.166 46.8372 416.497 47.0324C416.222 47.1121 415.107 48.1995 415.063 48.4106C415.027 48.5699 416.314 51.2147 416.441 51.362C416.776 51.7444 418.688 52.9672 418.995 52.5092C419.11 52.3379 418.887 51.8002 419.234 51.7404C420.504 51.5293 421.03 52.4853 421.217 52.4853C421.404 52.4853 421.902 51.5453 423.213 51.7444C423.862 51.84 424.197 52.4654 424.396 52.4733C425.129 52.5132 426.045 50.9359 426.794 50.9359C427.614 50.9359 427.797 52.0113 428.785 52.1587C429.892 52.322 429.148 51.3182 429.391 50.9637C429.697 50.5256 434.063 52.3578 433.736 50.3941C433.569 49.3904 431.617 48.303 431.78 46.9926C432.653 47.1081 433.047 46.0048 433.617 45.8335C433.967 45.7299 435.676 45.71 435.756 45.7817C435.799 45.8215 435.947 46.8253 435.481 46.9607C434.481 47.2515 435.094 48.1118 434.959 49.1634C434.847 50.0237 434.107 50.4977 434.166 51.3541C436.445 50.8084 435.616 52.3379 436.158 52.9473C436.843 53.7161 436.899 52.31 437.189 52.1308C437.548 51.9117 438.225 51.8878 438.659 51.6648C439.193 51.3899 440.229 50.43 440.734 50.5535C441.077 50.6371 441.535 51.2545 441.145 51.7643C440.961 52.0033 439.416 52.4893 439.918 53.3456C440.858 54.9429 442.288 53.5328 442.925 53.9192C444.04 54.6003 443.57 55.8829 443.754 56.098C444.323 56.7671 447.295 56.4126 448.29 56.5401C449.079 56.6436 450.047 57.3247 450.688 57.3168C451.266 57.3088 451.859 56.6994 452.656 56.9464C453.245 57.1296 453.13 58.0895 453.512 58.1453C458.507 58.8463 463.275 60.5272 468.226 61.6982C468.771 61.8257 469.469 61.6265 470.13 61.7858C471.926 62.216 476.475 64.3231 477.714 64.0363C478.247 63.9128 478.845 63.2197 479.327 63.3273C479.717 63.4149 480.438 64.6178 481.43 64.8289C482.282 65.0121 483.166 64.821 484.071 64.9763C485.293 65.1834 486.695 66.1194 487.807 66.4182C488.918 66.7169 490.639 66.6691 491.654 66.9519C492.132 67.0834 492.646 67.8561 493.375 68.0194C495.148 68.4137 497.183 68.4575 499.194 68.9713C500.063 69.1944 503.074 70.5208 503.464 69.0829C503.62 68.5133 502.345 67.9517 502.668 67.0953C502.739 66.3823 504.603 67.3423 504.611 67.8919C504.615 68.2106 503.126 68.5292 504.842 69.7003C505.328 70.0309 507.181 70.7398 507.734 70.8235C508.455 70.935 508.941 70.4212 509.622 70.461C510.502 70.5128 511.028 71.4488 512.414 71.2855C513.318 71.178 514.685 70.0707 515.617 70.0707C516.218 70.0707 516.449 70.7 516.863 70.8195C518.54 71.3134 523.404 71.7914 525.156 71.6639C526.738 71.5444 529.315 70.2181 529.749 72.8708C504.424 75.2965 473.766 63.2357 448.605 58.2209C437.819 56.0701 428.928 55.3372 418.007 54.9628C399.525 54.3295 369.194 56.9503 353.716 68.3102C345.403 74.4083 346.63 78.8813 342.22 86.6882C331.187 106.237 305.408 114.897 284.39 117.083L283.195 116.287C284.286 116.199 285.497 116.418 286.568 116.275C289.006 115.952 292.049 114.59 294.559 114.307C295.598 114.192 296.769 114.446 297.737 114.299C298.406 114.199 298.649 113.586 299.314 113.487C300.167 113.359 301.234 113.682 302.059 113.443C302.68 113.259 303.15 112.128 303.759 111.957C304.325 111.798 305.002 111.973 305.632 111.838C308.017 111.324 310.264 109.312 312.853 108.703C315.856 107.998 319.317 106.811 321.819 104.923C322.5 104.409 323.217 103.278 323.83 102.939C324.217 102.724 324.79 102.82 324.958 102.688C325.24 102.473 325.487 100.836 325.412 100.35C325.531 100.199 326.626 101.78 327.821 100.968C328.514 100.498 328.435 99.0836 328.65 98.8128C328.718 98.7251 329.741 98.4662 330.179 98.1516C330.984 97.574 331.554 96.6061 332.438 96.0286C333.322 95.451 334.82 95.4072 334.899 94.1167C334.927 93.6706 334.322 92.635 334.573 92.388C334.648 92.3163 336.102 92.0694 336.56 91.7826C338.289 90.6992 337.608 89.1378 335.768 88.7992C335.473 87.8592 337.357 86.7479 337.755 87.21C337.923 87.4052 338.014 88.9187 338.755 89.1936C340.79 88.138 341.157 85.5689 341.83 83.5137C341.977 83.0596 342.802 81.8607 342.515 81.6575C342.396 81.5739 342.001 81.793 341.726 81.3907C341.543 81.1278 341.149 79.8532 341.36 79.662C341.547 79.4947 342.256 79.5903 342.73 78.8415C343.017 78.3914 343.228 77.0013 343.363 76.8858C343.511 76.7623 344.359 76.9455 344.929 76.6627C346.275 76.0015 345.933 74.4481 346.554 73.5041C346.984 72.8469 348 72.6398 348.438 71.3971C348.581 70.9868 348.41 70.222 348.534 70.1065C348.613 70.0308 349.286 70.0946 349.697 69.8835C350.796 69.3179 350.493 67.9198 350.501 66.8961C351.493 67.6211 353.03 66.8165 354.062 66.2788C355.205 65.6853 356.496 64.578 357.667 63.9088L356.472 63.7097C356.169 62.6024 357.304 62.3116 357.272 61.3198C356.631 61.4114 355.488 60.5789 355.07 60.6028C354.652 60.6267 354.233 62.0129 353.146 61.6783C352.612 61.515 352.493 60.6028 351.692 61.1087C350.641 61.7699 351.087 62.5705 350.836 63.4428C350.732 63.8013 350.246 64.2036 350.011 64.6218C349.521 65.5021 350.031 65.9362 348.51 65.7012C348.502 65.04 348.518 64.3709 348.51 63.7097C351.107 63.4548 349.709 60.5391 349.107 60.5272C348.31 60.5112 348.502 63.0923 348.51 63.7097C347.394 63.8172 346.574 63.2397 345.518 63.2835C344.606 63.3233 343.344 64.0283 342.722 64.0602C342.324 64.0801 342.228 63.1042 342.069 62.9808C341.997 62.925 340.484 62.5068 340.332 62.5028C339.791 62.4948 338.397 63.8371 337.488 64.0403C336.859 64.1797 336.182 64.0004 335.616 64.1598C335.091 64.3071 334.74 65.1874 334.326 65.279C333.776 65.3985 333.175 64.5939 332.776 64.5979C332.513 64.6019 331.442 65.2471 331.378 65.51C331.215 66.1633 332.637 66.462 331.988 67.7047C331.884 67.8999 329.335 69.995 329.16 70.0587C328.901 70.1543 328.499 70.0587 328.192 70.0826C327.941 69.3019 328.841 69.0948 328.969 68.6646C329.439 67.0993 326.846 68.1508 326.403 68.119C325.698 68.0632 325.376 67.1869 324.838 67.3064C324.344 67.4179 323.201 69.2143 322.623 69.4971C322.014 69.7958 321.429 69.5887 320.879 69.7441C319.704 70.0747 319.732 71.9706 319.218 72.8628C317.804 75.3244 317.015 75.42 316.059 78.4671C315.625 79.8412 312.964 84.0952 311.861 85.0233C311.403 85.4056 310.69 86.1903 310.264 85.2184C313.889 80.7534 316.231 75.4957 318.692 70.3455L323.01 63.7097C322.432 63.9965 322.066 64.4306 321.425 64.7134C310.248 69.6047 295.463 69.5808 283.963 65.9123C283.207 65.6694 281.745 65.3029 281.187 64.9046C280.546 64.4465 279.542 62.2996 278.801 61.515C268.294 50.3344 239.476 52.4853 224.747 46.2637C222.05 45.1245 215.394 41.5596 215.92 38.1103C216.446 34.6609 220.72 33.9439 223.643 34.2188C233.629 35.1588 246.63 43.3839 256.086 47.1838C269.489 52.5689 285.549 54.5326 299.904 54.1502L300.792 53.3257C306.583 53.1863 313.1 52.2782 316.752 47.3192C320.003 40.0062 334.708 34.4657 334.955 35.0313C335.517 34.4418 336.305 34.0276 337.098 33.7846C343.921 31.7014 368.306 29.8772 373.603 34.8083C380.825 41.5278 368.517 45.3515 363.247 46.5266L345.98 50.9518C337.305 53.2859 329.574 57.6633 323.404 64.108L324.312 64.2275C337.214 57.6076 351.577 53.0947 366.151 50.434C376.196 49.2191 385.979 47.4028 395.498 44.9851C396.61 44.5 395.924 45.4132 396.61 45L396.323 44.5868Z" fill="#878787"/>
<path d="M395.526 44.9851C396.53 45.3356 395.072 45.6184 394.829 45.6782C388.811 47.2236 382.689 48.0919 376.598 48.9563C375.929 49.0519 375.714 49.6214 375.34 49.725C373.978 50.0954 372.699 49.9839 370.962 50.5256C370.353 50.7168 369.915 50.1512 369.453 50.1353C369.058 50.1233 369.421 50.9438 369.023 50.9837C368.397 51.0474 367.923 50.5575 367.147 50.6252C365.306 50.7885 362.869 51.6887 360.985 52.0631C351.955 53.8595 341.276 56.3569 333.27 60.5949C332.107 61.2123 330.864 62.2519 330.092 62.5944C329.112 63.0325 327.985 62.921 326.905 63.391C326.144 63.7216 323.711 66.1274 323.432 64.1C323.99 63.7774 324.408 63.3791 325.017 63.0963C339.727 56.2493 351.855 52.6964 367.864 49.7847C376.885 48.1437 386.783 47.5223 395.526 44.9851Z" fill="#878787"/>
<path d="M407.476 46.1802C407.655 47.0206 406.615 50.1473 406.874 50.5616C407.734 51.9358 409.021 49.7968 409.268 49.8008C409.423 49.8008 409.734 50.3903 410.124 50.5018C410.694 50.6691 411.363 50.4899 411.988 50.6293C412.673 50.7807 415.466 52.5492 414.645 53.3498C414.553 53.4414 412.622 53.3298 412.072 53.3617C409.798 53.5011 407.993 53.1865 405.671 52.9634C404.309 52.832 401.21 53.4573 402.489 50.948C403.233 49.4862 404.5 50.7488 405.09 50.3863C406.456 49.5459 405.468 48.5063 405.667 48.1638L407.476 46.1802Z" fill="#878787"/>
<path d="M414.589 40.2611C414.896 40.532 414.753 42.5912 415.86 43.591C416.286 43.9734 417.047 43.5591 416.613 45.1603C416.358 46.0964 413.944 45.6742 413.482 46.2159C413.359 46.3593 413.542 47.2156 413.259 47.7852C412.701 48.9124 411.088 49.3984 410.67 47.9445C410.507 47.3789 411.618 46.9806 411.459 46.3871C411.259 45.6582 409.073 45.5985 409.467 44.7899C409.834 44.0331 411.212 43.9654 411.849 43.587C412.088 43.4436 413.566 41.9978 413.665 41.8106C414.119 40.9502 413.434 40.6634 413.45 39.811C413.741 40.0142 414.478 40.1655 414.585 40.2611H414.589Z" fill="#878787"/>
<path d="M369.238 57.3328C369.552 57.6833 369.596 59.3363 369.182 59.6709C369.027 59.7944 368.588 59.6829 368.346 59.8103C367.553 60.2246 367.421 60.7264 366.314 60.4675C365.924 60.3759 363.745 59.3961 363.665 59.1212C363.526 58.6353 363.809 57.8705 364.259 57.7351C365.478 57.3647 365.306 58.3087 365.653 59.0973C365.832 59.5036 366.342 59.408 366.637 59.3164C366.951 59.2208 368.357 56.357 369.238 57.3328Z" fill="#878787"/>
<path d="M411.064 33.4341C410.725 33.4222 410.235 33.5377 410.044 33.8046C409.559 34.4817 410.458 35.7085 409.073 35.4257C409.172 34.88 408.929 32.7889 409.073 32.6375C409.284 32.4145 411.084 32.6295 411.064 33.4341Z" fill="#878787"/>
</g>
<defs>
<clipPath id="clip0_38_8065">
<rect width="577.16" height="215" fill="white"/>
</clipPath>
</defs>
</svg>
