<svg width="596" height="335" viewBox="0 0 596 335" fill="none" xmlns="http://www.w3.org/2000/svg">
<g clip-path="url(#clip0_49_8334)">
<path d="M595.298 0.0595703H0.0594881V334.941H595.298V0.0595703Z" fill="#542851" stroke="black" stroke-miterlimit="10"/>
<path d="M483.218 162.891C499.183 166.36 515.571 166.48 532.413 163.002L554.751 156.552" stroke="white" stroke-width="0.75" stroke-miterlimit="10"/>
<path d="M208.21 161.114C219.592 160.302 229.587 160.988 237.631 163.783C240.29 164.707 242.774 166.076 245 167.8C247.606 169.819 250.395 171.589 253.332 173.087C254.707 173.788 256.161 174.321 257.663 174.676L264.698 176.339C264.793 176.362 264.889 176.381 264.987 176.395L272.768 177.569C275.551 177.989 278.387 177.906 281.142 177.325L285.068 176.496C285.452 176.416 285.839 176.352 286.23 176.308C291.079 175.761 295.82 174.506 300.306 172.586C300.802 172.373 301.273 172.102 301.705 171.779L302.124 171.466C303.025 170.792 303.556 169.733 303.556 168.607C303.556 167.485 303.027 166.427 302.13 165.754L301.174 165.037C300.714 164.693 300.179 164.464 299.612 164.37L293.54 163.373L289.78 162.937C287.025 162.618 284.254 162.457 281.48 162.457H276.013L272.944 162.396C269.73 162.332 266.524 162.043 263.35 161.529L263.166 161.499C260.176 161.014 257.218 160.358 254.305 159.532C252.767 159.096 251.411 158.177 250.436 156.911C249.525 155.727 249.448 154.1 250.243 152.836C251.189 151.331 252.78 150.35 254.55 150.18L255.873 150.052C258.894 149.762 261.933 149.701 264.964 149.874L268.099 150.052C270.554 150.192 272.992 150.546 275.383 151.113L288.713 154.267C290.006 154.573 291.32 154.786 292.643 154.901C305.081 155.985 314.952 152.713 322.292 145.144C323.219 144.187 324.219 143.301 325.271 142.483C332.151 137.138 340.277 134.425 349.464 133.951C369.205 133.825 388.901 138.485 408.51 152.481C408.652 152.583 408.802 152.676 408.96 152.754C419.21 157.868 450.348 160.483 483.219 162.891" stroke="white" stroke-width="0.75" stroke-miterlimit="10"/>
<path d="M221.211 186.662V188.613V190.096V191.876V193.27L221.051 194.771" stroke="white" stroke-width="0.75" stroke-miterlimit="10"/>
<path d="M200.858 174.72L200.794 178.764L200.67 195.808" stroke="white" stroke-width="0.75" stroke-miterlimit="10"/>
<path d="M235.85 171.124C234.239 170.3 232.615 169.717 230.945 169.993C230.964 169.32 230.5 168.763 229.655 168.299L226.573 168.267L220.056 167.977L214.865 168.395L210.361 168.684L207.182 169.102L205.962 169.392L202.624 169.905L201.404 170.643L201.339 171.445L200.601 171.477L200.858 174.72" stroke="white" stroke-width="0.75" stroke-miterlimit="10"/>
<path d="M195.754 175.619L207.536 173.95L220.473 172.088L229.333 171.446L233.988 171.254L235.85 171.125" stroke="white" stroke-width="0.75" stroke-miterlimit="10"/>
<path d="M193.344 180.432C193.687 179.423 194.699 178.799 195.754 178.958V175.62" stroke="white" stroke-width="0.75" stroke-miterlimit="10"/>
<path d="M156.87 221.033C131.854 227.601 109.12 202.638 156.343 203.682C179.831 199.711 189.712 191.13 193.343 180.431" stroke="white" stroke-width="0.75" stroke-miterlimit="10"/>
<path d="M221.131 168.026L221.051 184.511" stroke="white" stroke-width="0.75" stroke-miterlimit="10"/>
<path d="M225.523 188.075L230.789 186.566L235.536 185.587L240.739 184.736L245.812 183.981L248.91 183.493" stroke="white" stroke-width="0.75" stroke-miterlimit="10"/>
<path d="M226.043 168.244L225.523 188.075" stroke="white" stroke-width="0.75" stroke-miterlimit="10"/>
<path d="M240.446 216.188L240.845 173.348C239.48 172.282 237.815 171.54 235.85 171.125" stroke="white" stroke-width="0.75" stroke-miterlimit="10"/>
<path d="M250.912 186.526L251.28 213.821L251.261 219.388C243.069 216.338 239.299 212.73 246.027 208.276L250.912 205.89L256.133 204.052L261.394 202.761L266.665 201.75L271.102 201.269L276.544 200.887L281.737 200.548L286.889 200.355L291.998 200.379L297.038 200.523L302.452 200.764L306.969 201.149L312.562 201.727L317.617 202.377L322.764 203.171L327.766 204.255L331.456 205.575L343.043 210.352" stroke="white" stroke-width="0.75" stroke-miterlimit="10"/>
<path d="M261.657 192.042L261.127 222.3" stroke="white" stroke-width="0.75" stroke-miterlimit="10"/>
<path d="M266.743 193.367L266.551 224.762" stroke="white" stroke-width="0.75" stroke-miterlimit="10"/>
<path d="M286.888 195.164L287.278 214.077" stroke="white" stroke-width="0.75" stroke-miterlimit="10"/>
<path d="M297.703 229.473C297.367 232.695 297.521 235.694 298.646 238.246" stroke="white" stroke-width="0.75" stroke-miterlimit="10"/>
<path d="M296.905 194.781L297.703 229.473" stroke="white" stroke-width="0.75" stroke-miterlimit="10"/>
<path d="M306.644 193.482L307.931 223.92" stroke="white" stroke-width="0.75" stroke-miterlimit="10"/>
<path d="M312.561 191.824V221.589V222.062" stroke="white" stroke-width="0.75" stroke-miterlimit="10"/>
<path d="M317.648 220.555L317.615 220.435V189.494" stroke="white" stroke-width="0.75" stroke-miterlimit="10"/>
<path d="M331.629 174.142V176.662L332.88 206.162L333.091 215.802" stroke="white" stroke-width="0.75" stroke-miterlimit="10"/>
<path d="M326.427 172.617L331.629 174.142" stroke="white" stroke-width="0.75" stroke-miterlimit="10"/>
<path d="M328.142 217.812L327.873 206.819L326.427 172.617" stroke="white" stroke-width="0.75" stroke-miterlimit="10"/>
<path d="M353.58 191.693L359.269 199.439L361.725 198.765L364.407 195.836L370.008 189.718L370.288 183.548" stroke="white" stroke-width="0.75" stroke-miterlimit="10"/>
<path d="M321.661 170.739C321.661 171.313 321.661 179.008 321.661 179.236C337.873 181.164 353.377 184.95 353.581 191.693" stroke="white" stroke-width="0.75" stroke-miterlimit="10"/>
<path d="M415.862 175.751C440.217 174.457 463.577 177.713 486.035 185.101" stroke="white" stroke-width="0.75" stroke-miterlimit="10"/>
<path d="M414.181 154.523L415.863 175.751" stroke="white" stroke-width="0.75" stroke-miterlimit="10"/>
<path d="M424.01 156.868L425.24 174.785V175.476" stroke="white" stroke-width="0.75" stroke-miterlimit="10"/>
<path d="M235.85 208.492L240.545 205.555L246.026 203.29L250.911 201.942L256.045 200.4L261.527 199.438L266.475 198.668L271.101 198.138L276.543 197.517L281.604 197.223L286.887 197.03H291.995L296.908 197.319L302.451 197.656L306.835 197.993L312.561 198.619L317.615 199.293L322.7 200.062L327.392 200.885L332.708 202.082L334.039 202.629C335.352 203.168 336.598 203.858 337.75 204.686L344.33 209.41" stroke="white" stroke-width="0.75" stroke-miterlimit="10"/>
<path d="M300.186 194.445L302.451 194.527L306.715 195.164L312.561 195.538L317.615 196.213L322.639 197.126L327.5 197.989L332.583 199.147L337.358 200.306" stroke="white" stroke-width="0.75" stroke-miterlimit="10"/>
<path d="M261.661 193.982L255.911 194.752L251.898 195.345C251.24 195.442 250.589 195.574 249.946 195.738L246.027 196.743L240.618 197.899L236.182 198.81C235.805 198.887 235.424 198.954 235.043 199.007L231.304 199.541C230.88 199.601 230.454 199.648 230.027 199.679C228.132 199.82 226.226 199.671 224.373 199.254C203.936 194.651 188.137 198.919 177.718 213.477C176.429 215.279 174.823 216.831 172.995 218.082C164.748 223.731 154.546 226.094 143.021 226.231C142.292 226.239 141.561 226.208 140.836 226.131C128.12 224.76 120.667 219.643 120.89 209.063" stroke="white" stroke-width="0.75" stroke-miterlimit="10"/>
<path d="M255.786 192.473L255.787 189.844L256.536 220.944" stroke="white" stroke-width="0.75" stroke-miterlimit="10"/>
<path d="M228.627 196.742L230.538 196.705L235.85 195.993L240.643 195.164L246.026 193.982L250.912 193.125L255.786 192.473" stroke="white" stroke-width="0.75" stroke-miterlimit="10"/>
<path d="M250.912 190.418L255.337 189.62" stroke="white" stroke-width="0.75" stroke-miterlimit="10"/>
<path d="M227.6 193.548L230.744 191.381L235.587 190.418L240.695 189.487L245.885 188.507L250.912 187.85" stroke="white" stroke-width="0.75" stroke-miterlimit="10"/>
<path d="M226.162 190.829L230.768 188.877L235.561 187.946L240.719 186.943L249.971 185.452" stroke="white" stroke-width="0.75" stroke-miterlimit="10"/>
<path d="M223.143 186.873L225.437 185.652L230.745 184.335L235.512 183.451L240.758 182.681L245.706 182.151L248.579 181.779" stroke="white" stroke-width="0.75" stroke-miterlimit="10"/>
<path d="M221.051 184.407V184.965L225.511 183.525L230.827 182.489L235.494 181.694L240.775 180.973L245.706 180.49L248.267 180.159" stroke="white" stroke-width="0.75" stroke-miterlimit="10"/>
<path d="M245.463 177.025C244.305 175.593 242.799 174.349 240.845 173.348" stroke="white" stroke-width="0.75" stroke-miterlimit="10"/>
<path d="M240.805 177.698L245.455 177.044C245.464 177.043 245.468 177.032 245.462 177.025" stroke="white" stroke-width="0.75" stroke-miterlimit="10"/>
<path d="M217.433 182.561L221.051 180.707L225.639 179.84L230.861 178.957L235.458 178.419L240.805 177.698" stroke="white" stroke-width="0.75" stroke-miterlimit="10"/>
<path d="M246.498 178.735V217.875" stroke="white" stroke-width="0.75" stroke-miterlimit="10"/>
<path d="M221.09 182.705L225.579 181.576L230.846 180.538L235.473 179.801L240.791 179.238L246.498 178.735" stroke="white" stroke-width="0.75" stroke-miterlimit="10"/>
<path d="M215.965 180.467L221.131 178.957L225.696 178.204L230.875 177.481L235.443 176.951L240.817 176.445" stroke="white" stroke-width="0.75" stroke-miterlimit="10"/>
<path d="M216.043 178.456L221.09 177.224L225.752 176.591L230.889 175.988L235.427 175.555L240.829 175.145" stroke="white" stroke-width="0.75" stroke-miterlimit="10"/>
<path d="M216.12 176.445L221.09 175.675L225.807 175.027L230.902 174.544L235.379 174.23L240.817 173.917" stroke="white" stroke-width="0.75" stroke-miterlimit="10"/>
<path d="M205.962 169.39L205.874 174.184V177.309L206.119 181.506" stroke="white" stroke-width="0.75" stroke-miterlimit="10"/>
<path d="M210.954 168.646L210.881 173.468L210.973 176.006L211.184 180.598" stroke="white" stroke-width="0.75" stroke-miterlimit="10"/>
<path d="M308.773 192.992L312.561 193.307L317.615 193.982L322.595 194.969L327.408 195.839L332.477 196.674L337.23 197.835L342.463 199.952L337.358 204.417L343.04 199.636L342.03 178.829L336.685 176.951L337.358 204.417" stroke="white" stroke-width="0.75" stroke-miterlimit="10"/>
<path d="M347.791 196.678L343.042 199.636" stroke="white" stroke-width="0.75" stroke-miterlimit="10"/>
<path d="M351.195 198.157C351.933 194.263 353.555 191.262 355.657 188.749C357.462 186.986 359.982 185.843 362.785 184.944L381.127 181.529" stroke="white" stroke-width="0.75" stroke-miterlimit="10"/>
<path d="M364.737 206.56L365.083 195.096" stroke="white" stroke-width="0.75" stroke-miterlimit="10"/>
<path d="M360.248 206.373V199.17" stroke="white" stroke-width="0.75" stroke-miterlimit="10"/>
<path d="M428.983 157.677L430.616 175.549" stroke="white" stroke-width="0.75" stroke-miterlimit="10"/>
<path d="M434.08 158.392L435.638 175.702" stroke="white" stroke-width="0.75" stroke-miterlimit="10"/>
<path d="M444.046 159.527L445.905 176.484" stroke="white" stroke-width="0.75" stroke-miterlimit="10"/>
<path d="M481.211 179.663L478.321 163.034" stroke="white" stroke-width="0.75" stroke-miterlimit="10"/>
<path d="M450.329 174.954L481.212 179.663" stroke="white" stroke-width="0.75" stroke-miterlimit="10"/>
<path d="M449.307 160.01L450.297 174.101C450.317 174.385 450.327 174.669 450.327 174.954" stroke="white" stroke-width="0.75" stroke-miterlimit="10"/>
<path d="M453.986 160.43L455.749 175.781" stroke="white" stroke-width="0.75" stroke-miterlimit="10"/>
<path d="M458.994 160.869L460.73 176.536" stroke="white" stroke-width="0.75" stroke-miterlimit="10"/>
<path d="M463.617 161.261L465.832 177.318" stroke="white" stroke-width="0.75" stroke-miterlimit="10"/>
<path d="M468.629 161.666L471.002 178.38" stroke="white" stroke-width="0.75" stroke-miterlimit="10"/>
<path d="M473.382 162.02L476.268 179.086" stroke="white" stroke-width="0.75" stroke-miterlimit="10"/>
<path d="M445.697 174.582L450.335 174.982" stroke="white" stroke-width="0.75" stroke-miterlimit="10"/>
<path d="M481.211 179.663H507.583L527.663 178.379L540.81 176.534L555.833 173.194L563.006 171.079C564.194 170.729 565.354 170.292 566.477 169.77L572.855 166.815" stroke="white" stroke-width="0.75" stroke-miterlimit="10"/>
<path d="M487.07 179.663C487.132 181.757 486.993 183.712 486.035 185.1C507.355 190.207 514.339 197.946 514.301 206.974" stroke="white" stroke-width="0.75" stroke-miterlimit="10"/>
<path d="M491.837 179.663C492.041 181.935 491.837 184.205 491.221 186.476" stroke="white" stroke-width="0.75" stroke-miterlimit="10"/>
<path d="M497.471 179.663C497.736 182.543 497.471 185.423 496.676 188.301" stroke="white" stroke-width="0.75" stroke-miterlimit="10"/>
<path d="M502.238 179.663L501.483 190.339" stroke="white" stroke-width="0.75" stroke-miterlimit="10"/>
<path d="M507.583 179.663C507.043 184.469 506.388 188.932 505.452 192.564" stroke="white" stroke-width="0.75" stroke-miterlimit="10"/>
<path d="M513.457 179.288L513.362 179.664C512.46 185.739 511.304 191.375 509.343 195.618" stroke="white" stroke-width="0.75" stroke-miterlimit="10"/>
<path d="M517.84 179.086L514.301 206.975C516.358 215.681 517.01 225.092 516.396 235.137L543.492 234.149C541.519 206.471 541.345 188.252 552.654 182.363" stroke="white" stroke-width="0.75" stroke-miterlimit="10"/>
<path d="M527.664 178.38L525.642 194.72L524.012 234.86" stroke="white" stroke-width="0.75" stroke-miterlimit="10"/>
<path d="M532.558 177.693L530.842 194.142L529.975 234.642" stroke="white" stroke-width="0.75" stroke-miterlimit="10"/>
<path d="M536.816 177.095L535.32 191.686V234.448" stroke="white" stroke-width="0.75" stroke-miterlimit="10"/>
<path d="M540.81 188.624L542.755 176.102" stroke="white" stroke-width="0.75" stroke-miterlimit="10"/>
<path d="M547.753 174.982L546.256 185.812" stroke="white" stroke-width="0.75" stroke-miterlimit="10"/>
<path d="M552.652 173.902L551.323 183.196" stroke="white" stroke-width="0.75" stroke-miterlimit="10"/>
<path d="M546.698 156.487C546.758 156.467 546.821 156.506 546.83 156.569L549.262 174.657" stroke="white" stroke-width="0.75" stroke-miterlimit="10"/>
<path d="M488.067 162.361C509.68 163.888 529.516 162.423 546.696 156.487" stroke="white" stroke-width="0.75" stroke-miterlimit="10"/>
<path d="M490.104 179.663L488.067 162.36" stroke="white" stroke-width="0.75" stroke-miterlimit="10"/>
<path d="M492.835 161.806L494.823 179.663" stroke="white" stroke-width="0.75" stroke-miterlimit="10"/>
<path d="M497.681 161.261L499.59 179.663" stroke="white" stroke-width="0.75" stroke-miterlimit="10"/>
<path d="M502.621 160.704L504.357 179.663" stroke="white" stroke-width="0.75" stroke-miterlimit="10"/>
<path d="M507.199 160.188L509.313 179.663" stroke="white" stroke-width="0.75" stroke-miterlimit="10"/>
<path d="M390.299 170.955L390.617 176.582" stroke="white" stroke-width="0.75" stroke-miterlimit="10"/>
<path d="M514.097 179.248C477.195 170.031 436.773 166.02 390.299 170.955" stroke="white" stroke-width="0.75" stroke-miterlimit="10"/>
<path d="M512.316 159.611L514.096 179.247" stroke="white" stroke-width="0.75" stroke-miterlimit="10"/>
<path d="M517.227 159.058L518.756 178.949" stroke="white" stroke-width="0.75" stroke-miterlimit="10"/>
<path d="M521.791 158.544L523.667 178.55" stroke="white" stroke-width="0.75" stroke-miterlimit="10"/>
<path d="M526.724 157.988L528.93 178.202" stroke="white" stroke-width="0.75" stroke-miterlimit="10"/>
<path d="M531.896 157.405L533.751 177.525" stroke="white" stroke-width="0.75" stroke-miterlimit="10"/>
<path d="M536.785 156.868L538.755 176.824C550.987 172.571 561.926 168.223 570.006 163.656" stroke="white" stroke-width="0.75" stroke-miterlimit="10"/>
<path d="M541.771 156.595L544.098 175.805" stroke="white" stroke-width="0.75" stroke-miterlimit="10"/>
<path d="M551.832 156.447L554.582 173.368" stroke="white" stroke-width="0.75" stroke-miterlimit="10"/>
<path d="M557.094 156.688L560.054 171.95" stroke="white" stroke-width="0.75" stroke-miterlimit="10"/>
<path d="M562.172 157.219L565.786 170.093" stroke="white" stroke-width="0.75" stroke-miterlimit="10"/>
<path d="M314.089 191.225L317.616 191.575L322.541 192.31L327.301 193.307C329.075 193.448 330.769 193.739 332.373 194.205L337.163 195.313C339.145 195.62 341.064 196.168 342.912 196.982C343.792 197.355 344.454 197.855 344.838 198.516" stroke="white" stroke-width="0.75" stroke-miterlimit="10"/>
<path d="M318.045 189.245C319.455 189.329 321.379 189.672 322.494 190.001C324.125 190.081 325.694 190.362 327.199 190.85C329.061 191.107 330.785 191.448 332.277 191.925C334.039 192.143 335.662 192.469 337.102 192.938C339.168 193.344 341.085 193.879 342.796 194.589C344.704 195.108 346.198 195.91 347.171 197.064" stroke="white" stroke-width="0.75" stroke-miterlimit="10"/>
<path d="M320.744 187.444L322.449 187.801L327.11 188.763L332.189 189.88L337.051 190.995L342.69 192.425L347.677 194.476" stroke="white" stroke-width="0.75" stroke-miterlimit="10"/>
<path d="M323.294 183.952L326.938 184.705L332.026 186.045L336.954 187.256L342.504 188.585L347.461 190.251L352.58 193.656" stroke="white" stroke-width="0.75" stroke-miterlimit="10"/>
<path d="M323.07 182.064L326.869 183.067L331.949 184.215L336.906 185.427L342.419 186.821L347.377 188.604L353.077 192.614C351.858 189.778 350.113 187.665 347.296 187.02L342.354 185.454L336.869 183.937L331.892 182.801L326.808 181.552L322.293 180.392" stroke="white" stroke-width="0.75" stroke-miterlimit="10"/>
<path d="M250.912 219.281L264.123 223.381" stroke="white" stroke-width="0.75" stroke-miterlimit="10"/>
<path d="M483.218 162.89L485.288 179.663" stroke="white" stroke-width="0.75" stroke-miterlimit="10"/>
<path d="M574.552 164.518C575.08 163.689 574.97 162.608 574.307 161.885C570.345 157.567 558.477 155.423 536.493 156.887L483.218 162.889" stroke="white" stroke-width="0.75" stroke-miterlimit="10"/>
<path d="M516.07 193.031C520.043 195.132 524.123 196.054 528.401 194.752C554.751 182.299 569.574 172.342 574.551 164.518" stroke="white" stroke-width="0.75" stroke-miterlimit="10"/>
<path d="M515.602 196.717C520.093 199.079 521.648 213.268 519.526 235.023" stroke="white" stroke-width="0.75" stroke-miterlimit="10"/>
<path d="M267.943 237.224C269.531 233.592 269.77 229.705 268.521 225.826" stroke="white" stroke-width="0.75" stroke-miterlimit="10"/>
<path d="M338.548 213.114C344.53 221.035 356.396 218.572 371.461 210.467" stroke="white" stroke-width="0.75" stroke-miterlimit="10"/>
<path d="M372.929 205.154C372.577 200.13 374.957 191.299 377.527 182.2" stroke="white" stroke-width="0.75" stroke-miterlimit="10"/>
<path d="M369.661 190.096C369.468 196.13 369.581 201.786 370.248 206.754" stroke="white" stroke-width="0.75" stroke-miterlimit="10"/>
<path d="M355.037 193.676L354.983 205.954" stroke="white" stroke-width="0.75" stroke-miterlimit="10"/>
<path d="M208.21 161.114C178.327 157.706 166.825 152.597 167.639 146.348C167.869 144.587 169.079 143.105 170.729 142.451C174.575 140.927 178.351 139.625 182.055 138.544C202.411 132.607 220.618 133.364 236.675 140.817C241.05 142.847 244.399 146.627 245.794 151.244C246.25 152.755 246.857 154.148 247.661 155.387C248.538 156.742 249.305 158.164 250.011 159.616C253.325 166.429 264.596 169.179 281.352 169.128C282.337 169.124 282.749 170.395 281.943 170.962C278.642 173.286 272.03 174.213 262.189 173.781C258.58 173.623 255.081 172.432 252.175 170.286C249.398 168.233 246.514 166.864 243.444 166.683" stroke="white" stroke-width="0.75" stroke-miterlimit="10"/>
<path d="M206.38 145.795C210.883 145.795 214.533 144.574 214.533 143.067C214.533 141.56 210.883 140.338 206.38 140.338C201.877 140.338 198.226 141.56 198.226 143.067C198.226 144.574 201.877 145.795 206.38 145.795Z" stroke="white" stroke-width="0.75" stroke-miterlimit="10"/>
<path d="M340.248 178.202C351.927 169.78 367.176 166.842 384.791 167.538C395.593 166.488 402.381 163.967 405.502 160.1C406.691 158.627 406.388 156.454 404.843 155.359C398.202 150.659 384.567 149.586 367.742 150.165C366.804 150.198 365.864 150.186 364.927 150.144C355.483 149.718 342.169 153.289 327.916 157.831C326.264 158.357 324.552 158.676 322.823 158.776C309.346 159.559 297.11 158.402 285.78 155.824C283.517 155.308 281.294 154.63 279.111 153.839C272.881 151.587 266.792 150.105 261.126 150.946C256.882 151.712 255.721 153.433 256.798 155.846C257.662 157.786 259.496 159.117 261.596 159.426L282.077 162.454" stroke="white" stroke-width="0.75" stroke-miterlimit="10"/>
<path d="M211.225 134.595C236.31 137.136 256.929 141.425 266.551 150.024" stroke="white" stroke-width="0.75" stroke-miterlimit="10"/>
<path d="M131.854 157.708C136.939 157.392 142.158 157.004 147.439 156.582C150.83 153.643 158.899 151.665 168.754 150.055" stroke="white" stroke-width="0.75" stroke-miterlimit="10"/>
<path d="M105.812 158.474C113.744 158.62 122.574 158.284 131.852 157.707" stroke="white" stroke-width="0.75" stroke-miterlimit="10"/>
<path d="M84.0964 156.083C89.9619 157.619 97.3798 158.319 105.813 158.475" stroke="white" stroke-width="0.75" stroke-miterlimit="10"/>
<path d="M41.1155 155.287C41.3333 151.769 51.3441 150.466 74.6524 154.087C77.8345 154.581 80.9821 155.267 84.0964 156.082" stroke="white" stroke-width="0.75" stroke-miterlimit="10"/>
<path d="M135.296 157.484C135.97 157.049 136.638 156.62 137.301 156.201C156.877 143.815 171.352 138.909 182.893 138.303" stroke="white" stroke-width="0.75" stroke-miterlimit="10"/>
<path d="M106.573 225.956C107.577 217.669 108.34 209.576 108.543 203.438" stroke="white" stroke-width="0.75" stroke-miterlimit="10"/>
<path d="M108.217 203.907C105.569 207.787 103.611 212.175 102.219 216.981C102.019 217.673 102.081 218.417 102.399 219.063C103.602 221.519 104.965 223.841 106.574 225.956" stroke="white" stroke-width="0.75" stroke-miterlimit="10"/>
<path d="M41.1155 155.287C63.0964 166.679 91.1012 172.137 125.77 171.027C137.881 170.289 148.924 170.879 157.729 174.251C159.56 174.952 160.618 176.901 160.143 178.804C159.11 182.943 152.871 185.551 140.813 186.445C135.599 186.832 130.463 187.992 125.639 190.008C118.482 193.001 113.094 197.298 109.121 202.638C108.812 203.055 108.51 203.477 108.217 203.907" stroke="white" stroke-width="0.75" stroke-miterlimit="10"/>
<path d="M41.1155 155.287C59.6155 169.936 73.831 184.187 61.0512 211.917L58.0179 223.756C73.5333 230.154 85.3119 227.705 91.8226 212.792C90.6988 197.908 94.6143 186.818 106.574 181.777C122.655 175.826 138.404 174.411 153.796 177.817C157.043 178.955 157.4 180.824 156.288 183.065" stroke="white" stroke-width="0.75" stroke-miterlimit="10"/>
<path d="M116.323 231.573C118.238 219.669 119.1 206.811 119.25 193.306" stroke="white" stroke-width="0.75" stroke-miterlimit="10"/>
<path d="M121.815 233.469L123.261 223.346" stroke="white" stroke-width="0.75" stroke-miterlimit="10"/>
<path d="M65.4238 164.761L66.6691 179.438C69.1512 185.22 68.4643 197.785 67.9345 210.012V219.373" stroke="white" stroke-width="0.75" stroke-miterlimit="10"/>
<path d="M102.079 158.508C77.575 157.279 61.1619 158.231 65.4238 164.76" stroke="white" stroke-width="0.75" stroke-miterlimit="10"/>
<path d="M105.813 170.912L107.35 181.493" stroke="white" stroke-width="0.75" stroke-miterlimit="10"/>
<path d="M137.301 156.201C111.452 159.542 77.3524 158.01 72.0274 161.404C68.3976 165.511 77.2476 167.255 85.8714 169.042C98.369 169.28 109.487 166.104 119.99 161.404C132.324 159.538 143.87 157.975 144.838 160.482C138.986 165.894 127.481 169.185 110.876 170.561C109.238 170.696 107.55 170.813 105.812 170.912" stroke="white" stroke-width="0.75" stroke-miterlimit="10"/>
<path d="M106.573 225.956C113.826 231.794 124.842 235.495 140.601 236.501L142.207 243.837L144.257 251.061L147.92 263.965H137.133C141.989 271.286 149.876 277.959 160.296 284.094C172.849 284.38 184.845 282.681 196.363 279.278C194.008 272.469 191.873 265.406 189.92 258.132C188.324 252.184 186.851 246.095 185.48 239.888H184.42C182.739 233.496 179.545 227.031 189.332 221.205C201.273 213.492 213.579 207.287 228.626 212.439L250.093 218.968" stroke="white" stroke-width="0.75" stroke-miterlimit="10"/>
<path d="M159.445 253.311L158.732 236.62" stroke="white" stroke-width="0.75" stroke-miterlimit="10"/>
<path d="M173.424 253.311L174.504 231.367C170.482 235.264 166.486 238.712 162.527 241.429C159.574 243.258 154.3 240.06 149.719 237.239" stroke="white" stroke-width="0.75" stroke-miterlimit="10"/>
<path d="M142.143 243.54C146.27 252.02 165.864 256.027 171.227 254.078C175.996 252.346 187.371 245 184.421 239.889" stroke="white" stroke-width="0.75" stroke-miterlimit="10"/>
<path d="M140.601 236.501C157.187 239.156 172.87 234.588 185.733 223.89" stroke="white" stroke-width="0.75" stroke-miterlimit="10"/>
<path d="M144.075 250.417C164.658 260.969 185.77 272.348 189.493 256.524" stroke="white" stroke-width="0.75" stroke-miterlimit="10"/>
<path d="M153.818 251.927C151.363 246.274 147.69 241.14 142.282 236.746" stroke="white" stroke-width="0.75" stroke-miterlimit="10"/>
<path d="M542.755 226.983C539.194 219.161 536.5 211.612 535.32 204.544C535.682 197.225 538.133 191.302 543.42 187.273" stroke="white" stroke-width="0.75" stroke-miterlimit="10"/>
<path d="M519.35 204.011L522.752 178.694" stroke="white" stroke-width="0.75" stroke-miterlimit="10"/>
<path d="M557.278 172.769L556.844 179.6" stroke="white" stroke-width="0.75" stroke-miterlimit="10"/>
<path d="M561.975 171.383L561.621 176.461" stroke="white" stroke-width="0.75" stroke-miterlimit="10"/>
<path d="M567.002 169.529C566.86 170.673 566.659 171.808 566.4 172.931C566.542 171.787 566.743 170.651 567.002 169.529Z" fill="white"/>
<path d="M408.958 152.752L410.474 176.346" stroke="white" stroke-width="0.75" stroke-miterlimit="10"/>
<path d="M402.927 154.201C406.651 155.382 409.013 156.994 408.467 159.527C408.229 166.556 400.174 170.057 387.15 171.317C367.556 171.975 350.882 174.937 343.041 179.677C358.074 176.16 370.768 175.33 376.616 182.369L375.786 174.59" stroke="white" stroke-width="0.75" stroke-miterlimit="10"/>
<path d="M287.592 218.968C292.445 218.968 296.38 217.873 296.38 216.523C296.38 215.172 292.445 214.077 287.592 214.077C282.738 214.077 278.804 215.172 278.804 216.523C278.804 217.873 282.738 218.968 287.592 218.968Z" stroke="white" stroke-width="0.75" stroke-miterlimit="10"/>
<path d="M302.451 228.061C301.61 231.941 301.083 235.598 302.266 238.044" stroke="white" stroke-width="0.75" stroke-miterlimit="10"/>
<path d="M302.451 194.163V228.061" stroke="white" stroke-width="0.75" stroke-miterlimit="10"/>
<path d="M245.463 177.025C245.781 178.383 246.436 178.911 247.261 178.948C247.776 178.97 248.187 179.394 248.171 179.911C247.935 187.812 257.583 192.707 276.544 194.768C285.233 195.489 293.871 195.319 302.452 194.163" stroke="white" stroke-width="0.75" stroke-miterlimit="10"/>
<path d="M322.72 185.826L327.024 186.724L332.102 187.833L336.999 189.02L342.594 190.449L347.575 192.488L351.877 194.743L352.092 194.868" stroke="white" stroke-width="0.75" stroke-miterlimit="10"/>
<path d="M305.686 170.868C310.08 172.02 313.876 173.607 316.807 175.408C322.055 178.631 324.532 182.532 322.72 185.827" stroke="white" stroke-width="0.75" stroke-miterlimit="10"/>
<path d="M302.451 194.163C310.999 193.112 317.608 190.398 322.719 185.826" stroke="white" stroke-width="0.75" stroke-miterlimit="10"/>
<path d="M291.806 195.096L292.225 214.445" stroke="white" stroke-width="0.75" stroke-miterlimit="10"/>
<path d="M281.595 195.086L282.014 214.633" stroke="white" stroke-width="0.75" stroke-miterlimit="10"/>
<path d="M236.058 214.633L235.85 171.124" stroke="white" stroke-width="0.75" stroke-miterlimit="10"/>
<path d="M230.945 199.54V169.993L225.986 169.874L221.091 170.257L216.005 170.763L210.917 171.245L205.918 171.788L200.67 172.35" stroke="white" stroke-width="0.75" stroke-miterlimit="10"/>
<path d="M230.945 213.144V199.541" stroke="white" stroke-width="0.75" stroke-miterlimit="10"/>
<path d="M287.279 230.707V218.966" stroke="white" stroke-width="0.75" stroke-miterlimit="10"/>
<path d="M287.279 237.721V230.707" stroke="white" stroke-width="0.75" stroke-miterlimit="10"/>
<path d="M267.943 237.224C269.149 239.037 278.946 238.149 287.279 237.721" stroke="white" stroke-width="0.75" stroke-miterlimit="10"/>
<path d="M267.943 243.324C268.37 241.757 268.228 239.569 267.943 237.224" stroke="white" stroke-width="0.75" stroke-miterlimit="10"/>
<path d="M305.817 243.219L267.848 243.323" stroke="white" stroke-width="0.75" stroke-miterlimit="10"/>
<path d="M305.527 241.011C305.605 241.776 305.707 242.548 305.833 243.324" stroke="white" stroke-width="0.75" stroke-miterlimit="10"/>
<path d="M305.411 236.132C305.314 237.73 305.361 239.357 305.527 241.011" stroke="white" stroke-width="0.75" stroke-miterlimit="10"/>
<path d="M305.352 226.952C304.229 229.6 304.496 232.75 305.41 236.132" stroke="white" stroke-width="0.75" stroke-miterlimit="10"/>
<path d="M291.901 237.865C299.906 238.617 304.788 238.299 305.39 236.517" stroke="white" stroke-width="0.75" stroke-miterlimit="10"/>
<path d="M292.045 230.476L291.901 237.867" stroke="white" stroke-width="0.75" stroke-miterlimit="10"/>
<path d="M292.276 218.592L292.045 230.476" stroke="white" stroke-width="0.75" stroke-miterlimit="10"/>
<path d="M287.279 237.721L292.193 237.893" stroke="white" stroke-width="0.75" stroke-miterlimit="10"/>
<path d="M271.591 209.412L272.051 221.634V227.509" stroke="white" stroke-width="0.75" stroke-miterlimit="10"/>
<path d="M281.846 230.3L281.737 237.988" stroke="white" stroke-width="0.75" stroke-miterlimit="10"/>
<path d="M282.017 218.208L281.846 230.3" stroke="white" stroke-width="0.75" stroke-miterlimit="10"/>
<path d="M269.318 226.239C273.865 230.199 275.883 234.19 272.929 238.246" stroke="white" stroke-width="0.75" stroke-miterlimit="10"/>
<path d="M61.0512 211.917C66.0083 220.705 72.5071 222.644 80.2643 218.989L91.6524 206.862" stroke="white" stroke-width="0.75" stroke-miterlimit="10"/>
<path d="M61.6821 176.544C74.4214 184.938 88.1869 187.231 103.977 183.036" stroke="white" stroke-width="0.75" stroke-miterlimit="10"/>
<path d="M64.0869 216.243C72.7869 202.356 81.3452 188.522 71.1655 181.494" stroke="white" stroke-width="0.75" stroke-miterlimit="10"/>
<path d="M85.3905 213.531C82.1417 199.852 83.1524 188.768 95.5988 184.651" stroke="white" stroke-width="0.75" stroke-miterlimit="10"/>
<path d="M72.8857 220.731V200.885" stroke="white" stroke-width="0.75" stroke-miterlimit="10"/>
<path d="M72.0286 182.142L72.8852 201.173" stroke="white" stroke-width="0.75" stroke-miterlimit="10"/>
<path d="M89.7905 208.844C89.5155 198.976 93.5238 190.832 100.131 183.93" stroke="white" stroke-width="0.75" stroke-miterlimit="10"/>
<path d="M91.5488 158.112L63.5631 152.618" stroke="white" stroke-width="0.75" stroke-miterlimit="10"/>
<path d="M58.1048 162.494C52.306 159.477 46.7072 156.596 42.7357 153.306" stroke="white" stroke-width="0.75" stroke-miterlimit="10"/>
<path d="M58.94 152.201L58.106 162.494" stroke="white" stroke-width="0.75" stroke-miterlimit="10"/>
<path d="M76.7214 158.343L58.9405 152.201" stroke="white" stroke-width="0.75" stroke-miterlimit="10"/>
<path d="M53.4744 151.94L52.5524 160.463" stroke="white" stroke-width="0.75" stroke-miterlimit="10"/>
<path d="M70.8881 159.062L53.475 151.94" stroke="white" stroke-width="0.75" stroke-miterlimit="10"/>
<path d="M67.3821 160.048L49.6821 151.986" stroke="white" stroke-width="0.75" stroke-miterlimit="10"/>
<path d="M65.0643 161.748L47.4393 152.201" stroke="white" stroke-width="0.75" stroke-miterlimit="10"/>
<path d="M65.0643 164.122L45.1881 152.504" stroke="white" stroke-width="0.75" stroke-miterlimit="10"/>
<path d="M48.7857 152.038C48.2524 154.014 47.6048 156.17 46.9583 158.112C47.4917 156.136 48.1405 153.98 48.7857 152.038Z" fill="white"/>
<path d="M64.0863 152.618L63.0441 164.073" stroke="white" stroke-width="0.75" stroke-miterlimit="10"/>
<path d="M69.2736 153.306L68.85 159.542" stroke="white" stroke-width="0.75" stroke-miterlimit="10"/>
<path d="M74.3415 154.095L74.1559 158.577" stroke="white" stroke-width="0.75" stroke-miterlimit="10"/>
<path d="M79.5034 154.88L79.2524 158.048" stroke="white" stroke-width="0.75" stroke-miterlimit="10"/>
<path d="M84.5595 156.201V158.112" stroke="white" stroke-width="0.75" stroke-miterlimit="10"/>
<path d="M89.5286 157.207V158.047" stroke="white" stroke-width="0.75" stroke-miterlimit="10"/>
<path d="M228.27 195.164L229.494 193.982H230.539L235.617 193.125L240.67 192.215L245.818 191.307L250.912 190.419" stroke="white" stroke-width="0.75" stroke-miterlimit="10"/>
<path d="M208.98 161.114C198.474 165.918 190.749 174.868 185.686 185C184.005 188.364 181.332 191.132 178.038 192.948C166.835 199.126 153.887 202.826 138.471 203.014C134.373 203.064 130.427 204.683 127.545 207.596C123.386 211.8 124.393 215.62 128.771 219.192C132.904 222.562 138.206 224.161 143.521 223.74C153.346 222.963 161.802 219.799 169.381 215.104C172.59 213.115 175.539 210.727 178.131 207.981C187.749 197.786 202.899 192.208 228.27 195.164" stroke="white" stroke-width="0.75" stroke-miterlimit="10"/>
<path d="M45.8964 157.627C46.0071 158.176 46.0582 158.731 46.0463 159.292C45.9345 158.743 45.8857 158.188 45.8964 157.627Z" fill="white"/>
<path d="M50.2691 159.542L51.3006 163.935" stroke="white" stroke-width="0.75" stroke-miterlimit="10"/>
<path d="M55.225 161.476L56.9548 169.849" stroke="white" stroke-width="0.75" stroke-miterlimit="10"/>
<path d="M60.431 163.262L62.1048 176.814" stroke="white" stroke-width="0.75" stroke-miterlimit="10"/>
<path d="M70.8881 166.018L72.0279 181.493" stroke="white" stroke-width="0.75" stroke-miterlimit="10"/>
<path d="M75.7917 167.275L77.5869 183.577V220.042" stroke="white" stroke-width="0.75" stroke-miterlimit="10"/>
<path d="M80.3119 168.143L82.0226 184.467" stroke="white" stroke-width="0.75" stroke-miterlimit="10"/>
<path d="M85.8726 169.042L87.1988 185.02L88.5333 210.183" stroke="white" stroke-width="0.75" stroke-miterlimit="10"/>
<path d="M90.6298 169.671L92.0634 184.951" stroke="white" stroke-width="0.75" stroke-miterlimit="10"/>
<path d="M96.0214 170.24L97.0077 184.467" stroke="white" stroke-width="0.75" stroke-miterlimit="10"/>
<path d="M100.706 170.618L102.078 183.508" stroke="white" stroke-width="0.75" stroke-miterlimit="10"/>
<path d="M112.156 179.891L110.505 170.618" stroke="white" stroke-width="0.75" stroke-miterlimit="10"/>
<path d="M116.984 178.55L116.131 170.042" stroke="white" stroke-width="0.75" stroke-miterlimit="10"/>
<path d="M121.792 177.489L121.1 171.138L121.446 169.317" stroke="white" stroke-width="0.75" stroke-miterlimit="10"/>
<path d="M126.244 171L126.997 176.656" stroke="white" stroke-width="0.75" stroke-miterlimit="10"/>
<path d="M126.244 168.439V171" stroke="white" stroke-width="0.75" stroke-miterlimit="10"/>
<path d="M181.394 156.417L180.725 183.561" stroke="white" stroke-width="0.75" stroke-miterlimit="10"/>
<path d="M131.143 170.791V167.249C149.03 162.351 165.967 158.53 181.393 156.417" stroke="white" stroke-width="0.75" stroke-miterlimit="10"/>
<path d="M131.417 176.212L131.143 170.791" stroke="white" stroke-width="0.75" stroke-miterlimit="10"/>
<path d="M136.025 170.756L136.22 176.006" stroke="white" stroke-width="0.75" stroke-miterlimit="10"/>
<path d="M136.22 165.562L136.025 170.756" stroke="white" stroke-width="0.75" stroke-miterlimit="10"/>
<path d="M176.301 154.754L175.445 189.194" stroke="white" stroke-width="0.75" stroke-miterlimit="10"/>
<path d="M141.086 163.227C152.469 159.017 164.229 156.275 176.301 154.754" stroke="white" stroke-width="0.75" stroke-miterlimit="10"/>
<path d="M141.086 170.952V163.227" stroke="white" stroke-width="0.75" stroke-miterlimit="10"/>
<path d="M141.086 176.006V170.952" stroke="white" stroke-width="0.75" stroke-miterlimit="10"/>
<path d="M146.176 171.449L146.439 176.559" stroke="white" stroke-width="0.75" stroke-miterlimit="10"/>
<path d="M146.702 156.64L146.176 171.449" stroke="white" stroke-width="0.75" stroke-miterlimit="10"/>
<path d="M171.516 152.432L170.36 192.456" stroke="white" stroke-width="0.75" stroke-miterlimit="10"/>
<path d="M191.119 158.629V167.5" stroke="white" stroke-width="0.75" stroke-miterlimit="10"/>
<path d="M196.127 159.49V163.696" stroke="white" stroke-width="0.75" stroke-miterlimit="10"/>
<path d="M154.614 197.602V183.562" stroke="white" stroke-width="0.75" stroke-miterlimit="10"/>
<path d="M149.483 198.369V185.317" stroke="white" stroke-width="0.75" stroke-miterlimit="10"/>
<path d="M144.488 198.832L144.706 186.074" stroke="white" stroke-width="0.75" stroke-miterlimit="10"/>
<path d="M139.319 199.067L119.227 194.982" stroke="white" stroke-width="0.75" stroke-miterlimit="10"/>
<path d="M139.639 186.546L139.319 199.067" stroke="white" stroke-width="0.75" stroke-miterlimit="10"/>
<path d="M173.552 190.582C163.643 189.602 152.056 188.183 139.639 186.546" stroke="white" stroke-width="0.75" stroke-miterlimit="10"/>
<path d="M134.157 199.544L134.447 187.319" stroke="white" stroke-width="0.75" stroke-miterlimit="10"/>
<path d="M129.031 201.275C123.432 199.61 118.077 198.288 113.638 198.251" stroke="white" stroke-width="0.75" stroke-miterlimit="10"/>
<path d="M129.206 188.689L129.03 201.275" stroke="white" stroke-width="0.75" stroke-miterlimit="10"/>
<path d="M124.057 204.663L124.325 190.582" stroke="white" stroke-width="0.75" stroke-miterlimit="10"/>
<path d="M127.952 226.261L126.74 234.693" stroke="white" stroke-width="0.75" stroke-miterlimit="10"/>
<path d="M132.927 227.842L131.855 235.6" stroke="white" stroke-width="0.75" stroke-miterlimit="10"/>
<path d="M138.073 228.709L136.867 236.205" stroke="white" stroke-width="0.75" stroke-miterlimit="10"/>
<path d="M141.918 236.746C144.239 241.095 146.124 245.17 147.082 248.662" stroke="white" stroke-width="0.75" stroke-miterlimit="10"/>
<path d="M143.18 229.192C141.661 231.511 141.216 234.025 141.918 236.746" stroke="white" stroke-width="0.75" stroke-miterlimit="10"/>
<path d="M147.824 229.276C145.85 231.456 146.364 234.168 148.498 237.226" stroke="white" stroke-width="0.75" stroke-miterlimit="10"/>
<path d="M153.064 228.931C151.684 231.492 152.267 234.243 153.843 237.09" stroke="white" stroke-width="0.75" stroke-miterlimit="10"/>
<path d="M158.295 228.076C157.335 230.732 157.526 233.55 158.732 236.507" stroke="white" stroke-width="0.75" stroke-miterlimit="10"/>
<path d="M164.052 235.476V254.349" stroke="white" stroke-width="0.75" stroke-miterlimit="10"/>
<path d="M163.915 226.526C162.949 229.687 162.828 232.7 164.052 235.477" stroke="white" stroke-width="0.75" stroke-miterlimit="10"/>
<path d="M169.542 233.646V254.463" stroke="white" stroke-width="0.75" stroke-miterlimit="10"/>
<path d="M169.259 224.374C167.648 227.331 167.742 230.421 169.541 233.646" stroke="white" stroke-width="0.75" stroke-miterlimit="10"/>
<path d="M174.285 221.671C172.76 224.99 173.351 228.195 174.504 231.368" stroke="white" stroke-width="0.75" stroke-miterlimit="10"/>
<path d="M179.094 228.68L179.803 249.318" stroke="white" stroke-width="0.75" stroke-miterlimit="10"/>
<path d="M179.346 218.136C178.429 221.6 178.397 225.118 179.093 228.68" stroke="white" stroke-width="0.75" stroke-miterlimit="10"/>
<path d="M184.701 213.252C183.268 217.651 183.18 221.47 185.068 224.435" stroke="white" stroke-width="0.75" stroke-miterlimit="10"/>
<path d="M190.216 208.695L189.333 221.205" stroke="white" stroke-width="0.75" stroke-miterlimit="10"/>
<path d="M195.433 205.595C194.723 209.783 194.542 213.83 195.034 217.698" stroke="white" stroke-width="0.75" stroke-miterlimit="10"/>
<path d="M200.458 203.682C199.757 207.664 199.589 211.452 200.214 214.949" stroke="white" stroke-width="0.75" stroke-miterlimit="10"/>
<path d="M205.562 202.694C204.886 205.969 204.8 209.361 205.201 212.848" stroke="white" stroke-width="0.75" stroke-miterlimit="10"/>
<path d="M210.595 202.166L210.458 211.329" stroke="white" stroke-width="0.75" stroke-miterlimit="10"/>
<path d="M215.502 202.139V210.618" stroke="white" stroke-width="0.75" stroke-miterlimit="10"/>
<path d="M220.274 210.661L220.495 202.694" stroke="white" stroke-width="0.75" stroke-miterlimit="10"/>
<path d="M225.385 203.907L225.578 211.538" stroke="white" stroke-width="0.75" stroke-miterlimit="10"/>
<path d="M167.106 141.425L166.362 150.46L165.144 194.771" stroke="white" stroke-width="0.75" stroke-miterlimit="10"/>
<path d="M162.158 143.202L161.502 151.39L159.814 196.451" stroke="white" stroke-width="0.75" stroke-miterlimit="10"/>
<path d="M155.877 173.594L155.817 178.889" stroke="white" stroke-width="0.75" stroke-miterlimit="10"/>
<path d="M156.87 145.444L156.423 152.607L155.877 173.594" stroke="white" stroke-width="0.75" stroke-miterlimit="10"/>
<path d="M150.926 172.264L150.863 177.227" stroke="white" stroke-width="0.75" stroke-miterlimit="10"/>
<path d="M151.784 147.894L151.736 150.118L151.645 154.414L150.926 172.264" stroke="white" stroke-width="0.75" stroke-miterlimit="10"/>
<path d="M147.577 150.118C147.968 152.498 148.041 154.714 147.439 156.581" stroke="white" stroke-width="0.75" stroke-miterlimit="10"/>
<path d="M142.946 159.412C152.235 155.332 161.414 152.333 170.361 151.62" stroke="white" stroke-width="0.75" stroke-miterlimit="10"/>
<path d="M142.946 152.752V159.412" stroke="white" stroke-width="0.75" stroke-miterlimit="10"/>
<path d="M137.912 159.231V155.817" stroke="white" stroke-width="0.75" stroke-miterlimit="10"/>
<path d="M79.9929 159.707C96.5869 162.359 114.431 161.176 133.043 157.632V159.629" stroke="white" stroke-width="0.75" stroke-miterlimit="10"/>
<path d="M98.8631 170.482C121.385 163.108 142.973 156.277 142.946 162.019" stroke="white" stroke-width="0.75" stroke-miterlimit="10"/>
<path d="M228.27 195.164C225.405 187.583 219.843 182.6 211.185 180.598C210.801 180.508 210.404 180.48 210.013 180.524C208.405 180.704 207.11 181.032 206.119 181.507C204.036 182.506 203.48 185.218 204.993 186.964C205.587 187.649 205.892 188.537 205.845 189.442L205.561 194.98" stroke="white" stroke-width="0.75" stroke-miterlimit="10"/>
<path d="M174.974 211V198.527" stroke="white" stroke-width="0.75" stroke-miterlimit="10"/>
<path d="M169.382 215.104L169.977 200.408" stroke="white" stroke-width="0.75" stroke-miterlimit="10"/>
<path d="M159.445 220.042L159.85 203.036" stroke="white" stroke-width="0.75" stroke-miterlimit="10"/>
<path d="M154.614 221.737V203.682" stroke="white" stroke-width="0.75" stroke-miterlimit="10"/>
<path d="M148.981 222.129L149.719 203.716" stroke="white" stroke-width="0.75" stroke-miterlimit="10"/>
<path d="M143.585 221.796L144.488 204.063" stroke="white" stroke-width="0.75" stroke-miterlimit="10"/>
<path d="M138.461 220.596L139.319 204.829" stroke="white" stroke-width="0.75" stroke-miterlimit="10"/>
<path d="M133.624 218.386L134.064 206.379" stroke="white" stroke-width="0.75" stroke-miterlimit="10"/>
<path d="M246.498 140.524V153.188" stroke="white" stroke-width="0.75" stroke-miterlimit="10"/>
<path d="M251.565 142.079L251.415 151.491" stroke="white" stroke-width="0.75" stroke-miterlimit="10"/>
<path d="M256.421 143.925V149.999" stroke="white" stroke-width="0.75" stroke-miterlimit="10"/>
<path d="M261.526 146.451V150.893" stroke="white" stroke-width="0.75" stroke-miterlimit="10"/>
<path d="M305.686 163.564C313.502 164.67 322.157 164.139 331.326 162.607C348.786 153.219 371.685 152.969 398.964 160.081" stroke="white" stroke-width="0.75" stroke-miterlimit="10"/>
<path d="M305.686 154.256V163.564" stroke="white" stroke-width="0.75" stroke-miterlimit="10"/>
<path d="M400.547 177.681L400.077 168.698" stroke="white" stroke-width="0.75" stroke-miterlimit="10"/>
<path d="M395.688 178.469L395.27 170.086" stroke="white" stroke-width="0.75" stroke-miterlimit="10"/>
<path d="M392.639 178.861C393.607 174.974 378.027 174.322 357.5 174.636" stroke="white" stroke-width="0.75" stroke-miterlimit="10"/>
<path d="M386.118 180.345L385.543 171.376" stroke="white" stroke-width="0.75" stroke-miterlimit="10"/>
<path d="M301.173 165.036C304.226 166.4 306.051 168.338 305.861 171.217C305.718 173.378 304.427 175.303 302.52 176.333C289.645 183.28 274.801 184.826 257.539 179.744C256.823 179.533 256.148 179.198 255.546 178.756C243.213 169.688 231.033 165.23 219.019 165.756C218.748 165.768 218.475 165.763 218.205 165.743C203.543 164.598 195.974 170.174 193.345 180.432" stroke="white" stroke-width="0.75" stroke-miterlimit="10"/>
<path d="M331.325 173.883C330.732 171.106 330.967 166.958 331.325 162.607L349.644 168.913" stroke="white" stroke-width="0.75" stroke-miterlimit="10"/>
<path d="M335.388 160.63L336.014 176.346C337.446 175.011 339.092 173.758 341.017 172.618C347.312 168.883 356.593 166.33 371.188 165.876C373.158 165.815 375.125 165.656 377.081 165.41C391.546 163.588 403.851 161.444 400.819 157.017C400.357 156.342 399.674 155.849 398.898 155.592C390.38 152.757 378.22 151.213 364.737 150.138L376.938 150.03C372.379 149.29 367.871 148.74 363.45 148.508C354.933 148.061 346.451 149.677 338.59 152.986C332.254 155.652 324.513 157.163 315.239 157.413C305.965 157.663 296.795 156.562 287.858 154.248L279.718 152.14" stroke="white" stroke-width="0.75" stroke-miterlimit="10"/>
<path d="M345.174 157.313L345.713 170.3" stroke="white" stroke-width="0.75" stroke-miterlimit="10"/>
<path d="M395.927 159.316C378.054 162.98 361.177 164.749 349.644 156.357L349.67 156.754L350.442 168.679" stroke="white" stroke-width="0.75" stroke-miterlimit="10"/>
<path d="M356.002 155.494C363.805 159.223 374.249 159.875 387.333 157.449" stroke="white" stroke-width="0.75" stroke-miterlimit="10"/>
<path d="M355.264 159.511V167.5" stroke="white" stroke-width="0.75" stroke-miterlimit="10"/>
<path d="M369.687 158.779V162.231V165.931" stroke="white" stroke-width="0.75" stroke-miterlimit="10"/>
<path d="M374.63 158.882V162.231V165.67" stroke="white" stroke-width="0.75" stroke-miterlimit="10"/>
<path d="M379.379 158.575V161.964V165.114" stroke="white" stroke-width="0.75" stroke-miterlimit="10"/>
<path d="M384.569 161.336V164.388" stroke="white" stroke-width="0.75" stroke-miterlimit="10"/>
<path d="M241.503 139.256L241.26 143.925" stroke="white" stroke-width="0.75" stroke-miterlimit="10"/>
<path d="M305.686 163.564C292.343 161.94 279.964 160.294 272.485 156.713C263.739 152.527 257.198 155.283 258.59 158.139" stroke="white" stroke-width="0.75" stroke-miterlimit="10"/>
<path d="M306.643 170.955L305.686 163.564" stroke="white" stroke-width="0.75" stroke-miterlimit="10"/>
<path d="M310.774 164.113L312.494 173.189C335.185 176.794 354.335 181.037 356.002 188.427" stroke="white" stroke-width="0.75" stroke-miterlimit="10"/>
<path d="M351.195 176.381L352.091 188.358" stroke="white" stroke-width="0.75" stroke-miterlimit="10"/>
<path d="M356.002 174.993L356.897 187.708" stroke="white" stroke-width="0.75" stroke-miterlimit="10"/>
<path d="M361.05 174.591L361.786 185.28" stroke="white" stroke-width="0.75" stroke-miterlimit="10"/>
<path d="M370.779 174.6L371.667 183.291" stroke="white" stroke-width="0.75" stroke-miterlimit="10"/>
<path d="M381.127 181.53C391.623 178.865 403.349 177.041 415.863 175.751" stroke="white" stroke-width="0.75" stroke-miterlimit="10"/>
<path d="M380.987 174.993L381.127 181.529" stroke="white" stroke-width="0.75" stroke-miterlimit="10"/>
<path d="M310.774 152.769V157.426" stroke="white" stroke-width="0.75" stroke-miterlimit="10"/>
<path d="M315.593 150.449C322.563 151.119 328.494 152.576 333.387 154.819" stroke="white" stroke-width="0.75" stroke-miterlimit="10"/>
<path d="M315.955 157.313L315.594 150.449" stroke="white" stroke-width="0.75" stroke-miterlimit="10"/>
<path d="M320.355 146.986L320.697 157.104" stroke="white" stroke-width="0.75" stroke-miterlimit="10"/>
<path d="M325.269 142.481C333.008 144.669 339.686 147.35 344.745 150.781" stroke="white" stroke-width="0.75" stroke-miterlimit="10"/>
<path d="M325.823 156.485L325.269 142.481" stroke="white" stroke-width="0.75" stroke-miterlimit="10"/>
<path d="M330.023 139.313L330.851 155.494" stroke="white" stroke-width="0.75" stroke-miterlimit="10"/>
<path d="M335.076 136.914L335.362 154.201" stroke="white" stroke-width="0.75" stroke-miterlimit="10"/>
<path d="M344.318 134.469L345.173 150.656" stroke="white" stroke-width="0.75" stroke-miterlimit="10"/>
<path d="M354.317 134.018L354.828 148.749" stroke="white" stroke-width="0.75" stroke-miterlimit="10"/>
<path d="M359.407 134.313V148.448" stroke="white" stroke-width="0.75" stroke-miterlimit="10"/>
<path d="M364.121 134.806V148.448" stroke="white" stroke-width="0.75" stroke-miterlimit="10"/>
<path d="M369.235 135.596V148.976" stroke="white" stroke-width="0.75" stroke-miterlimit="10"/>
<path d="M373.95 136.576V149.483" stroke="white" stroke-width="0.75" stroke-miterlimit="10"/>
<path d="M378.698 137.82V150.051" stroke="white" stroke-width="0.75" stroke-miterlimit="10"/>
<path d="M388.696 141.354L388.981 150.652" stroke="white" stroke-width="0.75" stroke-miterlimit="10"/>
<path d="M393.742 143.64L393.925 151.364" stroke="white" stroke-width="0.75" stroke-miterlimit="10"/>
<path d="M398.925 152.582C401.907 152.033 405.155 152.127 408.508 152.48" stroke="white" stroke-width="0.75" stroke-miterlimit="10"/>
<path d="M398.925 146.367V152.582" stroke="white" stroke-width="0.75" stroke-miterlimit="10"/>
<path d="M403.876 154.523C406.855 154.15 409.933 154.134 413.076 154.353" stroke="white" stroke-width="0.75" stroke-miterlimit="10"/>
<path d="M403.714 149.243L403.876 154.523" stroke="white" stroke-width="0.75" stroke-miterlimit="10"/>
<path d="M147.881 154.193C154.565 150.988 161.461 148.92 167.905 148.588" stroke="white" stroke-width="0.75" stroke-miterlimit="10"/>
<path d="M147.881 152.432C154.454 149.766 161.037 147.611 167.639 146.348" stroke="white" stroke-width="0.75" stroke-miterlimit="10"/>
<path d="M168.519 144.158C162.925 145.092 157.331 147.079 151.737 150.119" stroke="white" stroke-width="0.75" stroke-miterlimit="10"/>
<path d="M144.839 160.482C153.732 157.439 162.625 155.062 171.518 153.35" stroke="white" stroke-width="0.75" stroke-miterlimit="10"/>
<path d="M126.244 171C147.707 164.98 167.996 160.346 186.254 158.112" stroke="white" stroke-width="0.75" stroke-miterlimit="10"/>
<path d="M276.544 229.123C277.001 232.42 277.104 235.668 276.544 238.246" stroke="white" stroke-width="0.75" stroke-miterlimit="10"/>
<path d="M276.544 194.768V229.123" stroke="white" stroke-width="0.75" stroke-miterlimit="10"/>
<path d="M230.604 203.821L235.717 202.473L240.588 201.03L246.062 199.776L250.912 198.668L255.976 197.518L261.394 196.357L266.57 195.779L271.102 195.164L276.544 194.768" stroke="white" stroke-width="0.75" stroke-miterlimit="10"/>
<path d="M202.239 160.379C194.238 163.917 187.605 169.538 183.544 178.605C181.252 183.724 177.565 188.116 172.796 191.068C164.444 196.238 152.885 198.85 138.346 199.087C133.99 199.158 129.726 200.461 126.16 202.961C122.463 205.55 120.249 208.851 119.89 213.044C119.846 213.556 119.76 214.063 119.654 214.566C118.862 218.351 120.618 221.575 124.536 224.32C126.993 226.042 129.799 227.198 132.737 227.802C149.145 231.185 163.462 228.769 175.754 220.743C178.635 218.862 181.277 216.644 183.713 214.213C188.796 209.142 194.171 205.606 199.879 203.819C209.306 201.526 217.846 201.457 225.385 203.906L230.604 203.819" stroke="white" stroke-width="0.75" stroke-miterlimit="10"/>
<path d="M146.176 171.449C148.749 165.495 170.787 162.276 202.239 160.379" stroke="white" stroke-width="0.75" stroke-miterlimit="10"/>
<path d="M150.926 172.264C153.424 167.777 168.492 164.711 196.127 163.064" stroke="white" stroke-width="0.75" stroke-miterlimit="10"/>
<path d="M155.877 173.594C156.299 170.322 169.748 167.692 193.344 165.562" stroke="white" stroke-width="0.75" stroke-miterlimit="10"/>
<path d="M158.694 174.665C161.499 171.569 172.092 169.492 190.495 168.439" stroke="white" stroke-width="0.75" stroke-miterlimit="10"/>
<path d="M159.814 176.006C160.801 173.899 170.195 172.286 187.994 171.168" stroke="white" stroke-width="0.75" stroke-miterlimit="10"/>
<path d="M186.055 173.917L186.252 157.633" stroke="white" stroke-width="0.75" stroke-miterlimit="10"/>
<path d="M160.218 177.353C165.013 175.146 173.074 173.848 186.056 173.918" stroke="white" stroke-width="0.75" stroke-miterlimit="10"/>
<path d="M160.143 178.804C165.864 176.994 174.496 176.411 184.594 176.445" stroke="white" stroke-width="0.75" stroke-miterlimit="10"/>
<path d="M160.435 179.89C166.825 178.867 174.875 178.595 183.544 178.605" stroke="white" stroke-width="0.75" stroke-miterlimit="10"/>
<path d="M159.095 181.493H158.514C167.277 181.346 175.414 181.387 181.78 181.956" stroke="white" stroke-width="0.75" stroke-miterlimit="10"/>
<path d="M156.458 182.973C164.407 183.104 172.165 183.732 179.718 184.901" stroke="white" stroke-width="0.75" stroke-miterlimit="10"/>
<path d="M151.368 184.883C161.231 185.832 170.256 186.799 177.033 187.813" stroke="white" stroke-width="0.75" stroke-miterlimit="10"/>
<path d="M129.206 189.519L167.902 193.645" stroke="white" stroke-width="0.75" stroke-miterlimit="10"/>
<path d="M156.981 197.131C143.114 194.732 129.736 192.498 121.499 191.989" stroke="white" stroke-width="0.75" stroke-miterlimit="10"/>
<path d="M124.071 203.901C119.376 202.407 114.74 201.471 110.186 201.275" stroke="white" stroke-width="0.75" stroke-miterlimit="10"/>
<path d="M121.963 207.11C117.051 205.725 112.357 204.636 108.495 204.663" stroke="white" stroke-width="0.75" stroke-miterlimit="10"/>
<path d="M120.463 210.183C116.267 208.834 112.205 207.948 108.333 207.719" stroke="white" stroke-width="0.75" stroke-miterlimit="10"/>
<path d="M118.44 213.149C113.8 211.737 109.215 210.701 104.708 210.185" stroke="white" stroke-width="0.75" stroke-miterlimit="10"/>
<path d="M118.219 215.912C113.158 214 108.2 212.955 103.412 213.345" stroke="white" stroke-width="0.75" stroke-miterlimit="10"/>
<path d="M120 219.102C114.586 217.233 108.765 216.17 102.54 215.913" stroke="white" stroke-width="0.75" stroke-miterlimit="10"/>
<path d="M117.787 220.915C112.731 218.877 107.661 217.817 102.115 218.051" stroke="white" stroke-width="0.75" stroke-miterlimit="10"/>
<path d="M123.117 224.365C113.818 221.771 104.749 219.299 103.352 220.915" stroke="white" stroke-width="0.75" stroke-miterlimit="10"/>
<path d="M122.948 225.548C114.283 223.438 105.801 221.423 104.665 223.178" stroke="white" stroke-width="0.75" stroke-miterlimit="10"/>
<path d="M106.092 225.307C108.295 224.219 115.474 225.612 122.733 227.044L143.011 229.458" stroke="white" stroke-width="0.75" stroke-miterlimit="10"/>
<path d="M108.676 227.517C111.808 226.242 116.738 226.807 122.539 228.268" stroke="white" stroke-width="0.75" stroke-miterlimit="10"/>
<path d="M111.855 229.458C113.886 228.314 117.839 228.602 122.389 229.458" stroke="white" stroke-width="0.75" stroke-miterlimit="10"/>
<path d="M113.637 197.602C113.676 206.998 113.002 217.769 111.855 229.459" stroke="white" stroke-width="0.75" stroke-miterlimit="10"/>
<path d="M146.588 232.762C152.169 231.019 157.731 229.88 163.27 229.459" stroke="white" stroke-width="0.75" stroke-miterlimit="10"/>
<path d="M132.213 233.011C139.681 231.199 151.229 229.804 163.427 228.476C181.098 219.204 200.989 207.994 204.96 210.661" stroke="white" stroke-width="0.75" stroke-miterlimit="10"/>
<path d="M164.787 217.698V201.917" stroke="white" stroke-width="0.75" stroke-miterlimit="10"/>
<path d="M130.585 215.912C141.194 218.202 152.632 218.719 164.787 217.698" stroke="white" stroke-width="0.75" stroke-miterlimit="10"/>
<path d="M128.829 212.382C142.492 215.108 156.031 216.043 169.404 214.557" stroke="white" stroke-width="0.75" stroke-miterlimit="10"/>
<path d="M133.937 209.842C148.746 212.413 162.706 213.139 174.973 210.185" stroke="white" stroke-width="0.75" stroke-miterlimit="10"/>
<path d="M180.168 205.97V195.918" stroke="white" stroke-width="0.75" stroke-miterlimit="10"/>
<path d="M139.206 206.906C152.974 209.233 166.639 209.179 180.168 205.971" stroke="white" stroke-width="0.75" stroke-miterlimit="10"/>
<path d="M185.07 202.137L185.428 192.169" stroke="white" stroke-width="0.75" stroke-miterlimit="10"/>
<path d="M159.8 205.169C168.311 205.098 176.736 204.105 185.07 202.137" stroke="white" stroke-width="0.75" stroke-miterlimit="10"/>
<path d="M190.312 199.212L190.678 186.074" stroke="white" stroke-width="0.75" stroke-miterlimit="10"/>
<path d="M174.974 200.408L190.312 199.212" stroke="white" stroke-width="0.75" stroke-miterlimit="10"/>
<path d="M195.433 197.203L195.753 178.957" stroke="white" stroke-width="0.75" stroke-miterlimit="10"/>
<path d="M180.168 197.131L195.433 197.203" stroke="white" stroke-width="0.75" stroke-miterlimit="10"/>
<path d="M183.545 193.645L200.673 195.587" stroke="white" stroke-width="0.75" stroke-miterlimit="10"/>
<path d="M186.163 191.508L205.562 193.998" stroke="white" stroke-width="0.75" stroke-miterlimit="10"/>
<path d="M188.386 189.194L205.706 192.17" stroke="white" stroke-width="0.75" stroke-miterlimit="10"/>
<path d="M190.824 185.839L205.782 190.682" stroke="white" stroke-width="0.75" stroke-miterlimit="10"/>
<path d="M205.846 189.441L200.673 186.348C199.192 183.607 196.306 182.548 192.524 182.563" stroke="white" stroke-width="0.75" stroke-miterlimit="10"/>
<path d="M215.965 174.666L216.043 172.725V168.301" stroke="white" stroke-width="0.75" stroke-miterlimit="10"/>
<path d="M195.754 178.735C200.789 178.735 208.096 176.923 215.965 174.664" stroke="white" stroke-width="0.75" stroke-miterlimit="10"/>
<path d="M215.965 174.665C223.2 173.492 229.988 172.717 235.857 172.762" stroke="white" stroke-width="0.75" stroke-miterlimit="10"/>
<path d="M215.807 182.068L215.965 174.666" stroke="white" stroke-width="0.75" stroke-miterlimit="10"/>
<path d="M225.523 189.844V188.075" stroke="white" stroke-width="0.75" stroke-miterlimit="10"/>
<path d="M321.661 177.288C335.594 180.202 348.183 183.171 351.952 186.501" stroke="white" stroke-width="0.75" stroke-miterlimit="10"/>
<path d="M321.661 176.381C334.764 178.665 347.019 181.039 351.644 184.224" stroke="white" stroke-width="0.75" stroke-miterlimit="10"/>
<path d="M312.293 172.126C320.019 172.958 328.181 174.625 336.686 176.951" stroke="white" stroke-width="0.75" stroke-miterlimit="10"/>
<path d="M306.644 170.607C317.126 171.154 327.061 172.781 336.014 176.345" stroke="white" stroke-width="0.75" stroke-miterlimit="10"/>
<path d="M306.333 168.556C314.736 169.169 322.289 170.15 326.429 172.617" stroke="white" stroke-width="0.75" stroke-miterlimit="10"/>
<path d="M306.196 167.5C320.282 168.406 333.338 169.515 340.96 171.696" stroke="white" stroke-width="0.75" stroke-miterlimit="10"/>
<path d="M306.196 165.67C322.182 166.418 337.104 167.479 345.029 170.586" stroke="white" stroke-width="0.75" stroke-miterlimit="10"/>
<path d="M345.67 169.259C337.711 167.236 330.357 165.268 325.907 163.564C325.744 167.006 325.775 170.202 326.429 172.617" stroke="white" stroke-width="0.75" stroke-miterlimit="10"/>
<path d="M350.404 168.09L335.454 162.276" stroke="white" stroke-width="0.75" stroke-miterlimit="10"/>
<path d="M354.068 167.773L340.386 162.355" stroke="white" stroke-width="0.75" stroke-miterlimit="10"/>
<path d="M355.264 166.939L340.246 160.079" stroke="white" stroke-width="0.75" stroke-miterlimit="10"/>
<path d="M358.771 166.694L345.415 160.079" stroke="white" stroke-width="0.75" stroke-miterlimit="10"/>
<path d="M350.007 159.511L364.954 166.22V161.986V158.243" stroke="white" stroke-width="0.75" stroke-miterlimit="10"/>
<path d="M324.488 171.376L341.015 172.617L340.167 158.779" stroke="white" stroke-width="0.75" stroke-miterlimit="10"/>
<path d="M365.77 174.59C397.57 166.969 477.052 170.193 504.357 179.663" stroke="white" stroke-width="0.75" stroke-miterlimit="10"/>
<path d="M347.808 206.373L347.227 181.35C358.207 178.95 366.91 178.247 366.655 184.224L365.77 174.591" stroke="white" stroke-width="0.75" stroke-miterlimit="10"/>
<path d="M351.195 198.157L351.468 199.15L347.808 206.373" stroke="white" stroke-width="0.75" stroke-miterlimit="10"/>
<path d="M347.808 196.357L351.195 198.157" stroke="white" stroke-width="0.75" stroke-miterlimit="10"/>
<path d="M337.648 213.644C337.881 217.992 337.676 222.056 336.62 225.57L367.118 229.551C367.348 225.104 370.22 214.952 372.929 205.154L370.248 206.755L348.012 205.97" stroke="white" stroke-width="0.75" stroke-miterlimit="10"/>
<path d="M261.127 213.644C272.013 206.169 291.229 205.511 318.774 211.668C319.35 211.796 319.919 211.957 320.479 212.144L327.776 214.589L328.335 214.768C330.919 215.594 333.719 215.43 336.189 214.307L337.648 213.644" stroke="white" stroke-width="0.75" stroke-miterlimit="10"/>
<path d="M261.394 217.545C278.751 225.468 297.579 225.089 317.616 217.875" stroke="white" stroke-width="0.75" stroke-miterlimit="10"/>
<path d="M337.749 204.688C341.496 204.237 344.975 204.157 347.677 205.152" stroke="white" stroke-width="0.75" stroke-miterlimit="10"/>
<path d="M339.314 202.772C342.754 202.526 345.904 202.51 347.677 203.58" stroke="white" stroke-width="0.75" stroke-miterlimit="10"/>
<path d="M341.624 200.829C345.457 200.262 348.799 200.001 350.404 200.829" stroke="white" stroke-width="0.75" stroke-miterlimit="10"/>
<path d="M337.749 204.688L337.648 213.644" stroke="white" stroke-width="0.75" stroke-miterlimit="10"/>
<path d="M328.031 213.258C331.581 212.913 334.449 213.139 336.191 214.307" stroke="white" stroke-width="0.75" stroke-miterlimit="10"/>
<path d="M328.031 211.67C331.779 211.224 335.087 211.217 337.649 211.96" stroke="white" stroke-width="0.75" stroke-miterlimit="10"/>
<path d="M337.648 213.644C341.742 211.443 345.189 209.038 347.808 206.373" stroke="white" stroke-width="0.75" stroke-miterlimit="10"/>
<path d="M305.352 226.952C304.425 223.48 317.189 220.69 328.142 217.812C328.683 217.67 329.219 217.527 329.75 217.385L337.648 213.644" stroke="white" stroke-width="0.75" stroke-miterlimit="10"/>
<path d="M268.521 225.826C279.933 231.877 292.189 232.396 305.352 226.954" stroke="white" stroke-width="0.75" stroke-miterlimit="10"/>
<path d="M264.218 223.416L268.52 225.826" stroke="white" stroke-width="0.75" stroke-miterlimit="10"/>
<path d="M342.713 204.417L342.923 210.436C337.61 210.289 331.833 209.894 327.933 208.701C322.305 206.367 312.871 204.949 302.452 204.587C269.756 202.587 255.76 206.141 251.549 212.601C251.155 213.205 251.165 213.993 251.579 214.585C254.227 218.385 258.44 221.327 264.219 223.414" stroke="white" stroke-width="0.75" stroke-miterlimit="10"/>
<path d="M337.749 206.582C341.121 206.35 344.441 206.383 346.856 207.296" stroke="white" stroke-width="0.75" stroke-miterlimit="10"/>
<path d="M121.985 232.292C129.788 230.269 136.819 229.302 142.283 230.477" stroke="white" stroke-width="0.75" stroke-miterlimit="10"/>
<path d="M180.3 217.352C195.785 210.968 215.064 201.433 215.502 207.535" stroke="white" stroke-width="0.75" stroke-miterlimit="10"/>
<path d="M300.183 156.357C308.751 154.607 316.726 154.6 323.968 156.749" stroke="white" stroke-width="0.75" stroke-miterlimit="10"/>
<path d="M310.774 153.188C318.531 153.102 325.339 153.561 328.888 155.889" stroke="white" stroke-width="0.75" stroke-miterlimit="10"/>
<path d="M319.357 147.829C326.554 149.081 332.649 150.894 336.806 153.691" stroke="white" stroke-width="0.75" stroke-miterlimit="10"/>
<path d="M340.166 152.348L339.768 135.4" stroke="white" stroke-width="0.75" stroke-miterlimit="10"/>
<path d="M322.291 145.143C329.069 146.177 335.101 148.456 340.167 152.348" stroke="white" stroke-width="0.75" stroke-miterlimit="10"/>
<path d="M350.007 149.483L349.462 133.95" stroke="white" stroke-width="0.75" stroke-miterlimit="10"/>
<path d="M330.069 140.213C337.82 143.388 344.818 146.505 350.008 149.483" stroke="white" stroke-width="0.75" stroke-miterlimit="10"/>
<path d="M335.107 138.765L358.771 148.433" stroke="white" stroke-width="0.75" stroke-miterlimit="10"/>
<path d="M339.804 136.914C349.527 140.4 359.089 143.802 364.121 144.885C372.106 146.731 385.13 146.981 398.924 146.986" stroke="white" stroke-width="0.75" stroke-miterlimit="10"/>
<path d="M344.318 135.4C354.705 138.503 365.139 141.693 373.95 141.95L391.461 142.562" stroke="white" stroke-width="0.75" stroke-miterlimit="10"/>
<path d="M419.194 156.004L420.192 175.632" stroke="white" stroke-width="0.75" stroke-miterlimit="10"/>
<path d="M407.644 156.69C411.336 155.699 415.199 155.529 419.194 156.004" stroke="white" stroke-width="0.75" stroke-miterlimit="10"/>
<path d="M408.536 159.061C414.014 157.362 419.219 156.49 424.01 156.868" stroke="white" stroke-width="0.75" stroke-miterlimit="10"/>
<path d="M408.318 160.869C416.345 158.87 423.914 157.652 430.617 157.918" stroke="white" stroke-width="0.75" stroke-miterlimit="10"/>
<path d="M407.881 162.361C418.44 159.659 428.825 158.58 439.04 159.061L440.671 176.015" stroke="white" stroke-width="0.75" stroke-miterlimit="10"/>
<path d="M406.558 164.549C417.188 162.121 428.924 160.142 449.307 161.664C464.702 162.455 479.399 164.17 493.393 166.817C505.562 168.296 517.111 168.606 527.723 167.14C538.495 164.637 549.37 161.146 560.314 156.981" stroke="white" stroke-width="0.75" stroke-miterlimit="10"/>
<path d="M404.829 166.189C420.424 162.241 437.101 161.837 454.365 163.735C470.635 165.073 487.951 169.589 506.459 171.025C508.561 171.188 512.599 171.383 513.383 171.383C518.175 171.383 517.287 171.461 523.463 170.871C526.904 170.543 530.306 169.886 533.618 168.899C542.714 166.189 553.186 162.021 563.979 157.512" stroke="white" stroke-width="0.75" stroke-miterlimit="10"/>
<path d="M405.904 176.919L404.829 166.189" stroke="white" stroke-width="0.75" stroke-miterlimit="10"/>
<path d="M404.96 167.5C425.674 164.079 445.58 163.414 464.356 166.613C483.085 169.799 500.858 172.696 512.849 173.85C513.414 173.905 513.981 173.938 514.55 173.951C533.136 174.401 550.564 166.619 567.988 158.556C568.063 158.521 568.151 158.558 568.179 158.636L571.381 167.5" stroke="white" stroke-width="0.75" stroke-miterlimit="10"/>
<path d="M400.077 169.429C423.061 166.73 444.154 165.396 459.786 168.006C476.125 170.011 494.483 173.233 513.902 177.095C535.283 176.188 553.446 170.444 568.951 160.704" stroke="white" stroke-width="0.75" stroke-miterlimit="10"/>
<path d="M350.404 182.369C358.026 180.512 363.055 180.623 362.344 185.088" stroke="white" stroke-width="0.75" stroke-miterlimit="10"/>
</g>
<defs>
<clipPath id="clip0_49_8334">
<rect width="595.357" height="335" fill="white"/>
</clipPath>
</defs>
</svg>
