<svg width="594" height="233" viewBox="0 0 594 233" fill="none" xmlns="http://www.w3.org/2000/svg">
<g clip-path="url(#clip0_28_2535)">
<path d="M492.813 99.8525C510.339 103.661 528.329 103.793 546.816 99.9754L571.337 92.895" stroke="black" stroke-width="0.5" stroke-miterlimit="10"/>
<path d="M190.93 97.9027C203.424 97.0115 214.396 97.7642 223.226 100.833C226.146 101.847 228.872 103.35 231.315 105.242C234.176 107.458 237.238 109.401 240.462 111.045C241.971 111.815 243.567 112.401 245.216 112.79L252.938 114.616C253.043 114.64 253.148 114.661 253.256 114.677L261.797 115.966C264.852 116.427 267.965 116.335 270.989 115.698L275.299 114.788C275.721 114.699 276.146 114.63 276.574 114.582C281.897 113.98 287.102 112.603 292.026 110.495C292.571 110.261 293.087 109.965 293.562 109.609L294.022 109.266C295.011 108.526 295.594 107.364 295.594 106.128C295.594 104.896 295.014 103.735 294.028 102.995L292.979 102.209C292.474 101.831 291.886 101.58 291.264 101.477L284.6 100.382L280.471 99.9035C277.447 99.5532 274.405 99.3768 271.36 99.3768H265.359L261.99 99.3102C258.462 99.2396 254.943 98.9221 251.459 98.3575L251.256 98.3248C247.975 97.793 244.727 97.0729 241.53 96.166C239.841 95.6877 238.353 94.6788 237.282 93.2884C236.283 91.9894 236.198 90.203 237.071 88.8151C238.11 87.1633 239.856 86.0865 241.799 85.8996L243.251 85.7598C246.567 85.4409 249.904 85.3743 253.231 85.5638L256.672 85.7598C259.366 85.9127 262.043 86.3021 264.668 86.9242L279.3 90.3859C280.72 90.7218 282.162 90.9557 283.614 91.0825C297.268 92.2717 308.104 88.6805 316.161 80.3718C317.179 79.3211 318.276 78.3489 319.431 77.4511C326.984 71.5835 335.904 68.6052 345.989 68.0851C367.658 67.9466 389.279 73.0615 410.804 88.4257C410.961 88.5381 411.125 88.64 411.298 88.725C422.55 94.3391 456.731 97.2101 492.815 99.8525" stroke="black" stroke-miterlimit="10"/>
<path d="M205.203 125.948V128.089V129.718V131.671V133.202L205.026 134.849" stroke="black" stroke-width="0.5" stroke-miterlimit="10"/>
<path d="M182.86 112.838L182.789 117.279L182.654 135.988" stroke="black" stroke-width="0.5" stroke-miterlimit="10"/>
<path d="M221.271 108.892C219.503 107.987 217.721 107.347 215.887 107.65C215.908 106.912 215.398 106.3 214.471 105.791L211.087 105.755L203.934 105.438L198.236 105.897L193.291 106.214L189.802 106.673L188.462 106.99L184.798 107.554L183.459 108.364L183.388 109.245L182.578 109.28L182.86 112.84" stroke="black" stroke-width="0.5" stroke-miterlimit="10"/>
<path d="M177.256 113.825L190.19 111.993L204.391 109.949L214.118 109.245L219.227 109.033L221.271 108.892" stroke="black" stroke-width="0.25" stroke-miterlimit="10"/>
<path d="M174.611 119.108C174.988 118 176.099 117.315 177.256 117.491V113.826" stroke="black" stroke-width="0.5" stroke-miterlimit="10"/>
<path d="M134.575 163.679C107.113 170.888 82.1582 143.486 133.996 144.632C159.779 140.272 170.626 130.853 174.611 119.108" stroke="black" stroke-miterlimit="10"/>
<path d="M205.114 105.49L205.026 123.587" stroke="black" stroke-width="0.5" stroke-miterlimit="10"/>
<path d="M209.935 127.498L215.716 125.842L220.926 124.767L226.64 123.834L232.208 123.005L235.608 122.469" stroke="black" stroke-width="0.25" stroke-miterlimit="10"/>
<path d="M210.505 105.729L209.935 127.498" stroke="black" stroke-width="0.5" stroke-miterlimit="10"/>
<path d="M226.318 158.36L226.756 111.333C225.257 110.163 223.43 109.349 221.273 108.893" stroke="black" stroke-width="0.5" stroke-miterlimit="10"/>
<path d="M237.805 125.799L238.209 155.762L238.188 161.873C229.196 158.525 225.057 154.564 232.443 149.675L237.805 147.056L243.537 145.038L249.312 143.62L255.098 142.511L259.969 141.983L265.942 141.563L271.642 141.191L277.298 140.979L282.906 141.005L288.439 141.164L294.382 141.429L299.34 141.851L305.48 142.486L311.029 143.2L316.679 144.071L322.169 145.26L326.22 146.71L338.94 151.954" stroke="black" stroke-miterlimit="10"/>
<path d="M249.601 131.854L249.019 165.068" stroke="black" stroke-width="0.5" stroke-miterlimit="10"/>
<path d="M255.184 133.307L254.973 167.772" stroke="black" stroke-width="0.5" stroke-miterlimit="10"/>
<path d="M277.297 135.28L277.725 156.043" stroke="black" stroke-width="0.5" stroke-miterlimit="10"/>
<path d="M289.169 172.941C288.8 176.479 288.97 179.771 290.204 182.573" stroke="black" stroke-miterlimit="10"/>
<path d="M288.294 134.861L289.17 172.943" stroke="black" stroke-width="0.5" stroke-miterlimit="10"/>
<path d="M298.984 133.434L300.398 166.846" stroke="black" stroke-width="0.5" stroke-miterlimit="10"/>
<path d="M305.48 131.615V164.289V164.808" stroke="black" stroke-width="0.5" stroke-miterlimit="10"/>
<path d="M311.064 163.152L311.027 163.02V129.057" stroke="black" stroke-width="0.5" stroke-miterlimit="10"/>
<path d="M322.583 160.141L322.287 148.074L320.702 110.531L326.41 112.205V114.971L327.785 147.354L328.016 157.935" stroke="black" stroke-width="0.5" stroke-miterlimit="10"/>
<path d="M350.508 131.47L356.753 139.973L359.449 139.233L362.393 136.017L368.542 129.302L368.849 122.528" stroke="black" stroke-miterlimit="10"/>
<path d="M315.468 108.468C315.468 109.098 315.468 117.545 315.468 117.795C333.264 119.912 350.284 124.068 350.508 131.47" stroke="black" stroke-width="0.5" stroke-miterlimit="10"/>
<path d="M418.875 113.97C445.61 112.549 471.253 116.124 495.905 124.234" stroke="black" stroke-miterlimit="10"/>
<path d="M417.03 90.6669L418.876 113.97" stroke="black" stroke-width="0.5" stroke-miterlimit="10"/>
<path d="M427.819 93.2426L429.17 112.909V113.669" stroke="black" stroke-width="0.5" stroke-miterlimit="10"/>
<path d="M221.271 149.911L226.425 146.687L232.442 144.202L237.804 142.721L243.44 141.029L249.458 139.973L254.889 139.128L259.967 138.546L265.941 137.864L271.496 137.541L277.296 137.329H282.903L288.297 137.647L294.381 138.017L299.193 138.387L305.479 139.074L311.027 139.814L316.609 140.658L321.759 141.561L327.595 142.875L329.056 143.475C330.498 144.067 331.865 144.825 333.129 145.733L340.352 150.919" stroke="black" stroke-miterlimit="10"/>
<path d="M291.894 134.491L294.382 134.582L299.062 135.28L305.48 135.692L311.027 136.432L316.543 137.434L321.878 138.383L327.458 139.652L332.701 140.924" stroke="black" stroke-width="0.5" stroke-miterlimit="10"/>
<path d="M249.604 133.983L243.292 134.828L238.887 135.479C238.166 135.585 237.451 135.73 236.745 135.91L232.443 137.013L226.505 138.282L221.636 139.282C221.222 139.367 220.803 139.44 220.385 139.499L216.281 140.084C215.815 140.151 215.348 140.202 214.88 140.236C212.799 140.391 210.707 140.228 208.672 139.769C186.238 134.717 168.895 139.402 157.458 155.383C156.043 157.36 154.28 159.064 152.274 160.438C143.22 166.639 132.022 169.233 119.371 169.383C118.57 169.392 117.768 169.358 116.972 169.273C103.014 167.768 94.8317 162.151 95.0774 150.537" stroke="black" stroke-width="0.25" stroke-miterlimit="10"/>
<path d="M243.155 132.326L243.158 129.441L243.979 163.579" stroke="black" stroke-width="0.5" stroke-miterlimit="10"/>
<path d="M213.343 137.013L215.442 136.971L221.271 136.19L226.533 135.28L232.443 133.983L237.805 133.042L243.155 132.326" stroke="black" stroke-width="0.25" stroke-miterlimit="10"/>
<path d="M237.805 130.071L242.663 129.196" stroke="black" stroke-width="0.5" stroke-miterlimit="10"/>
<path d="M212.215 133.507L215.666 131.129L220.984 130.071L226.59 129.049L232.286 127.974L237.805 127.251" stroke="black" stroke-width="0.25" stroke-miterlimit="10"/>
<path d="M210.636 130.521L215.693 128.379L220.954 127.357L226.616 126.255L236.773 124.621" stroke="black" stroke-width="0.25" stroke-miterlimit="10"/>
<path d="M207.322 126.178L209.841 124.839L215.668 123.392L220.901 122.424L226.661 121.578L232.09 120.997L235.244 120.586" stroke="black" stroke-width="0.25" stroke-miterlimit="10"/>
<path d="M205.026 123.472V124.086L209.922 122.503L215.759 121.367L220.881 120.495L226.678 119.702L232.09 119.172L234.901 118.81" stroke="black" stroke-width="0.25" stroke-miterlimit="10"/>
<path d="M231.824 115.368C230.552 113.796 228.899 112.431 226.755 111.332" stroke="black" stroke-width="0.5" stroke-miterlimit="10"/>
<path d="M226.712 116.108L231.816 115.391C231.826 115.389 231.83 115.377 231.824 115.37" stroke="black" stroke-width="0.5" stroke-miterlimit="10"/>
<path d="M201.056 121.446L205.026 119.41L210.063 118.46L215.794 117.491L220.841 116.9L226.712 116.108" stroke="black" stroke-width="0.25" stroke-miterlimit="10"/>
<path d="M232.961 117.246V160.21" stroke="black" stroke-width="0.5" stroke-miterlimit="10"/>
<path d="M205.071 121.604L209.996 120.366L215.779 119.226L220.858 118.416L226.696 117.798L232.961 117.246" stroke="black" stroke-width="0.25" stroke-miterlimit="10"/>
<path d="M199.445 119.146L205.114 117.491L210.126 116.663L215.81 115.869L220.824 115.289L226.723 114.733" stroke="black" stroke-width="0.25" stroke-miterlimit="10"/>
<path d="M199.529 116.939L205.071 115.587L210.187 114.891L215.826 114.23L220.807 113.756L226.738 113.305" stroke="black" stroke-width="0.25" stroke-miterlimit="10"/>
<path d="M199.613 114.733L205.071 113.886L210.247 113.175L215.84 112.645L220.754 112.301L226.723 111.958" stroke="black" stroke-width="0.25" stroke-miterlimit="10"/>
<path d="M188.464 106.989L188.367 112.252V115.682L188.635 120.288" stroke="black" stroke-width="0.5" stroke-miterlimit="10"/>
<path d="M193.942 106.171L193.863 111.464L193.963 114.25L194.195 119.29" stroke="black" stroke-width="0.5" stroke-miterlimit="10"/>
<path d="M301.32 132.897L305.48 133.243L311.027 133.983L316.494 135.066L321.779 136.021L327.343 136.939L332.558 138.213L338.303 140.538L332.701 145.437L338.938 140.189L337.828 117.349L331.96 115.287L332.701 145.437" stroke="black" stroke-width="0.5" stroke-miterlimit="10"/>
<path d="M344.151 136.943L338.938 140.189" stroke="black" stroke-width="0.5" stroke-miterlimit="10"/>
<path d="M347.889 138.566C348.699 134.291 350.479 130.997 352.787 128.238C354.768 126.302 357.534 125.048 360.611 124.061L380.746 120.312" stroke="black" stroke-miterlimit="10"/>
<path d="M362.754 147.79L363.134 135.206" stroke="black" stroke-miterlimit="10"/>
<path d="M357.827 147.585V139.678" stroke="black" stroke-miterlimit="10"/>
<path d="M433.279 94.1312L435.073 113.748" stroke="black" stroke-width="0.5" stroke-miterlimit="10"/>
<path d="M438.873 94.9153L440.585 113.918" stroke="black" stroke-width="0.5" stroke-miterlimit="10"/>
<path d="M449.814 96.162L451.855 114.775" stroke="black" stroke-width="0.5" stroke-miterlimit="10"/>
<path d="M490.611 118.266L487.44 100.011" stroke="black" stroke-width="0.5" stroke-miterlimit="10"/>
<path d="M456.71 113.096L490.611 118.265" stroke="black" stroke-miterlimit="10"/>
<path d="M455.59 96.6913L456.676 112.16C456.698 112.471 456.709 112.783 456.709 113.096" stroke="black" stroke-width="0.5" stroke-miterlimit="10"/>
<path d="M460.724 97.1526L462.66 114.003" stroke="black" stroke-width="0.5" stroke-miterlimit="10"/>
<path d="M466.223 97.6335L468.127 114.831" stroke="black" stroke-width="0.5" stroke-miterlimit="10"/>
<path d="M471.298 98.0635L473.73 115.691" stroke="black" stroke-width="0.5" stroke-miterlimit="10"/>
<path d="M476.798 98.5078L479.404 116.856" stroke="black" stroke-width="0.5" stroke-miterlimit="10"/>
<path d="M482.016 98.8986L485.184 117.63" stroke="black" stroke-width="0.5" stroke-miterlimit="10"/>
<path d="M451.626 112.687L456.716 113.127" stroke="black" stroke-miterlimit="10"/>
<path d="M490.611 118.266H519.561L541.603 116.855L556.034 114.831L572.526 111.164L580.4 108.842C581.704 108.458 582.977 107.978 584.211 107.406L591.211 104.162" stroke="black" stroke-miterlimit="10"/>
<path d="M497.042 118.266C497.11 120.564 496.957 122.71 495.905 124.234C519.309 129.84 526.976 138.336 526.934 148.245" stroke="black" stroke-miterlimit="10"/>
<path d="M502.275 118.266C502.5 120.759 502.275 123.251 501.6 125.744" stroke="black" stroke-miterlimit="10"/>
<path d="M508.459 118.266C508.75 121.427 508.459 124.588 507.587 127.748" stroke="black" stroke-miterlimit="10"/>
<path d="M513.693 118.266L512.864 129.984" stroke="black" stroke-miterlimit="10"/>
<path d="M519.561 118.266C518.968 123.541 518.249 128.44 517.222 132.427" stroke="black" stroke-miterlimit="10"/>
<path d="M526.008 117.853L525.903 118.265C524.913 124.934 523.644 131.121 521.491 135.778" stroke="black" stroke-miterlimit="10"/>
<path d="M530.819 117.63L526.934 148.245C529.192 157.802 529.907 168.132 529.234 179.159L558.977 178.075C556.812 147.692 556.621 127.693 569.035 121.228" stroke="black" stroke-miterlimit="10"/>
<path d="M541.603 116.855L539.383 134.793L537.594 178.855" stroke="black" stroke-miterlimit="10"/>
<path d="M546.976 116.101L545.092 134.159L544.14 178.617" stroke="black" stroke-miterlimit="10"/>
<path d="M551.651 115.447L550.007 131.463V178.403" stroke="black" stroke-miterlimit="10"/>
<path d="M556.034 128.102L558.17 114.357" stroke="black" stroke-miterlimit="10"/>
<path d="M563.657 113.127L562.013 125.015" stroke="black" stroke-miterlimit="10"/>
<path d="M569.033 111.941L567.574 122.144" stroke="black" stroke-miterlimit="10"/>
<path d="M562.497 92.8231C562.563 92.8009 562.632 92.844 562.642 92.9133L565.311 112.769" stroke="black" stroke-width="0.5" stroke-miterlimit="10"/>
<path d="M498.137 99.271C521.862 100.948 543.637 99.3389 562.497 92.8231" stroke="black" stroke-width="0.5" stroke-miterlimit="10"/>
<path d="M500.372 118.266L498.136 99.271" stroke="black" stroke-width="0.5" stroke-miterlimit="10"/>
<path d="M503.371 98.6633L505.552 118.266" stroke="black" stroke-width="0.5" stroke-miterlimit="10"/>
<path d="M508.691 98.0635L510.786 118.266" stroke="black" stroke-width="0.5" stroke-miterlimit="10"/>
<path d="M514.113 97.4519L516.018 118.266" stroke="black" stroke-width="0.5" stroke-miterlimit="10"/>
<path d="M519.138 96.886L521.459 118.265" stroke="black" stroke-width="0.5" stroke-miterlimit="10"/>
<path d="M390.815 108.705L391.164 114.882" stroke="black" stroke-width="0.5" stroke-miterlimit="10"/>
<path d="M526.709 117.808C486.202 107.691 441.829 103.288 390.814 108.705" stroke="black" stroke-width="0.25" stroke-miterlimit="10"/>
<path d="M524.754 96.2535L526.709 117.808" stroke="black" stroke-width="0.5" stroke-miterlimit="10"/>
<path d="M530.146 95.6459L531.826 117.481" stroke="black" stroke-width="0.5" stroke-miterlimit="10"/>
<path d="M535.157 95.0813L537.216 117.042" stroke="black" stroke-width="0.5" stroke-miterlimit="10"/>
<path d="M540.571 94.4711L542.992 116.661" stroke="black" stroke-width="0.5" stroke-miterlimit="10"/>
<path d="M546.25 93.832L548.285 115.919" stroke="black" stroke-width="0.5" stroke-miterlimit="10"/>
<path d="M551.616 93.2413L553.779 115.147C567.206 110.48 579.215 105.706 588.084 100.693" stroke="black" stroke-width="0.5" stroke-miterlimit="10"/>
<path d="M557.09 92.9434L559.643 114.029" stroke="black" stroke-width="0.5" stroke-miterlimit="10"/>
<path d="M568.134 92.7787L571.152 111.354" stroke="black" stroke-width="0.5" stroke-miterlimit="10"/>
<path d="M573.909 93.0439L577.159 109.799" stroke="black" stroke-width="0.5" stroke-miterlimit="10"/>
<path d="M579.484 93.6282L583.45 107.759" stroke="black" stroke-width="0.5" stroke-miterlimit="10"/>
<path d="M307.157 130.957L311.027 131.341L316.434 132.148L321.66 133.243C323.607 133.397 325.466 133.717 327.227 134.228L332.485 135.445C334.661 135.782 336.768 136.383 338.796 137.277C339.762 137.686 340.488 138.235 340.91 138.96" stroke="black" stroke-width="0.5" stroke-miterlimit="10"/>
<path d="M311.499 128.783C313.046 128.874 315.158 129.251 316.383 129.613C318.173 129.7 319.895 130.009 321.547 130.544C323.591 130.827 325.483 131.2 327.122 131.724C329.056 131.964 330.837 132.322 332.419 132.836C334.686 133.282 336.79 133.869 338.669 134.649C340.763 135.219 342.403 136.098 343.472 137.366" stroke="black" stroke-width="0.5" stroke-miterlimit="10"/>
<path d="M314.463 126.807L316.333 127.198L321.45 128.254L327.027 129.481L332.362 130.704L338.553 132.275L344.027 134.526" stroke="black" stroke-width="0.5" stroke-miterlimit="10"/>
<path d="M317.261 122.973L321.262 123.799L326.848 125.271L332.255 126.6L338.349 128.057L343.789 129.888L349.408 133.626" stroke="black" stroke-width="0.5" stroke-miterlimit="10"/>
<path d="M317.017 120.9L321.187 122L326.763 123.261L332.204 124.592L338.256 126.122L343.699 128.078L349.956 132.481C348.618 129.368 346.702 127.049 343.61 126.34L338.184 124.621L332.164 122.956L326.7 121.709L321.12 120.338L316.163 119.064" stroke="black" stroke-width="0.5" stroke-miterlimit="10"/>
<path d="M236.701 161.5L252.715 166.5" stroke="black" stroke-miterlimit="10"/>
<path d="M492.813 99.8525L495.086 118.266" stroke="black" stroke-width="0.5" stroke-miterlimit="10"/>
<path d="M593.073 101.639C593.652 100.729 593.532 99.5428 592.804 98.7483C588.455 94.0085 575.428 91.6549 551.295 93.2623L492.813 99.8512" stroke="black" stroke-miterlimit="10"/>
<path d="M528.877 132.938C533.238 135.245 537.717 136.256 542.413 134.828C571.338 121.158 587.61 110.227 593.073 101.639" stroke="black" stroke-miterlimit="10"/>
<path d="M528.364 136.986C533.293 139.578 535 155.154 532.671 179.035" stroke="black" stroke-miterlimit="10"/>
<path d="M256.5 181.45C258.245 177.463 258.508 173.196 257.136 168.939" stroke="black" stroke-miterlimit="10"/>
<path d="M334.005 154.986C340.572 163.68 353.598 160.976 370.135 152.079" stroke="black" stroke-miterlimit="10"/>
<path d="M371.746 146.246C371.36 140.731 373.973 131.037 376.794 121.049" stroke="black" stroke-miterlimit="10"/>
<path d="M368.159 129.719C367.947 136.341 368.071 142.55 368.804 148.003" stroke="black" stroke-miterlimit="10"/>
<path d="M352.107 133.648L352.047 147.125" stroke="black" stroke-miterlimit="10"/>
<path d="M190.93 97.9028C158.127 94.1614 145.501 88.5525 146.395 81.693C146.647 79.7602 147.975 78.1333 149.786 77.4158C154.008 75.7431 158.153 74.3134 162.219 73.1269C184.564 66.6098 204.551 67.4409 222.177 75.6216C226.979 77.8497 230.656 82.0001 232.187 87.068C232.688 88.7263 233.354 90.2553 234.236 91.6157C235.199 93.1028 236.041 94.6645 236.816 96.2575C240.454 103.736 252.827 106.755 271.22 106.699C272.301 106.695 272.753 108.091 271.869 108.713C268.245 111.264 260.987 112.282 250.185 111.807C246.222 111.633 242.382 110.327 239.192 107.97C236.143 105.718 232.978 104.215 229.607 104.016" stroke="black" stroke-miterlimit="10"/>
<path d="M188.921 81.0866C193.864 81.0866 197.871 79.7456 197.871 78.0914C197.871 76.4372 193.864 75.0962 188.921 75.0962C183.978 75.0962 179.971 76.4372 179.971 78.0914C179.971 79.7456 183.978 81.0866 188.921 81.0866Z" stroke="black" stroke-width="2" stroke-miterlimit="10"/>
<path d="M335.872 116.662C348.694 107.416 365.433 104.191 384.768 104.956C396.626 103.803 404.078 101.035 407.504 96.7906C408.809 95.1741 408.477 92.7878 406.78 91.5869C399.491 86.4276 384.523 85.2488 366.053 85.8852C365.024 85.9205 363.993 85.9075 362.964 85.8617C352.597 85.3939 337.982 89.3143 322.335 94.2998C320.523 94.8774 318.643 95.2277 316.745 95.3374C301.951 96.1973 288.519 94.9271 276.082 92.0965C273.597 91.5307 271.158 90.7858 268.761 89.9181C261.922 87.4456 255.238 85.8186 249.019 86.7425C244.36 87.5828 243.086 89.4724 244.267 92.1214C245.216 94.2502 247.23 95.7112 249.535 96.051L272.018 99.3742" stroke="black" stroke-miterlimit="10"/>
<path d="M194.24 68.7921C221.776 71.5809 244.41 76.2893 254.973 85.7285" stroke="black" stroke-miterlimit="10"/>
<path d="M107.112 94.164C112.695 93.8164 118.424 93.3903 124.221 92.9277C127.942 89.7012 136.8 87.5306 147.618 85.7625" stroke="black" stroke-width="0.25" stroke-miterlimit="10"/>
<path d="M78.5265 95.0055C87.2339 95.1663 96.9265 94.7977 107.112 94.1639" stroke="black" stroke-width="0.5" stroke-miterlimit="10"/>
<path d="M54.6876 92.3801C61.1263 94.0659 69.2691 94.8343 78.5265 95.0055" stroke="black" stroke-miterlimit="10"/>
<path d="M7.50635 91.5071C7.7455 87.6455 18.7345 86.2145 44.3206 90.1898C47.8138 90.7322 51.269 91.4849 54.6876 92.3801" stroke="black" stroke-miterlimit="10"/>
<path d="M110.892 93.9182C111.632 93.4399 112.365 92.9695 113.093 92.5095C134.582 78.9134 150.472 73.528 163.14 72.8628" stroke="black" stroke-miterlimit="10"/>
<path d="M79.3603 169.081C80.4633 159.984 81.3009 151.1 81.5231 144.363" stroke="black" stroke-width="0.5" stroke-miterlimit="10"/>
<path d="M81.165 144.879C78.2587 149.138 76.1089 153.955 74.5813 159.23C74.3617 159.989 74.4297 160.806 74.7786 161.516C76.0998 164.212 77.5961 166.76 79.3616 169.082" stroke="black" stroke-miterlimit="10"/>
<path d="M7.50635 91.5071C31.6354 104.012 62.3769 110.004 100.434 108.786C113.728 107.976 125.85 108.622 135.515 112.325C137.525 113.094 138.687 115.234 138.166 117.322C137.031 121.866 130.184 124.729 116.947 125.71C111.223 126.135 105.585 127.408 100.29 129.622C92.4337 132.907 86.519 137.623 82.1582 143.486C81.8184 143.943 81.4865 144.407 81.165 144.879" stroke="black" stroke-miterlimit="10"/>
<path d="M7.50635 91.5071C27.8143 107.587 43.4189 123.231 29.3903 153.671L26.0605 166.667C43.0922 173.69 56.0219 171.002 63.1689 154.631C61.9352 138.294 66.2333 126.119 79.3616 120.586C97.0141 114.054 114.302 112.5 131.199 116.239C134.763 117.488 135.155 119.54 133.934 122" stroke="black" stroke-miterlimit="10"/>
<path d="M90.0631 175.247C92.1658 162.18 93.1119 148.065 93.2766 133.24" stroke="black" stroke-width="0.5" stroke-miterlimit="10"/>
<path d="M96.0928 177.33L97.6818 166.218" stroke="black" stroke-width="0.5" stroke-miterlimit="10"/>
<path d="M34.1902 101.906L35.5571 118.017C38.2819 124.364 37.5278 138.157 36.9463 151.579V161.854" stroke="black" stroke-miterlimit="10"/>
<path d="M74.4271 95.0434C47.5289 93.6935 29.5118 94.739 34.1902 101.906" stroke="black" stroke-width="0.5" stroke-miterlimit="10"/>
<path d="M78.5265 108.659L80.2149 120.274" stroke="black" stroke-miterlimit="10"/>
<path d="M113.092 92.5107C84.7169 96.1777 47.2845 94.4958 41.4391 98.2215C37.4546 102.73 47.1695 104.645 56.6361 106.606C70.355 106.867 82.5594 103.381 94.0894 98.2215C107.628 96.1737 120.303 94.4579 121.365 97.2101C114.941 103.151 102.312 106.763 84.0844 108.274C82.2863 108.423 80.4332 108.551 78.5252 108.659" stroke="black" stroke-miterlimit="10"/>
<path d="M79.3603 169.081C87.3227 175.49 99.4147 179.553 116.714 180.657L118.477 188.709L120.728 196.639L124.749 210.805H112.908C118.238 218.841 126.896 226.167 138.334 232.901C152.113 233.214 165.282 231.349 177.926 227.615C175.341 220.14 172.996 212.386 170.853 204.402C169.101 197.873 167.484 191.188 165.979 184.375H164.816C162.97 177.358 159.464 170.261 170.207 163.866C183.315 155.399 196.823 148.588 213.342 154.243L238.203 162" stroke="black" stroke-width="2" stroke-miterlimit="10"/>
<path d="M137.399 199.11L136.617 180.789" stroke="black" stroke-miterlimit="10"/>
<path d="M152.745 199.11L153.93 175.022C149.515 179.3 145.128 183.085 140.783 186.067C137.541 188.076 131.752 184.564 126.723 181.468" stroke="black" stroke-miterlimit="10"/>
<path d="M118.407 188.384C122.937 197.692 144.446 202.091 150.333 199.952C155.569 198.05 168.055 189.986 164.817 184.376" stroke="black" stroke-miterlimit="10"/>
<path d="M116.714 180.658C134.921 183.572 152.137 178.558 166.257 166.815" stroke="black" stroke-miterlimit="10"/>
<path d="M120.528 195.932C143.122 207.516 166.298 220.006 170.384 202.636" stroke="black" stroke-miterlimit="10"/>
<path d="M131.224 197.592C128.529 191.386 124.498 185.751 118.561 180.927" stroke="black" stroke-miterlimit="10"/>
<path d="M558.17 170.209C554.261 161.622 551.304 153.335 550.009 145.577C550.406 137.542 553.097 131.041 558.9 126.617" stroke="black" stroke-miterlimit="10"/>
<path d="M532.478 144.991L536.211 117.2" stroke="black" stroke-miterlimit="10"/>
<path d="M574.111 110.696L573.635 118.195" stroke="black" stroke-miterlimit="10"/>
<path d="M579.267 109.177L578.88 114.75" stroke="black" stroke-miterlimit="10"/>
<path d="M584.786 107.139L584.124 110.875" stroke="black" stroke-miterlimit="10"/>
<path d="M411.297 88.725L412.962 114.623" stroke="black" stroke-width="0.5" stroke-miterlimit="10"/>
<path d="M404.676 90.3141C408.764 91.6104 411.357 93.3799 410.757 96.1608C410.496 103.876 401.654 107.72 387.357 109.102C365.848 109.825 347.545 113.076 338.937 118.28C355.439 114.418 369.374 113.507 375.793 121.235L374.882 112.696" stroke="black" stroke-width="0.5" stroke-miterlimit="10"/>
<path d="M278.069 161.411C283.397 161.411 287.716 160.21 287.716 158.727C287.716 157.245 283.397 156.043 278.069 156.043C272.742 156.043 268.423 157.245 268.423 158.727C268.423 160.21 272.742 161.411 278.069 161.411Z" stroke="black" stroke-width="3" stroke-miterlimit="10"/>
<path d="M294.382 171.393C293.458 175.652 292.88 179.666 294.179 182.352" stroke="black" stroke-miterlimit="10"/>
<path d="M294.382 134.181V171.392" stroke="black" stroke-width="0.5" stroke-miterlimit="10"/>
<path d="M231.824 115.368C232.173 116.859 232.892 117.438 233.797 117.479C234.363 117.504 234.814 117.969 234.797 118.536C234.537 127.209 245.129 132.583 265.942 134.845C275.481 135.637 284.963 135.45 294.382 134.181" stroke="black" stroke-miterlimit="10"/>
<path d="M316.631 125.03L321.355 126.015L326.93 127.233L332.305 128.536L338.447 130.104L343.915 132.342L348.637 134.818L348.873 134.955" stroke="black" stroke-width="0.5" stroke-miterlimit="10"/>
<path d="M297.932 108.609C302.755 109.874 306.923 111.616 310.14 113.594C315.9 117.131 318.62 121.414 316.631 125.031" stroke="black" stroke-miterlimit="10"/>
<path d="M294.382 134.181C303.765 133.027 311.021 130.048 316.631 125.03" stroke="black" stroke-miterlimit="10"/>
<path d="M282.697 135.206L283.156 156.445" stroke="black" stroke-width="0.5" stroke-miterlimit="10"/>
<path d="M271.487 135.195L271.947 156.652" stroke="black" stroke-width="0.5" stroke-miterlimit="10"/>
<path d="M221.501 156.652L221.271 108.892" stroke="black" stroke-width="0.5" stroke-miterlimit="10"/>
<path d="M215.887 140.085V107.65L210.443 107.518L205.071 107.94L199.487 108.494L193.903 109.024L188.415 109.62L182.654 110.238" stroke="black" stroke-width="0.25" stroke-miterlimit="10"/>
<path d="M215.887 155.018V140.085" stroke="black" stroke-width="0.5" stroke-miterlimit="10"/>
<path d="M277.726 174.297V161.407" stroke="black" stroke-width="0.5" stroke-miterlimit="10"/>
<path d="M277.726 181.996V174.297" stroke="black" stroke-miterlimit="10"/>
<path d="M256.5 181.45C257.824 183.44 268.579 182.465 277.726 181.996" stroke="black" stroke-miterlimit="10"/>
<path d="M256.5 188.146C256.969 186.426 256.814 184.025 256.5 181.45" stroke="black" stroke-miterlimit="10"/>
<path d="M298.077 188.032L256.397 188.146" stroke="black" stroke-miterlimit="10"/>
<path d="M297.758 185.607C297.843 186.447 297.955 187.294 298.093 188.146" stroke="black" stroke-miterlimit="10"/>
<path d="M297.631 180.253C297.525 182.007 297.576 183.793 297.759 185.608" stroke="black" stroke-miterlimit="10"/>
<path d="M297.565 170.176C296.333 173.083 296.626 176.54 297.629 180.253" stroke="black" stroke-miterlimit="10"/>
<path d="M282.8 182.156C291.587 182.98 296.946 182.631 297.608 180.675" stroke="black" stroke-miterlimit="10"/>
<path d="M282.958 174.043L282.8 182.156" stroke="black" stroke-miterlimit="10"/>
<path d="M283.212 160.997L282.958 174.043" stroke="black" stroke-width="0.5" stroke-miterlimit="10"/>
<path d="M277.726 181.996L283.12 182.185" stroke="black" stroke-miterlimit="10"/>
<path d="M260.506 150.922L261.011 164.337V170.788" stroke="black" stroke-width="0.5" stroke-miterlimit="10"/>
<path d="M271.763 173.851L271.644 182.289" stroke="black" stroke-miterlimit="10"/>
<path d="M271.951 160.578L271.763 173.851" stroke="black" stroke-width="0.5" stroke-miterlimit="10"/>
<path d="M258.011 169.392C263.003 173.739 265.218 178.12 261.975 182.573" stroke="black" stroke-miterlimit="10"/>
<path d="M29.3903 153.671C34.8319 163.318 41.9658 165.447 50.481 161.435L62.982 148.122" stroke="black" stroke-miterlimit="10"/>
<path d="M30.0829 114.84C44.0671 124.055 59.1778 126.572 76.5114 121.966" stroke="black" stroke-miterlimit="10"/>
<path d="M32.7227 158.419C42.2729 143.175 51.6676 127.988 40.493 120.274" stroke="black" stroke-miterlimit="10"/>
<path d="M56.1081 155.442C52.5418 140.426 53.6513 128.259 67.3141 123.74" stroke="black" stroke-miterlimit="10"/>
<path d="M42.3826 163.345V141.559" stroke="black" stroke-miterlimit="10"/>
<path d="M41.4404 120.986L42.3818 141.876" stroke="black" stroke-miterlimit="10"/>
<path d="M60.9394 150.298C60.6376 139.466 65.0376 130.526 72.2904 122.949" stroke="black" stroke-miterlimit="10"/>
<path d="M62.8696 94.6069L32.1477 88.5773" stroke="black" stroke-width="0.25" stroke-miterlimit="10"/>
<path d="M26.1559 99.4173C19.7904 96.1058 13.6445 92.9433 9.28492 89.3313" stroke="black" stroke-width="0.25" stroke-miterlimit="10"/>
<path d="M27.0725 88.1199L26.1572 99.4186" stroke="black" stroke-width="0.5" stroke-miterlimit="10"/>
<path d="M46.5919 94.8604L27.0733 88.1199" stroke="black" stroke-width="0.25" stroke-miterlimit="10"/>
<path d="M21.0742 87.8324L20.0609 97.1879" stroke="black" stroke-width="0.5" stroke-miterlimit="10"/>
<path d="M40.1885 95.6498L21.075 87.8324" stroke="black" stroke-width="0.25" stroke-miterlimit="10"/>
<path d="M36.3412 96.7318L16.9115 87.8833" stroke="black" stroke-width="0.25" stroke-miterlimit="10"/>
<path d="M33.7956 98.5979L14.4482 88.1199" stroke="black" stroke-width="0.25" stroke-miterlimit="10"/>
<path d="M33.7956 101.205L11.977 88.4506" stroke="black" stroke-width="0.25" stroke-miterlimit="10"/>
<path d="M15.9275 87.9396L13.9215 94.607" stroke="black" stroke-width="0.5" stroke-miterlimit="10"/>
<path d="M32.7217 88.5773L31.5792 101.15" stroke="black" stroke-width="0.5" stroke-miterlimit="10"/>
<path d="M38.4161 89.3326L37.9512 96.1777" stroke="black" stroke-width="0.5" stroke-miterlimit="10"/>
<path d="M43.9794 90.1978L43.777 95.1192" stroke="black" stroke-width="0.5" stroke-miterlimit="10"/>
<path d="M49.6457 91.0602L49.3715 94.5363" stroke="black" stroke-width="0.5" stroke-miterlimit="10"/>
<path d="M55.1973 92.5107V94.6069" stroke="black" stroke-width="0.5" stroke-miterlimit="10"/>
<path d="M60.6506 93.6138V94.5364" stroke="black" stroke-width="0.5" stroke-miterlimit="10"/>
<path d="M212.951 135.28L214.294 133.983H215.442L221.015 133.042L226.563 132.043L232.213 131.046L237.805 130.071" stroke="black" stroke-width="0.25" stroke-miterlimit="10"/>
<path d="M191.776 97.9027C180.244 103.176 171.764 113 166.206 124.123C164.361 127.816 161.427 130.854 157.811 132.847C145.513 139.629 131.3 143.691 114.378 143.897C109.878 143.952 105.548 145.73 102.384 148.927C97.8178 153.542 98.9233 157.735 103.73 161.656C108.266 165.355 114.086 167.11 119.921 166.649C130.706 165.796 139.989 162.322 148.308 157.168C151.831 154.986 155.068 152.364 157.913 149.349C168.471 138.158 185.101 132.035 212.952 135.28" stroke="black" stroke-miterlimit="10"/>
<path d="M12.7545 94.0751L12.919 95.902" stroke="black" stroke-width="0.5" stroke-miterlimit="10"/>
<path d="M17.5545 96.1777L18.6865 100.999" stroke="black" stroke-width="0.5" stroke-miterlimit="10"/>
<path d="M22.9947 98.3013L24.8935 107.491" stroke="black" stroke-miterlimit="10"/>
<path d="M28.7094 100.261L30.5481 115.137" stroke="black" stroke-miterlimit="10"/>
<path d="M40.1885 103.287L41.4404 120.274" stroke="black" stroke-miterlimit="10"/>
<path d="M45.5713 104.666L47.5419 122.561V162.59" stroke="black" stroke-miterlimit="10"/>
<path d="M50.5333 105.62L52.4125 123.537" stroke="black" stroke-miterlimit="10"/>
<path d="M56.6374 106.605L58.0932 124.146L59.5581 151.768" stroke="black" stroke-miterlimit="10"/>
<path d="M61.8594 107.296L63.4354 124.069" stroke="black" stroke-miterlimit="10"/>
<path d="M67.778 107.921L68.8604 123.537" stroke="black" stroke-miterlimit="10"/>
<path d="M72.9203 108.335L74.4271 122.485" stroke="black" stroke-miterlimit="10"/>
<path d="M85.4919 118.514L83.6767 108.335" stroke="black" stroke-miterlimit="10"/>
<path d="M90.7889 117.042L89.8527 107.703" stroke="black" stroke-miterlimit="10"/>
<path d="M96.0686 115.879L95.3087 108.907L95.6886 106.907" stroke="black" stroke-miterlimit="10"/>
<path d="M100.954 108.755L101.781 114.964" stroke="black" stroke-miterlimit="10"/>
<path d="M100.954 105.944V108.755" stroke="black" stroke-width="0.5" stroke-miterlimit="10"/>
<path d="M161.493 92.7473L160.759 122.544" stroke="black" stroke-width="0.5" stroke-miterlimit="10"/>
<path d="M106.333 108.524V104.637C125.968 99.2604 144.56 95.0656 161.494 92.746" stroke="black" stroke-width="0.25" stroke-miterlimit="10"/>
<path d="M106.632 114.476L106.333 108.525" stroke="black" stroke-miterlimit="10"/>
<path d="M111.691 108.488L111.905 114.25" stroke="black" stroke-miterlimit="10"/>
<path d="M111.905 102.785L111.691 108.488" stroke="black" stroke-width="0.5" stroke-miterlimit="10"/>
<path d="M155.904 90.9204L154.965 128.727" stroke="black" stroke-width="0.5" stroke-miterlimit="10"/>
<path d="M117.247 100.222C129.743 95.6001 142.652 92.5905 155.904 90.9204" stroke="black" stroke-width="0.25" stroke-miterlimit="10"/>
<path d="M117.247 108.702V100.222" stroke="black" stroke-width="0.5" stroke-miterlimit="10"/>
<path d="M117.247 114.25V108.702" stroke="black" stroke-miterlimit="10"/>
<path d="M122.834 109.249L123.123 114.857" stroke="black" stroke-miterlimit="10"/>
<path d="M123.411 92.9917L122.834 109.248" stroke="black" stroke-width="0.5" stroke-miterlimit="10"/>
<path d="M150.651 88.3721L149.382 132.309" stroke="black" stroke-width="0.5" stroke-miterlimit="10"/>
<path d="M172.17 95.1754V104.912" stroke="black" stroke-width="0.5" stroke-miterlimit="10"/>
<path d="M177.667 96.1215V100.737" stroke="black" stroke-width="0.5" stroke-miterlimit="10"/>
<path d="M132.098 137.957V122.544" stroke="black" stroke-width="0.5" stroke-miterlimit="10"/>
<path d="M126.464 138.798V124.472" stroke="black" stroke-width="0.5" stroke-miterlimit="10"/>
<path d="M120.981 139.308L121.22 125.303" stroke="black" stroke-width="0.5" stroke-miterlimit="10"/>
<path d="M115.307 139.565L93.2517 135.082" stroke="black" stroke-width="0.25" stroke-miterlimit="10"/>
<path d="M115.658 125.82L115.307 139.564" stroke="black" stroke-width="0.5" stroke-miterlimit="10"/>
<path d="M152.886 130.25C142.008 129.175 129.288 127.617 115.658 125.82" stroke="black" stroke-width="0.25" stroke-miterlimit="10"/>
<path d="M109.641 140.088L109.959 126.668" stroke="black" stroke-width="0.5" stroke-miterlimit="10"/>
<path d="M104.013 141.988C97.8674 140.16 91.9894 138.709 87.1162 138.669" stroke="black" stroke-width="0.25" stroke-miterlimit="10"/>
<path d="M104.207 128.174L104.013 141.989" stroke="black" stroke-width="0.5" stroke-miterlimit="10"/>
<path d="M98.5535 145.709L98.8486 130.25" stroke="black" stroke-width="0.5" stroke-miterlimit="10"/>
<path d="M102.829 169.416L101.499 178.672" stroke="black" stroke-width="0.5" stroke-miterlimit="10"/>
<path d="M108.291 171.152L107.113 179.669" stroke="black" stroke-width="0.5" stroke-miterlimit="10"/>
<path d="M113.941 172.104L112.616 180.331" stroke="black" stroke-width="0.5" stroke-miterlimit="10"/>
<path d="M118.16 180.926C120.708 185.7 122.777 190.173 123.829 194.006" stroke="black" stroke-miterlimit="10"/>
<path d="M119.546 172.633C117.877 175.179 117.389 177.939 118.16 180.926" stroke="black" stroke-width="0.5" stroke-miterlimit="10"/>
<path d="M124.643 172.726C122.476 175.118 123.041 178.095 125.382 181.453" stroke="black" stroke-width="0.5" stroke-miterlimit="10"/>
<path d="M130.397 172.347C128.881 175.158 129.521 178.178 131.253 181.304" stroke="black" stroke-width="0.5" stroke-miterlimit="10"/>
<path d="M136.137 171.408C135.083 174.324 135.293 177.417 136.616 180.663" stroke="black" stroke-width="0.5" stroke-miterlimit="10"/>
<path d="M142.457 179.533V200.25" stroke="black" stroke-miterlimit="10"/>
<path d="M142.306 169.707C141.246 173.177 141.113 176.484 142.456 179.533" stroke="black" stroke-width="0.5" stroke-miterlimit="10"/>
<path d="M148.483 177.523V200.374" stroke="black" stroke-miterlimit="10"/>
<path d="M148.175 167.344C146.405 170.59 146.508 173.983 148.484 177.523" stroke="black" stroke-width="0.5" stroke-miterlimit="10"/>
<path d="M153.691 164.378C152.015 168.021 152.665 171.539 153.931 175.022" stroke="black" stroke-width="0.5" stroke-miterlimit="10"/>
<path d="M158.969 172.072L159.747 194.727" stroke="black" stroke-miterlimit="10"/>
<path d="M159.247 160.498C158.24 164.301 158.205 168.162 158.968 172.072" stroke="black" stroke-width="0.5" stroke-miterlimit="10"/>
<path d="M165.125 155.136C163.552 159.965 163.455 164.157 165.529 167.411" stroke="black" stroke-width="0.5" stroke-miterlimit="10"/>
<path d="M171.179 150.134L170.209 163.866" stroke="black" stroke-width="0.5" stroke-miterlimit="10"/>
<path d="M176.904 146.731C176.125 151.328 175.926 155.77 176.467 160.016" stroke="black" stroke-width="0.5" stroke-miterlimit="10"/>
<path d="M182.42 144.632C181.651 149.003 181.467 153.161 182.153 157" stroke="black" stroke-width="0.5" stroke-miterlimit="10"/>
<path d="M188.023 143.547C187.281 147.142 187.187 150.865 187.627 154.693" stroke="black" stroke-width="0.5" stroke-miterlimit="10"/>
<path d="M193.548 142.966L193.398 153.024" stroke="black" stroke-width="0.5" stroke-miterlimit="10"/>
<path d="M198.935 142.938V152.245" stroke="black" stroke-width="0.5" stroke-miterlimit="10"/>
<path d="M204.174 152.291L204.417 143.547" stroke="black" stroke-width="0.5" stroke-miterlimit="10"/>
<path d="M209.783 144.879L209.996 153.255" stroke="black" stroke-width="0.5" stroke-miterlimit="10"/>
<path d="M145.809 76.2893L144.994 86.2067L143.656 134.849" stroke="black" stroke-width="0.5" stroke-miterlimit="10"/>
<path d="M140.378 78.2417L139.658 87.23L137.805 136.694" stroke="black" stroke-width="0.5" stroke-miterlimit="10"/>
<path d="M133.483 111.602L133.417 117.415" stroke="black" stroke-miterlimit="10"/>
<path d="M134.574 80.701L134.083 88.5655L133.483 111.602" stroke="black" stroke-width="0.5" stroke-miterlimit="10"/>
<path d="M128.05 110.144L127.979 115.592" stroke="black" stroke-miterlimit="10"/>
<path d="M128.991 83.3918L128.939 85.833L128.837 90.5493L128.05 110.144" stroke="black" stroke-width="0.5" stroke-miterlimit="10"/>
<path d="M124.373 85.833C124.802 88.4453 124.883 90.8786 124.222 92.9277" stroke="black" stroke-width="0.5" stroke-miterlimit="10"/>
<path d="M119.289 96.0353C129.485 91.5568 139.561 88.265 149.382 87.4822" stroke="black" stroke-width="0.25" stroke-miterlimit="10"/>
<path d="M119.289 88.725V96.0353" stroke="black" stroke-width="0.5" stroke-miterlimit="10"/>
<path d="M113.762 95.8353V92.0874" stroke="black" stroke-width="0.5" stroke-miterlimit="10"/>
<path d="M50.183 96.3593C68.3987 99.2709 87.9866 97.9719 108.417 94.0815V96.2731" stroke="black" stroke-width="0.5" stroke-miterlimit="10"/>
<path d="M70.8974 108.186C95.6197 100.092 119.317 92.5931 119.289 98.8959" stroke="black" stroke-width="0.5" stroke-miterlimit="10"/>
<path d="M212.951 135.28C209.805 126.958 203.7 121.488 194.195 119.29C193.775 119.192 193.338 119.161 192.91 119.209C191.144 119.406 189.722 119.767 188.635 120.288C186.348 121.385 185.738 124.362 187.399 126.279C188.051 127.03 188.385 128.005 188.334 128.998L188.022 135.078" stroke="black" stroke-miterlimit="10"/>
<path d="M154.446 152.665V138.972" stroke="black" stroke-width="0.5" stroke-miterlimit="10"/>
<path d="M148.308 157.168L148.961 141.038" stroke="black" stroke-width="0.5" stroke-miterlimit="10"/>
<path d="M137.4 162.59L137.845 143.921" stroke="black" stroke-width="0.5" stroke-miterlimit="10"/>
<path d="M132.098 164.45V144.632" stroke="black" stroke-width="0.5" stroke-miterlimit="10"/>
<path d="M125.914 164.881L126.723 144.668" stroke="black" stroke-width="0.5" stroke-miterlimit="10"/>
<path d="M119.99 164.515L120.98 145.05" stroke="black" stroke-width="0.5" stroke-miterlimit="10"/>
<path d="M114.365 163.199L115.306 145.889" stroke="black" stroke-width="0.5" stroke-miterlimit="10"/>
<path d="M109.056 160.772L109.538 147.592" stroke="black" stroke-width="0.5" stroke-miterlimit="10"/>
<path d="M232.961 75.3V89.202" stroke="black" stroke-width="0.5" stroke-miterlimit="10"/>
<path d="M238.522 77.0081L238.358 87.3384" stroke="black" stroke-width="0.5" stroke-miterlimit="10"/>
<path d="M243.853 79.0349V85.7023" stroke="black" stroke-width="0.5" stroke-miterlimit="10"/>
<path d="M249.458 81.8066V86.6824" stroke="black" stroke-width="0.5" stroke-miterlimit="10"/>
<path d="M297.932 100.592C306.512 101.806 316.013 101.223 326.078 99.5415C345.244 89.236 370.38 88.9615 400.326 96.7684" stroke="black" stroke-width="0.5" stroke-miterlimit="10"/>
<path d="M297.932 90.3741V100.592" stroke="black" stroke-width="0.5" stroke-miterlimit="10"/>
<path d="M402.065 116.088L401.548 106.228" stroke="black" stroke-width="0.5" stroke-miterlimit="10"/>
<path d="M396.731 116.953L396.271 107.752" stroke="black" stroke-width="0.5" stroke-miterlimit="10"/>
<path d="M393.384 117.385C394.447 113.118 377.344 112.402 354.811 112.747" stroke="black" stroke-width="0.5" stroke-miterlimit="10"/>
<path d="M386.224 119.013L385.593 109.167" stroke="black" stroke-width="0.5" stroke-miterlimit="10"/>
<path d="M292.978 102.207C296.33 103.705 298.333 105.833 298.124 108.992C297.967 111.366 296.55 113.479 294.457 114.609C280.324 122.234 264.029 123.932 245.08 118.353C244.294 118.122 243.553 117.753 242.893 117.268C229.354 107.314 215.984 102.42 202.796 102.998C202.498 103.011 202.198 103.006 201.902 102.984C185.807 101.726 177.498 107.848 174.613 119.108" stroke="black" stroke-miterlimit="10"/>
<path d="M326.078 111.92C325.427 108.871 325.685 104.318 326.078 99.5415L346.187 106.464" stroke="black" stroke-width="0.5" stroke-miterlimit="10"/>
<path d="M330.537 97.3708L331.224 114.623C332.796 113.157 334.602 111.782 336.715 110.53C343.626 106.431 353.814 103.628 369.835 103.13C371.998 103.063 374.157 102.888 376.304 102.618C392.183 100.618 405.69 98.2647 402.362 93.4046C401.855 92.6637 401.105 92.1226 400.253 91.8404C390.903 88.7288 377.555 87.0339 362.754 85.8538L376.147 85.7349C371.142 84.9234 366.195 84.3196 361.341 84.0648C351.992 83.5735 342.681 85.3481 334.052 88.9797C327.096 91.907 318.599 93.5654 308.419 93.8398C298.239 94.1142 288.172 92.9054 278.362 90.365L269.426 88.0519" stroke="black" stroke-miterlimit="10"/>
<path d="M341.28 93.7313L341.872 107.986" stroke="black" stroke-width="0.5" stroke-miterlimit="10"/>
<path d="M396.994 95.9294C377.373 99.9518 358.848 101.894 346.187 92.682L346.216 93.1172L347.063 106.208" stroke="black" stroke-width="0.5" stroke-miterlimit="10"/>
<path d="M353.166 91.7333C361.73 95.8262 373.195 96.5424 387.558 93.8791" stroke="black" stroke-width="0.5" stroke-miterlimit="10"/>
<path d="M352.355 96.1425V104.912" stroke="black" stroke-width="0.5" stroke-miterlimit="10"/>
<path d="M368.187 95.3401V99.1299V103.19" stroke="black" stroke-width="0.5" stroke-miterlimit="10"/>
<path d="M373.615 95.4537V99.1298V102.905" stroke="black" stroke-width="0.5" stroke-miterlimit="10"/>
<path d="M378.826 95.1152V98.837V102.294" stroke="black" stroke-width="0.5" stroke-miterlimit="10"/>
<path d="M384.524 98.1458V101.496" stroke="black" stroke-width="0.5" stroke-miterlimit="10"/>
<path d="M227.477 73.9082L227.209 79.0348" stroke="black" stroke-width="0.5" stroke-miterlimit="10"/>
<path d="M297.932 100.592C283.285 98.8097 269.697 97.0023 261.486 93.0714C251.886 88.4767 244.705 91.5019 246.234 94.637" stroke="black" stroke-miterlimit="10"/>
<path d="M298.983 108.705L297.932 100.592" stroke="black" stroke-width="0.5" stroke-miterlimit="10"/>
<path d="M303.517 101.195L305.405 111.158C330.313 115.115 351.335 119.772 353.166 127.885" stroke="black" stroke-width="0.5" stroke-miterlimit="10"/>
<path d="M347.889 114.661L348.872 127.809" stroke="black" stroke-width="0.5" stroke-miterlimit="10"/>
<path d="M353.166 113.139L354.148 127.096" stroke="black" stroke-width="0.5" stroke-miterlimit="10"/>
<path d="M358.706 112.697L359.516 124.431" stroke="black" stroke-width="0.5" stroke-miterlimit="10"/>
<path d="M369.387 112.708L370.361 122.247" stroke="black" stroke-width="0.5" stroke-miterlimit="10"/>
<path d="M380.746 120.313C392.267 117.389 405.139 115.385 418.876 113.97" stroke="black" stroke-miterlimit="10"/>
<path d="M380.592 113.139L380.746 120.313" stroke="black" stroke-width="0.5" stroke-miterlimit="10"/>
<path d="M303.517 88.7433V93.8555" stroke="black" stroke-width="0.5" stroke-miterlimit="10"/>
<path d="M308.808 86.1963C316.46 86.932 322.97 88.5316 328.341 90.9936" stroke="black" stroke-width="0.25" stroke-miterlimit="10"/>
<path d="M309.204 93.7314L308.808 86.1963" stroke="black" stroke-width="0.5" stroke-miterlimit="10"/>
<path d="M314.034 82.3934L314.41 93.5001" stroke="black" stroke-width="0.5" stroke-miterlimit="10"/>
<path d="M319.43 77.4497C327.926 79.8516 335.256 82.7946 340.81 86.5608" stroke="black" stroke-width="0.25" stroke-miterlimit="10"/>
<path d="M320.037 92.8206L319.429 77.4485" stroke="black" stroke-width="0.5" stroke-miterlimit="10"/>
<path d="M324.647 73.9709L325.556 91.7332" stroke="black" stroke-width="0.5" stroke-miterlimit="10"/>
<path d="M330.196 71.3378L330.508 90.314" stroke="black" stroke-width="0.5" stroke-miterlimit="10"/>
<path d="M340.339 68.6536L341.279 86.4237" stroke="black" stroke-width="0.5" stroke-miterlimit="10"/>
<path d="M351.316 68.1583L351.877 84.3289" stroke="black" stroke-width="0.5" stroke-miterlimit="10"/>
<path d="M356.904 68.4824V83.9996" stroke="black" stroke-width="0.5" stroke-miterlimit="10"/>
<path d="M362.078 69.0234V83.9996" stroke="black" stroke-width="0.5" stroke-miterlimit="10"/>
<path d="M367.692 69.8925V84.5798" stroke="black" stroke-width="0.5" stroke-miterlimit="10"/>
<path d="M372.867 70.9667V85.1352" stroke="black" stroke-width="0.5" stroke-miterlimit="10"/>
<path d="M378.079 72.3335V85.7584" stroke="black" stroke-width="0.5" stroke-miterlimit="10"/>
<path d="M389.055 76.2109L389.367 86.4185" stroke="black" stroke-width="0.5" stroke-miterlimit="10"/>
<path d="M394.593 78.7213L394.794 87.2012" stroke="black" stroke-width="0.5" stroke-miterlimit="10"/>
<path d="M400.283 88.5368C403.556 87.9343 407.121 88.0376 410.803 88.4244" stroke="black" stroke-width="0.25" stroke-miterlimit="10"/>
<path d="M400.283 81.7139V88.5368" stroke="black" stroke-width="0.5" stroke-miterlimit="10"/>
<path d="M405.719 90.6669C408.989 90.2579 412.368 90.2409 415.818 90.4813" stroke="black" stroke-width="0.25" stroke-miterlimit="10"/>
<path d="M405.541 84.8711L405.719 90.6668" stroke="black" stroke-width="0.5" stroke-miterlimit="10"/>
<path d="M124.707 90.3048C132.045 86.7869 139.614 84.5169 146.687 84.1523" stroke="black" stroke-width="0.25" stroke-miterlimit="10"/>
<path d="M124.707 88.3721C131.922 85.4449 139.148 83.0795 146.396 81.693" stroke="black" stroke-width="0.25" stroke-miterlimit="10"/>
<path d="M147.362 79.2898C141.221 80.3143 135.08 82.4954 128.94 85.833" stroke="black" stroke-width="0.25" stroke-miterlimit="10"/>
<path d="M121.367 97.2101C131.128 93.8699 140.89 91.2602 150.652 89.381" stroke="black" stroke-width="0.25" stroke-miterlimit="10"/>
<path d="M100.954 108.755C124.515 102.146 146.787 97.0598 166.828 94.6069" stroke="black" stroke-width="0.25" stroke-miterlimit="10"/>
<path d="M265.942 172.557C266.444 176.177 266.557 179.742 265.942 182.573" stroke="black" stroke-miterlimit="10"/>
<path d="M265.942 134.845V172.557" stroke="black" stroke-width="0.5" stroke-miterlimit="10"/>
<path d="M215.512 144.783L221.126 143.304L226.472 141.719L232.482 140.343L237.805 139.128L243.366 137.864L249.312 136.59L254.995 135.956L259.969 135.28L265.942 134.845" stroke="black" stroke-width="0.25" stroke-miterlimit="10"/>
<path d="M184.376 97.0951C175.593 100.979 168.311 107.15 163.854 117.102C161.338 122.722 157.291 127.543 152.056 130.784C142.887 136.459 130.198 139.326 114.239 139.586C109.458 139.665 104.777 141.094 100.861 143.839C96.8037 146.681 94.373 150.305 93.9796 154.907C93.9313 155.469 93.8359 156.026 93.7196 156.577C92.8505 160.733 94.7781 164.272 99.0788 167.285C101.776 169.175 104.856 170.444 108.081 171.108C126.093 174.821 141.809 172.169 155.302 163.358C158.464 161.294 161.366 158.859 164.039 156.191C169.619 150.624 175.52 146.742 181.785 144.781C192.133 142.264 201.508 142.188 209.783 144.876L215.512 144.781" stroke="black" stroke-miterlimit="10"/>
<path d="M122.834 109.249C125.658 102.713 149.85 99.1795 184.376 97.0964" stroke="black" stroke-width="0.25" stroke-miterlimit="10"/>
<path d="M128.05 110.144C130.791 105.218 147.332 101.852 177.668 100.045" stroke="black" stroke-width="0.25" stroke-miterlimit="10"/>
<path d="M133.483 111.602C133.946 108.01 148.709 105.123 174.611 102.785" stroke="black" stroke-width="0.25" stroke-miterlimit="10"/>
<path d="M136.575 112.778C139.654 109.379 151.282 107.099 171.484 105.944" stroke="black" stroke-width="0.25" stroke-miterlimit="10"/>
<path d="M137.805 114.25C138.888 111.937 149.2 110.166 168.739 108.939" stroke="black" stroke-width="0.25" stroke-miterlimit="10"/>
<path d="M138.248 115.729C143.512 113.306 152.36 111.88 166.611 111.958L166.828 94.0829" stroke="black" stroke-width="0.25" stroke-miterlimit="10"/>
<path d="M138.166 117.322C144.446 115.336 153.922 114.695 165.006 114.733" stroke="black" stroke-width="0.25" stroke-miterlimit="10"/>
<path d="M138.486 118.514C145.501 117.39 154.338 117.092 163.854 117.102" stroke="black" stroke-width="0.25" stroke-miterlimit="10"/>
<path d="M137.016 120.274H136.378C145.997 120.113 154.93 120.158 161.917 120.782" stroke="black" stroke-width="0.25" stroke-miterlimit="10"/>
<path d="M134.121 121.898C142.847 122.042 151.363 122.732 159.654 124.015" stroke="black" stroke-width="0.25" stroke-miterlimit="10"/>
<path d="M128.533 123.995C139.36 125.036 149.267 126.097 156.707 127.211" stroke="black" stroke-width="0.25" stroke-miterlimit="10"/>
<path d="M104.207 129.085L146.685 133.613" stroke="black" stroke-width="0.25" stroke-miterlimit="10"/>
<path d="M134.696 137.439C119.474 134.806 104.788 132.353 95.7465 131.795" stroke="black" stroke-width="0.25" stroke-miterlimit="10"/>
<path d="M98.5692 144.871C93.4151 143.231 88.3263 142.204 83.3265 141.988" stroke="black" stroke-width="0.25" stroke-miterlimit="10"/>
<path d="M96.2561 148.394C90.8642 146.874 85.7114 145.679 81.4721 145.709" stroke="black" stroke-width="0.25" stroke-miterlimit="10"/>
<path d="M94.6082 151.768C90.0017 150.288 85.5428 149.314 81.2931 149.063" stroke="black" stroke-width="0.25" stroke-miterlimit="10"/>
<path d="M92.3879 155.022C87.294 153.472 82.2614 152.335 77.3138 151.768" stroke="black" stroke-width="0.25" stroke-miterlimit="10"/>
<path d="M92.1449 158.057C86.5896 155.958 81.1467 154.811 75.8907 155.239" stroke="black" stroke-width="0.25" stroke-miterlimit="10"/>
<path d="M94.0999 161.558C88.1565 159.506 81.7675 158.339 74.9341 158.057" stroke="black" stroke-width="0.25" stroke-miterlimit="10"/>
<path d="M91.6705 163.549C86.1204 161.312 80.5547 160.148 74.4676 160.405" stroke="black" stroke-width="0.25" stroke-miterlimit="10"/>
<path d="M97.5211 167.336C87.3136 164.489 77.3582 161.775 75.8253 163.549" stroke="black" stroke-width="0.25" stroke-miterlimit="10"/>
<path d="M97.3355 168.634C87.8245 166.318 78.5135 164.106 77.2668 166.033" stroke="black" stroke-width="0.25" stroke-miterlimit="10"/>
<path d="M78.8337 168.37C81.2526 167.176 89.1327 168.705 97.1016 170.277L119.361 172.927" stroke="black" stroke-width="0.25" stroke-miterlimit="10"/>
<path d="M81.6694 170.794C85.1077 169.395 90.5192 170.015 96.8873 171.619" stroke="black" stroke-width="0.25" stroke-miterlimit="10"/>
<path d="M85.1586 172.927C87.3881 171.671 91.728 171.987 96.7227 172.927" stroke="black" stroke-width="0.25" stroke-miterlimit="10"/>
<path d="M87.1149 137.957C87.1581 148.27 86.4184 160.094 85.1586 172.927" stroke="black" stroke-width="0.5" stroke-miterlimit="10"/>
<path d="M123.286 176.552C129.413 174.639 135.518 173.388 141.599 172.927" stroke="black" stroke-width="0.25" stroke-miterlimit="10"/>
<path d="M107.506 176.827C115.704 174.838 128.38 173.306 141.771 171.849C161.168 161.67 183.004 149.365 187.362 152.292" stroke="black" stroke-width="0.25" stroke-miterlimit="10"/>
<path d="M143.264 160.017V142.694" stroke="black" stroke-width="0.5" stroke-miterlimit="10"/>
<path d="M105.719 158.057C117.365 160.571 129.921 161.138 143.264 160.017" stroke="black" stroke-width="0.25" stroke-miterlimit="10"/>
<path d="M103.791 154.182C118.79 157.175 133.652 158.2 148.331 156.57" stroke="black" stroke-width="0.25" stroke-miterlimit="10"/>
<path d="M109.399 151.392C125.656 154.215 140.979 155.012 154.445 151.768" stroke="black" stroke-width="0.25" stroke-miterlimit="10"/>
<path d="M160.149 147.144V136.109" stroke="black" stroke-width="0.5" stroke-miterlimit="10"/>
<path d="M115.183 148.169C130.296 150.724 145.297 150.664 160.148 147.144" stroke="black" stroke-width="0.25" stroke-miterlimit="10"/>
<path d="M165.529 142.936L165.922 131.994" stroke="black" stroke-width="0.5" stroke-miterlimit="10"/>
<path d="M137.789 146.263C147.132 146.184 156.38 145.094 165.529 142.934" stroke="black" stroke-width="0.25" stroke-miterlimit="10"/>
<path d="M171.283 139.723L171.685 125.303" stroke="black" stroke-width="0.5" stroke-miterlimit="10"/>
<path d="M154.446 141.038L171.283 139.723" stroke="black" stroke-width="0.25" stroke-miterlimit="10"/>
<path d="M176.905 137.52L177.256 117.491" stroke="black" stroke-width="0.5" stroke-miterlimit="10"/>
<path d="M160.149 137.439L176.905 137.52" stroke="black" stroke-width="0.25" stroke-miterlimit="10"/>
<path d="M163.855 133.613L182.656 135.744" stroke="black" stroke-width="0.25" stroke-miterlimit="10"/>
<path d="M166.729 131.268L188.023 134" stroke="black" stroke-width="0.25" stroke-miterlimit="10"/>
<path d="M169.169 128.727L188.181 131.994" stroke="black" stroke-width="0.25" stroke-miterlimit="10"/>
<path d="M171.846 125.045L188.265 130.36" stroke="black" stroke-width="0.25" stroke-miterlimit="10"/>
<path d="M188.336 128.998L182.656 125.603C181.031 122.595 177.863 121.432 173.711 121.449" stroke="black" stroke-width="0.25" stroke-miterlimit="10"/>
<path d="M199.445 112.778L199.53 110.648V105.792" stroke="black" stroke-width="0.5" stroke-miterlimit="10"/>
<path d="M177.256 117.246C182.784 117.246 190.806 115.257 199.444 112.778" stroke="black" stroke-width="0.25" stroke-miterlimit="10"/>
<path d="M199.445 112.778C207.386 111.49 214.838 110.639 221.28 110.689" stroke="black" stroke-width="0.25" stroke-miterlimit="10"/>
<path d="M199.271 120.904L199.445 112.778" stroke="black" stroke-width="0.5" stroke-miterlimit="10"/>
<path d="M209.935 129.441V127.498" stroke="black" stroke-width="0.5" stroke-miterlimit="10"/>
<path d="M315.468 115.657C330.763 118.856 344.582 122.115 348.72 125.771" stroke="black" stroke-width="0.5" stroke-miterlimit="10"/>
<path d="M315.468 114.661C329.852 117.169 343.304 119.775 348.381 123.271" stroke="black" stroke-width="0.5" stroke-miterlimit="10"/>
<path d="M305.185 109.991C313.666 110.904 322.625 112.734 331.961 115.287" stroke="black" stroke-width="0.5" stroke-miterlimit="10"/>
<path d="M298.984 108.325C310.49 108.924 321.396 110.711 331.224 114.623" stroke="black" stroke-width="0.5" stroke-miterlimit="10"/>
<path d="M298.643 106.073C307.866 106.746 316.158 107.823 320.702 110.53" stroke="black" stroke-width="0.5" stroke-miterlimit="10"/>
<path d="M298.492 104.912C313.955 105.907 328.286 107.125 336.653 109.519" stroke="black" stroke-width="0.5" stroke-miterlimit="10"/>
<path d="M298.492 102.905C316.04 103.726 332.42 104.89 341.119 108.301" stroke="black" stroke-width="0.5" stroke-miterlimit="10"/>
<path d="M341.824 106.845C333.086 104.624 325.014 102.463 320.129 100.593C319.95 104.371 319.984 107.88 320.702 110.53" stroke="black" stroke-width="0.5" stroke-miterlimit="10"/>
<path d="M347.02 105.562L330.609 99.1794" stroke="black" stroke-width="0.5" stroke-miterlimit="10"/>
<path d="M351.042 105.212L336.024 99.2644" stroke="black" stroke-width="0.5" stroke-miterlimit="10"/>
<path d="M352.355 104.297L335.87 96.7671" stroke="black" stroke-width="0.5" stroke-miterlimit="10"/>
<path d="M356.205 104.028L341.544 96.7671" stroke="black" stroke-width="0.5" stroke-miterlimit="10"/>
<path d="M346.586 96.1424L362.991 103.508V98.8606V94.752" stroke="black" stroke-width="0.5" stroke-miterlimit="10"/>
<path d="M318.573 109.168L336.715 110.531L335.782 95.3401" stroke="black" stroke-width="0.5" stroke-miterlimit="10"/>
<path d="M363.888 112.697C398.796 104.331 486.045 107.87 516.018 118.266" stroke="black" stroke-width="0.25" stroke-miterlimit="10"/>
<path d="M344.171 147.585L343.533 120.117C355.586 117.483 365.139 116.71 364.859 123.272L363.888 112.697" stroke="black" stroke-width="0.5" stroke-miterlimit="10"/>
<path d="M347.889 138.566L348.188 139.655L344.171 147.585" stroke="black" stroke-miterlimit="10"/>
<path d="M344.171 136.59L347.889 138.566" stroke="black" stroke-width="0.5" stroke-miterlimit="10"/>
<path d="M333.017 155.567C333.273 160.34 333.048 164.801 331.889 168.659L365.367 173.029C365.62 168.147 368.773 157.003 371.746 146.247L368.803 148.005L344.394 147.144" stroke="black" stroke-miterlimit="10"/>
<path d="M249.019 155.567C260.968 147.362 282.062 146.639 312.299 153.398C312.931 153.539 313.556 153.716 314.17 153.921L322.181 156.605L322.794 156.801C325.631 157.708 328.705 157.528 331.416 156.295L333.017 155.567" stroke="black" stroke-miterlimit="10"/>
<path d="M249.312 159.848C268.365 168.545 289.032 168.13 311.027 160.21" stroke="black" stroke-width="1.25" stroke-miterlimit="10"/>
<path d="M333.13 145.736C337.243 145.241 341.062 145.153 344.028 146.246" stroke="black" stroke-width="0.5" stroke-miterlimit="10"/>
<path d="M334.847 143.632C338.622 143.363 342.08 143.345 344.027 144.519" stroke="black" stroke-width="0.5" stroke-miterlimit="10"/>
<path d="M337.382 141.498C341.59 140.876 345.258 140.59 347.02 141.498" stroke="black" stroke-width="0.5" stroke-miterlimit="10"/>
<path d="M333.129 145.736L333.017 155.567" stroke="black" stroke-width="0.5" stroke-miterlimit="10"/>
<path d="M322.461 155.144C326.358 154.765 329.506 155.013 331.418 156.295" stroke="black" stroke-width="0.5" stroke-miterlimit="10"/>
<path d="M322.461 153.399C326.575 152.909 330.206 152.901 333.018 153.717" stroke="black" stroke-width="0.5" stroke-miterlimit="10"/>
<path d="M333.017 155.567C337.511 153.151 341.296 150.511 344.171 147.585" stroke="black" stroke-miterlimit="10"/>
<path d="M297.566 170.176C296.548 166.364 310.559 163.302 322.582 160.142C323.177 159.987 323.765 159.83 324.348 159.673L333.017 155.567" stroke="black" stroke-miterlimit="10"/>
<path d="M257.136 168.939C269.663 175.581 283.116 176.151 297.566 170.176" stroke="black" stroke-miterlimit="10"/>
<path d="M252.413 166.292L257.136 168.939" stroke="black" stroke-miterlimit="10"/>
<path d="M338.578 145.437L338.808 152.044C332.975 151.883 326.635 151.45 322.353 150.14C316.175 147.577 305.82 146.021 294.382 145.624C258.491 143.428 243.126 147.329 238.504 154.421C238.072 155.084 238.083 155.949 238.537 156.598C241.445 160.77 246.069 164 252.413 166.291" stroke="black" stroke-miterlimit="10"/>
<path d="M333.13 147.814C336.832 147.559 340.475 147.596 343.127 148.598" stroke="black" stroke-width="0.5" stroke-miterlimit="10"/>
<path d="M96.2783 176.036C104.845 173.816 112.563 172.754 118.561 174.044" stroke="black" stroke-width="0.25" stroke-miterlimit="10"/>
<path d="M160.293 159.637C177.29 152.628 198.454 142.162 198.935 148.859" stroke="black" stroke-width="0.25" stroke-miterlimit="10"/>
<path d="M291.893 92.6806C301.298 90.7596 310.052 90.7518 318.002 93.1106" stroke="black" stroke-width="0.25" stroke-miterlimit="10"/>
<path d="M303.517 89.2019C312.032 89.1078 319.506 89.6109 323.402 92.1671" stroke="black" stroke-width="0.25" stroke-miterlimit="10"/>
<path d="M312.94 83.3186C320.84 84.6934 327.531 86.6837 332.094 89.7534" stroke="black" stroke-width="0.25" stroke-miterlimit="10"/>
<path d="M335.782 88.2794L335.345 69.6755" stroke="black" stroke-width="0.5" stroke-miterlimit="10"/>
<path d="M316.159 80.3705C323.6 81.5061 330.222 84.0074 335.782 88.2793" stroke="black" stroke-width="0.25" stroke-miterlimit="10"/>
<path d="M346.585 85.1351L345.987 68.0837" stroke="black" stroke-width="0.5" stroke-miterlimit="10"/>
<path d="M324.698 74.959C333.207 78.4443 340.888 81.8655 346.586 85.1352" stroke="black" stroke-width="0.25" stroke-miterlimit="10"/>
<path d="M330.228 73.3699L356.205 83.9838" stroke="black" stroke-width="0.25" stroke-miterlimit="10"/>
<path d="M335.384 71.3378C346.058 75.1641 356.554 78.899 362.078 80.0869C370.843 82.1138 385.139 82.3882 400.282 82.3934" stroke="black" stroke-width="0.25" stroke-miterlimit="10"/>
<path d="M340.339 69.6755C351.741 73.0824 363.195 76.5834 372.867 76.8656L392.089 77.5373" stroke="black" stroke-width="0.25" stroke-miterlimit="10"/>
<path d="M422.533 92.2938L423.628 113.841" stroke="black" stroke-width="0.5" stroke-miterlimit="10"/>
<path d="M409.854 93.0478C413.906 91.9593 418.147 91.7724 422.533 92.2938" stroke="black" stroke-width="0.25" stroke-miterlimit="10"/>
<path d="M410.833 95.6485C416.847 93.7836 422.56 92.827 427.819 93.2413" stroke="black" stroke-width="0.25" stroke-miterlimit="10"/>
<path d="M410.594 97.6335C419.405 95.4394 427.714 94.1025 435.072 94.3939" stroke="black" stroke-width="0.25" stroke-miterlimit="10"/>
<path d="M410.114 99.2709C421.705 96.3057 433.105 95.1204 444.319 95.6484L446.109 114.26" stroke="black" stroke-width="0.5" stroke-miterlimit="10"/>
<path d="M408.662 101.674C420.331 99.0095 433.213 96.8363 455.589 98.5077C472.488 99.3754 488.621 101.259 503.983 104.164C517.341 105.788 530.018 106.128 541.667 104.519C553.493 101.771 565.43 97.9392 577.444 93.3667" stroke="black" stroke-width="0.25" stroke-miterlimit="10"/>
<path d="M406.763 103.474C423.883 99.1389 442.19 98.6959 461.141 100.779C479 102.248 498.009 107.206 518.326 108.782C520.633 108.961 525.065 109.175 525.927 109.175C531.187 109.175 530.212 109.26 536.991 108.613C540.768 108.253 544.503 107.531 548.139 106.448C558.124 103.474 569.619 98.8985 581.466 93.9482" stroke="black" stroke-width="0.25" stroke-miterlimit="10"/>
<path d="M407.945 115.252L406.763 103.474" stroke="black" stroke-width="0.5" stroke-miterlimit="10"/>
<path d="M406.907 104.912C429.646 101.157 451.497 100.427 472.108 103.939C492.667 107.436 512.178 110.617 525.34 111.883C525.961 111.943 526.583 111.98 527.207 111.994C547.609 112.488 566.741 103.945 585.868 95.0943C585.95 95.0564 586.047 95.0969 586.077 95.1819L589.592 104.912" stroke="black" stroke-width="0.25" stroke-miterlimit="10"/>
<path d="M401.548 107.031C426.777 104.068 449.931 102.605 467.091 105.469C485.027 107.67 505.18 111.207 526.496 115.447C549.967 114.451 569.905 108.145 586.925 97.4531" stroke="black" stroke-width="0.25" stroke-miterlimit="10"/>
<path d="M347.02 121.236C355.387 119.197 360.907 119.319 360.127 124.221" stroke="black" stroke-width="0.5" stroke-miterlimit="10"/>
</g>
<defs>
<clipPath id="clip0_28_2535">
<rect width="593.505" height="233" fill="white"/>
</clipPath>
</defs>
</svg>
