<svg width="596" height="236" viewBox="0 0 596 236" fill="none" xmlns="http://www.w3.org/2000/svg">
<g clip-path="url(#clip0_23_364)">
<path d="M186.342 99.1699C199.028 98.2671 210.168 99.0296 219.133 102.138C222.097 103.165 224.865 104.687 227.346 106.604C230.251 108.849 233.359 110.817 236.633 112.483C238.165 113.262 239.785 113.855 241.46 114.25L249.3 116.099C249.406 116.124 249.513 116.145 249.622 116.161L258.294 117.467C261.396 117.934 264.557 117.841 267.627 117.195L272.003 116.274C272.431 116.184 272.863 116.114 273.298 116.065C278.702 115.456 283.987 114.061 288.986 111.925C289.539 111.688 290.064 111.388 290.545 111.028L291.012 110.68C292.017 109.931 292.608 108.754 292.608 107.501C292.608 106.253 292.019 105.078 291.019 104.329L289.953 103.532C289.441 103.149 288.844 102.895 288.213 102.79L281.446 101.681L277.254 101.197C274.184 100.842 271.095 100.663 268.004 100.663H261.911L258.491 100.596C254.908 100.524 251.335 100.202 247.798 99.6306L247.592 99.5975C244.261 99.0587 240.963 98.3294 237.717 97.4107C236.002 96.9262 234.491 95.9043 233.405 94.4958C232.389 93.1801 232.303 91.3705 233.19 89.9647C234.244 88.2915 236.017 87.2008 237.99 87.0115L239.464 86.8698C242.832 86.5468 246.219 86.4793 249.597 86.6713L253.09 86.8698C255.826 87.0247 258.544 87.4192 261.209 88.0493L276.066 91.5558C277.507 91.896 278.971 92.133 280.445 92.2614C294.308 93.466 305.31 89.8284 313.49 81.4121C314.523 80.3478 315.638 79.3629 316.811 78.4535C324.478 72.51 333.535 69.4932 343.774 68.9664C365.776 68.8261 387.728 74.0071 409.582 89.5702C409.741 89.6841 409.908 89.7873 410.083 89.8734C421.507 95.5601 456.211 98.4684 492.847 101.145C510.641 105.002 528.906 105.136 547.677 101.269L572.573 94.0974" stroke="black" stroke-width="0.75" stroke-miterlimit="10"/>
<path d="M200.832 127.579V129.747V131.397V133.375V134.927L200.655 136.594" stroke="black" stroke-width="0.75" stroke-miterlimit="10"/>
<path d="M129.123 165.797C101.242 173.1 75.9048 145.343 128.536 146.504C154.714 142.088 165.726 132.546 169.773 120.65C170.155 119.528 171.283 118.834 172.459 119.011V115.3L185.59 113.444L200.009 111.373L209.884 110.66L215.072 110.445L217.147 110.303C215.352 109.386 213.542 108.738 211.681 109.045C211.702 108.297 211.184 107.678 210.242 107.161L206.807 107.126L199.544 106.804L193.759 107.269L188.739 107.59L185.196 108.055L183.836 108.376L180.116 108.947L178.756 109.768L178.684 110.66L177.861 110.696L178.148 114.301L178.076 118.8L177.938 137.751" stroke="black" stroke-width="0.75" stroke-miterlimit="10"/>
<path d="M200.743 106.856L200.655 125.187" stroke="black" stroke-width="0.75" stroke-miterlimit="10"/>
<path d="M206.218 107.098L205.638 129.148L211.508 127.471L216.798 126.382L222.598 125.437L228.251 124.597L231.704 124.055" stroke="black" stroke-width="0.75" stroke-miterlimit="10"/>
<path d="M222.271 160.41L222.716 112.774C221.194 111.589 219.339 110.765 217.148 110.303" stroke="black" stroke-width="0.75" stroke-miterlimit="10"/>
<path d="M233.935 127.428L234.345 157.778L234.324 163.968C225.194 160.576 220.992 156.564 228.491 151.612L233.935 148.959L239.755 146.916L245.618 145.479L251.493 144.355L256.438 143.821L262.503 143.396L268.29 143.019L274.033 142.804L279.726 142.831L285.344 142.991L291.378 143.259L296.412 143.687L302.646 144.33L308.279 145.053L314.017 145.936L319.59 147.141L323.704 148.609L336.618 153.921" stroke="black" stroke-width="0.75" stroke-miterlimit="10"/>
<path d="M245.91 133.56L245.321 167.204" stroke="black" stroke-width="0.75" stroke-miterlimit="10"/>
<path d="M251.579 135.032L251.366 169.943" stroke="black" stroke-width="0.75" stroke-miterlimit="10"/>
<path d="M274.032 137.031L274.466 158.063" stroke="black" stroke-width="0.75" stroke-miterlimit="10"/>
<path d="M285.195 136.606L286.086 175.181C285.71 178.765 285.883 182.099 287.137 184.937" stroke="black" stroke-width="0.75" stroke-miterlimit="10"/>
<path d="M296.05 135.161L297.486 169.006" stroke="black" stroke-width="0.75" stroke-miterlimit="10"/>
<path d="M302.644 133.318V166.415V166.941" stroke="black" stroke-width="0.75" stroke-miterlimit="10"/>
<path d="M308.314 165.264L308.278 165.13V130.728" stroke="black" stroke-width="0.75" stroke-miterlimit="10"/>
<path d="M320.01 162.214L319.71 149.991L318.099 111.961L323.896 113.657V116.459L325.292 149.261L325.527 159.979" stroke="black" stroke-width="0.75" stroke-miterlimit="10"/>
<path d="M312.786 109.872C312.786 110.51 312.786 119.067 312.786 119.32C330.855 121.464 348.136 125.674 348.362 133.171L354.703 141.785L357.44 141.036L360.43 137.778L366.672 130.975L366.984 124.114" stroke="black" stroke-width="0.75" stroke-miterlimit="10"/>
<path d="M415.903 91.8404L417.778 115.445C444.922 114.006 470.958 117.627 495.987 125.842" stroke="black" stroke-width="0.75" stroke-miterlimit="10"/>
<path d="M426.857 94.4495L428.229 114.37V115.141" stroke="black" stroke-width="0.75" stroke-miterlimit="10"/>
<path d="M217.148 151.852L222.381 148.586L228.49 146.068L233.934 144.569L239.656 142.854L245.766 141.785L251.281 140.928L256.437 140.339L262.502 139.648L268.142 139.321L274.03 139.107H279.724L285.199 139.429L291.377 139.803L296.262 140.178L302.644 140.874L308.278 141.623L313.945 142.478L319.174 143.393L325.099 144.725L326.583 145.332C328.046 145.932 329.434 146.7 330.718 147.62L338.052 152.872" stroke="black" stroke-width="0.75" stroke-miterlimit="10"/>
<path d="M288.852 136.232L291.377 136.324L296.13 137.031L302.644 137.448L308.278 138.197L313.877 139.213L319.295 140.174L324.959 141.459L330.282 142.748" stroke="black" stroke-width="0.75" stroke-miterlimit="10"/>
<path d="M245.915 135.717L239.506 136.573L235.034 137.232C234.301 137.34 233.576 137.487 232.859 137.669L228.491 138.787L222.462 140.072L217.518 141.085C217.098 141.171 216.673 141.245 216.249 141.304L212.081 141.897C211.609 141.965 211.134 142.016 210.659 142.051C208.547 142.208 206.422 142.043 204.356 141.578C181.579 136.461 163.971 141.206 152.359 157.394C150.922 159.397 149.132 161.123 147.095 162.514C137.903 168.795 126.533 171.423 113.689 171.575C112.875 171.585 112.061 171.55 111.253 171.464C97.0808 169.939 88.7736 164.25 89.023 152.486" stroke="black" stroke-width="0.75" stroke-miterlimit="10"/>
<path d="M209.099 138.787L211.228 138.744L217.148 137.953L222.49 137.031L228.49 135.717L233.935 134.764L239.367 134.038L239.369 131.117L240.204 165.697" stroke="black" stroke-width="0.75" stroke-miterlimit="10"/>
<path d="M233.935 131.755L238.867 130.868" stroke="black" stroke-width="0.75" stroke-miterlimit="10"/>
<path d="M207.954 135.235L211.458 132.826L216.855 131.755L222.548 130.72L228.332 129.63L233.935 128.898" stroke="black" stroke-width="0.75" stroke-miterlimit="10"/>
<path d="M206.351 132.21L211.484 130.041L216.826 129.006L222.575 127.89L232.887 126.234" stroke="black" stroke-width="0.75" stroke-miterlimit="10"/>
<path d="M202.986 127.811L205.543 126.455L211.459 124.989L216.772 124.008L222.619 123.152L228.133 122.563L231.335 122.147" stroke="black" stroke-width="0.75" stroke-miterlimit="10"/>
<path d="M200.655 125.07V125.692L205.625 124.089L211.55 122.938L216.75 122.055L222.637 121.251L228.133 120.715L230.987 120.348" stroke="black" stroke-width="0.75" stroke-miterlimit="10"/>
<path d="M196.622 123.018L200.653 120.957L205.767 119.995L211.586 119.013L216.71 118.414L222.669 117.612L227.852 116.885C227.862 116.884 227.866 116.872 227.86 116.864C226.569 115.272 224.89 113.888 222.713 112.775" stroke="black" stroke-width="0.75" stroke-miterlimit="10"/>
<path d="M200.698 123.178L205.701 121.924L211.572 120.769L216.728 119.949L222.655 119.322L229.015 118.764V162.284" stroke="black" stroke-width="0.75" stroke-miterlimit="10"/>
<path d="M194.987 120.688L200.744 119.011L205.832 118.173L211.604 117.369L216.695 116.781L222.684 116.218" stroke="black" stroke-width="0.75" stroke-miterlimit="10"/>
<path d="M195.073 118.453L200.698 117.083L205.894 116.378L211.618 115.709L216.677 115.228L222.697 114.771" stroke="black" stroke-width="0.75" stroke-miterlimit="10"/>
<path d="M195.159 116.218L200.698 115.36L205.954 114.64L211.634 114.103L216.623 113.755L222.684 113.407" stroke="black" stroke-width="0.75" stroke-miterlimit="10"/>
<path d="M183.837 108.374L183.739 113.704V117.179L184.012 121.845" stroke="black" stroke-width="0.75" stroke-miterlimit="10"/>
<path d="M189.399 107.545L189.32 112.906L189.422 115.728L189.657 120.834" stroke="black" stroke-width="0.75" stroke-miterlimit="10"/>
<path d="M298.422 134.617L302.644 134.968L308.278 135.717L313.828 136.814L319.192 137.782L324.842 138.711L330.137 140.002L335.971 142.357L330.282 147.319L336.615 142.003L335.488 118.868L329.531 116.78L330.282 147.319" stroke="black" stroke-width="0.75" stroke-miterlimit="10"/>
<path d="M341.909 138.715L336.616 142.003" stroke="black" stroke-width="0.75" stroke-miterlimit="10"/>
<path d="M345.704 140.359C346.526 136.029 348.333 132.692 350.676 129.898C352.688 127.937 355.497 126.666 358.62 125.667L379.064 121.869" stroke="black" stroke-width="0.75" stroke-miterlimit="10"/>
<path d="M360.796 149.703L361.182 136.956" stroke="black" stroke-width="0.75" stroke-miterlimit="10"/>
<path d="M355.793 149.496V141.486" stroke="black" stroke-width="0.75" stroke-miterlimit="10"/>
<path d="M432.4 95.3496L434.221 115.22" stroke="black" stroke-width="0.75" stroke-miterlimit="10"/>
<path d="M438.08 96.1439L439.819 115.392" stroke="black" stroke-width="0.75" stroke-miterlimit="10"/>
<path d="M449.187 97.4067L451.26 116.261" stroke="black" stroke-width="0.75" stroke-miterlimit="10"/>
<path d="M455.052 97.9428L456.156 113.612C456.178 113.927 456.189 114.243 456.189 114.56L490.609 119.796L487.389 101.305" stroke="black" stroke-width="0.75" stroke-miterlimit="10"/>
<path d="M460.266 98.4101L462.23 115.478" stroke="black" stroke-width="0.75" stroke-miterlimit="10"/>
<path d="M465.848 98.8972L467.783 116.318" stroke="black" stroke-width="0.75" stroke-miterlimit="10"/>
<path d="M471 99.3328L473.469 117.189" stroke="black" stroke-width="0.75" stroke-miterlimit="10"/>
<path d="M476.586 99.7828L479.232 118.368" stroke="black" stroke-width="0.75" stroke-miterlimit="10"/>
<path d="M481.884 100.179L485.1 119.153" stroke="black" stroke-width="0.75" stroke-miterlimit="10"/>
<path d="M451.028 114.145L456.197 114.591" stroke="black" stroke-width="0.75" stroke-miterlimit="10"/>
<path d="M490.609 119.796H520.002L542.381 118.368L557.033 116.318L573.778 112.603L581.772 110.251C583.096 109.862 584.388 109.376 585.641 108.796L592.749 105.511" stroke="black" stroke-width="0.75" stroke-miterlimit="10"/>
<path d="M497.14 119.796C497.209 122.125 497.053 124.298 495.985 125.842C519.747 131.521 527.532 140.126 527.489 150.164" stroke="black" stroke-width="0.75" stroke-miterlimit="10"/>
<path d="M502.452 119.796C502.68 122.322 502.452 124.846 501.766 127.372" stroke="black" stroke-width="0.75" stroke-miterlimit="10"/>
<path d="M508.732 119.796C509.028 122.998 508.732 126.201 507.846 129.401" stroke="black" stroke-width="0.75" stroke-miterlimit="10"/>
<path d="M514.045 119.796L513.202 131.666" stroke="black" stroke-width="0.75" stroke-miterlimit="10"/>
<path d="M520.002 119.796C519.4 125.14 518.67 130.103 517.627 134.142" stroke="black" stroke-width="0.75" stroke-miterlimit="10"/>
<path d="M526.549 119.378L526.442 119.796C525.437 126.551 524.148 132.818 521.963 137.536" stroke="black" stroke-width="0.75" stroke-miterlimit="10"/>
<path d="M531.434 119.153L527.489 150.164C529.782 159.844 530.508 170.309 529.824 181.478L560.023 180.379C557.824 149.604 557.631 129.346 570.234 122.797" stroke="black" stroke-width="0.75" stroke-miterlimit="10"/>
<path d="M542.383 118.368L540.129 136.538L538.312 181.17" stroke="black" stroke-width="0.75" stroke-miterlimit="10"/>
<path d="M547.837 117.604L545.924 135.896L544.958 180.929" stroke="black" stroke-width="0.75" stroke-miterlimit="10"/>
<path d="M552.583 116.941L550.916 133.165V180.712" stroke="black" stroke-width="0.75" stroke-miterlimit="10"/>
<path d="M557.033 129.76L559.201 115.837" stroke="black" stroke-width="0.75" stroke-miterlimit="10"/>
<path d="M564.773 114.591L563.104 126.633" stroke="black" stroke-width="0.75" stroke-miterlimit="10"/>
<path d="M570.233 113.389L568.751 123.725" stroke="black" stroke-width="0.75" stroke-miterlimit="10"/>
<path d="M500.52 119.796L498.25 100.556C522.339 102.254 544.446 100.625 563.595 94.0246C563.662 94.0021 563.733 94.0458 563.742 94.1159L566.453 114.229" stroke="black" stroke-width="0.75" stroke-miterlimit="10"/>
<path d="M503.564 99.9403L505.78 119.796" stroke="black" stroke-width="0.75" stroke-miterlimit="10"/>
<path d="M508.966 99.3328L511.094 119.796" stroke="black" stroke-width="0.75" stroke-miterlimit="10"/>
<path d="M514.471 98.7132L516.406 119.796" stroke="black" stroke-width="0.75" stroke-miterlimit="10"/>
<path d="M519.573 98.1401L521.93 119.796" stroke="black" stroke-width="0.75" stroke-miterlimit="10"/>
<path d="M525.276 97.4994L527.261 119.333C486.134 109.085 441.082 104.625 389.285 110.112L389.64 116.369" stroke="black" stroke-width="0.75" stroke-miterlimit="10"/>
<path d="M530.751 96.8839L532.456 119.002" stroke="black" stroke-width="0.75" stroke-miterlimit="10"/>
<path d="M535.836 96.312L537.927 118.557" stroke="black" stroke-width="0.75" stroke-miterlimit="10"/>
<path d="M541.335 95.6938L543.792 118.171" stroke="black" stroke-width="0.75" stroke-miterlimit="10"/>
<path d="M547.1 95.0465L549.167 117.419" stroke="black" stroke-width="0.75" stroke-miterlimit="10"/>
<path d="M552.547 94.4482L554.743 116.638C568.376 111.91 580.569 107.074 589.574 101.996" stroke="black" stroke-width="0.75" stroke-miterlimit="10"/>
<path d="M558.106 94.1464L560.698 115.505" stroke="black" stroke-width="0.75" stroke-miterlimit="10"/>
<path d="M569.319 93.9796L572.384 112.795" stroke="black" stroke-width="0.75" stroke-miterlimit="10"/>
<path d="M575.183 94.2483L578.482 111.22" stroke="black" stroke-width="0.75" stroke-miterlimit="10"/>
<path d="M580.842 94.84L584.87 109.154" stroke="black" stroke-width="0.75" stroke-miterlimit="10"/>
<path d="M304.348 132.652L308.278 133.042L313.767 133.858L319.073 134.968C321.05 135.124 322.938 135.448 324.725 135.966L330.064 137.198C332.274 137.54 334.412 138.149 336.472 139.054C337.452 139.468 338.19 140.024 338.618 140.759" stroke="black" stroke-width="0.75" stroke-miterlimit="10"/>
<path d="M308.757 130.45C310.328 130.542 312.472 130.924 313.715 131.29C315.533 131.379 317.282 131.691 318.959 132.234C321.034 132.52 322.955 132.899 324.619 133.429C326.583 133.672 328.391 134.034 329.997 134.556C332.299 135.007 334.435 135.602 336.343 136.392C338.468 136.969 340.134 137.86 341.219 139.144" stroke="black" stroke-width="0.75" stroke-miterlimit="10"/>
<path d="M311.765 128.448L313.665 128.844L318.859 129.914L324.521 131.157L329.94 132.396L336.225 133.987L341.783 136.267" stroke="black" stroke-width="0.75" stroke-miterlimit="10"/>
<path d="M314.606 124.564L318.668 125.401L324.339 126.893L329.831 128.239L336.016 129.715L341.541 131.57L347.247 135.355" stroke="black" stroke-width="0.75" stroke-miterlimit="10"/>
<path d="M314.358 122.465L318.591 123.58L324.253 124.857L329.778 126.204L335.922 127.755L341.448 129.736L347.801 134.196C346.443 131.043 344.497 128.693 341.358 127.976L335.849 126.234L329.737 124.547L324.189 123.284L318.524 121.896L313.491 120.605" stroke="black" stroke-width="0.75" stroke-miterlimit="10"/>
<path d="M233.935 163.847L248.658 168.406" stroke="black" stroke-width="0.75" stroke-miterlimit="10"/>
<path d="M529.461 134.659C533.889 136.996 538.436 138.02 543.204 136.573C572.572 122.726 589.092 111.654 594.639 102.954C595.227 102.033 595.105 100.831 594.366 100.026C589.95 95.2252 576.723 92.8412 552.221 94.4694L492.845 101.144L495.152 119.795" stroke="black" stroke-width="0.75" stroke-miterlimit="10"/>
<path d="M528.939 138.759C533.944 141.385 535.677 157.163 533.313 181.352" stroke="black" stroke-width="0.75" stroke-miterlimit="10"/>
<path d="M252.917 183.645C254.688 179.606 254.955 175.438 253.561 171.125" stroke="black" stroke-width="0.75" stroke-miterlimit="10"/>
<path d="M331.606 156.992C338.273 165.799 351.499 163.06 368.289 154.048" stroke="black" stroke-width="0.75" stroke-miterlimit="10"/>
<path d="M369.926 148.139C369.534 142.553 372.187 132.733 375.051 122.616" stroke="black" stroke-width="0.75" stroke-miterlimit="10"/>
<path d="M366.284 131.397C366.069 138.106 366.195 144.395 366.939 149.919" stroke="black" stroke-width="0.75" stroke-miterlimit="10"/>
<path d="M349.985 135.378L349.926 149.03" stroke="black" stroke-width="0.75" stroke-miterlimit="10"/>
<path d="M186.342 99.1699C153.038 95.3801 140.218 89.6987 141.126 82.7504C141.382 80.7926 142.73 79.1446 144.569 78.4178C148.856 76.7235 153.064 75.2753 157.192 74.0733C179.879 67.4719 200.172 68.3138 218.068 76.6003C222.944 78.8573 226.676 83.0615 228.231 88.1949C228.739 89.8747 229.416 91.4235 230.312 92.8015C231.29 94.3079 232.144 95.8897 232.931 97.5034C236.625 105.079 249.187 108.137 267.862 108.08C268.959 108.076 269.418 109.49 268.52 110.12C264.841 112.704 257.472 113.735 246.504 113.254C242.481 113.078 238.582 111.755 235.343 109.368C232.248 107.086 229.034 105.564 225.612 105.362" stroke="black" stroke-width="0.75" stroke-miterlimit="10"/>
<path d="M184.303 82.1362C189.322 82.1362 193.39 80.7778 193.39 79.1022C193.39 77.4265 189.322 76.0682 184.303 76.0682C179.284 76.0682 175.216 77.4265 175.216 79.1022C175.216 80.7778 179.284 82.1362 184.303 82.1362Z" stroke="black" stroke-width="0.75" stroke-miterlimit="10"/>
<path d="M333.502 118.172C346.52 108.807 363.515 105.54 383.146 106.314C395.186 105.147 402.751 102.343 406.23 98.0434C407.554 96.406 407.217 93.9889 405.495 92.7724C398.094 87.5463 382.897 86.3523 364.145 86.9969C363.099 87.0327 362.053 87.0194 361.008 86.9731C350.483 86.4992 335.644 90.4704 319.758 95.5204C317.917 96.1055 316.009 96.4603 314.082 96.5715C299.062 97.4425 285.424 96.1558 272.796 93.2886C270.274 92.7154 267.797 91.9609 265.363 91.0819C258.42 88.5775 251.634 86.9294 245.319 87.8653C240.589 88.7164 239.296 90.6306 240.495 93.3138C241.458 95.4701 243.503 96.95 245.843 97.2942L268.67 100.66" stroke="black" stroke-width="0.75" stroke-miterlimit="10"/>
<path d="M189.703 69.6825C217.66 72.5073 240.641 77.2767 251.366 86.838" stroke="black" stroke-width="0.75" stroke-miterlimit="10"/>
<path d="M0.11035 92.6916C0.353157 88.78 11.5104 87.3305 37.4881 91.3573C41.0347 91.9066 44.5428 92.6691 48.0137 93.5758C60.6994 96.8891 79.9051 96.7065 101.24 95.3827C106.908 95.0306 112.725 94.5991 118.611 94.1305C122.39 90.8622 131.383 88.6635 142.366 86.8725" stroke="black" stroke-width="0.75" stroke-miterlimit="10"/>
<path d="M105.079 95.1339C105.83 94.6494 106.574 94.1728 107.313 93.7069C129.131 79.9348 145.264 74.4797 158.126 73.8059" stroke="black" stroke-width="0.75" stroke-miterlimit="10"/>
<path d="M0.11035 92.6916C24.6087 105.358 55.8207 111.428 94.4602 110.194C107.958 109.373 120.265 110.028 130.079 113.779C132.119 114.558 133.299 116.725 132.769 118.841C131.618 123.443 124.665 126.343 111.226 127.338C105.414 127.768 99.6906 129.057 94.3143 131.3C86.3375 134.627 80.3323 139.405 75.9047 145.343C75.5597 145.806 75.2227 146.276 74.8963 146.754C71.7266 151.388 69.4431 156.675 67.8762 162.489C69.3463 165.633 71.03 168.6 73.064 171.271C74.1838 162.056 75.0343 153.058 75.2599 146.233" stroke="black" stroke-width="0.75" stroke-miterlimit="10"/>
<path d="M0.11035 92.6916C20.7291 108.98 36.5726 124.826 22.3292 155.66L18.9485 168.825C36.2409 175.938 49.3684 173.215 56.6247 156.633C55.3722 140.084 59.7361 127.752 73.0653 122.147C90.988 115.53 108.54 113.956 125.696 117.743C129.314 119.009 129.712 121.087 128.473 123.58" stroke="black" stroke-width="0.75" stroke-miterlimit="10"/>
<path d="M83.932 177.515C86.0669 164.279 87.0275 149.981 87.1947 134.965" stroke="black" stroke-width="0.75" stroke-miterlimit="10"/>
<path d="M90.054 179.625L91.666 168.369" stroke="black" stroke-width="0.75" stroke-miterlimit="10"/>
<path d="M68.0554 96.2736C40.7455 94.9062 22.4527 95.9652 27.2027 103.225L28.5905 119.545C31.3569 125.974 30.5914 139.945 30.0009 153.541V163.949" stroke="black" stroke-width="0.75" stroke-miterlimit="10"/>
<path d="M107.313 93.7082C78.504 97.4226 40.4987 95.719 34.5639 99.4929C30.5184 104.06 40.3819 105.999 49.9934 107.986C63.9223 108.251 76.3134 104.719 88.0199 99.4929C101.766 97.4186 114.635 95.6806 115.713 98.4684C109.191 104.486 96.3683 108.145 77.8618 109.675C76.0361 109.826 74.1547 109.956 72.2176 110.066L73.9318 121.831" stroke="black" stroke-width="0.75" stroke-miterlimit="10"/>
<path d="M73.0654 171.27C81.1497 177.761 93.4267 181.877 110.991 182.995L112.781 191.152L115.066 199.184L119.148 213.534H107.126C112.538 221.673 121.328 229.094 132.942 235.915C146.932 236.233 160.302 234.344 173.139 230.561C170.515 222.989 168.134 215.135 165.958 207.047C164.179 200.434 161.628 194.402 160.099 187.5L159.829 186.761C157.955 179.654 154.395 172.465 165.303 165.987C178.611 157.41 192.326 150.511 209.097 156.24L233.022 163.499" stroke="black" stroke-width="0.75" stroke-miterlimit="10"/>
<path d="M131.993 201.688L131.199 183.129" stroke="black" stroke-width="0.75" stroke-miterlimit="10"/>
<path d="M147.573 201.688L148.776 177.287C144.294 181.621 139.84 185.455 135.428 188.475C132.137 190.51 126.259 186.953 121.153 183.817" stroke="black" stroke-width="0.75" stroke-miterlimit="10"/>
<path d="M112.709 190.822C117.309 200.251 139.147 204.707 145.125 202.54C150.44 200.614 163.118 192.445 159.83 186.763" stroke="black" stroke-width="0.75" stroke-miterlimit="10"/>
<path d="M110.991 182.997C129.476 185.948 146.956 180.869 161.292 168.974" stroke="black" stroke-width="0.75" stroke-miterlimit="10"/>
<path d="M114.863 198.468C137.803 210.202 161.333 222.854 165.482 205.259" stroke="black" stroke-width="0.75" stroke-miterlimit="10"/>
<path d="M125.721 200.149C122.986 193.863 118.892 188.155 112.865 183.269" stroke="black" stroke-width="0.75" stroke-miterlimit="10"/>
<path d="M559.202 172.412C555.233 163.714 552.23 155.32 550.916 147.461C551.319 139.323 554.051 132.737 559.943 128.256" stroke="black" stroke-width="0.75" stroke-miterlimit="10"/>
<path d="M533.116 146.868L536.908 118.717" stroke="black" stroke-width="0.75" stroke-miterlimit="10"/>
<path d="M575.388 112.129L574.904 119.725" stroke="black" stroke-width="0.75" stroke-miterlimit="10"/>
<path d="M580.622 110.59L580.229 116.235" stroke="black" stroke-width="0.75" stroke-miterlimit="10"/>
<path d="M586.226 108.526L585.555 112.311" stroke="black" stroke-width="0.75" stroke-miterlimit="10"/>
<path d="M410.082 89.8734L411.771 116.107" stroke="black" stroke-width="0.75" stroke-miterlimit="10"/>
<path d="M403.36 91.483C407.511 92.7962 410.143 94.5885 409.534 97.4054C409.269 105.221 400.291 109.114 385.776 110.514C363.938 111.246 345.355 114.54 336.615 119.811C353.37 115.899 367.518 114.977 374.035 122.804L373.11 114.155" stroke="black" stroke-width="0.75" stroke-miterlimit="10"/>
<path d="M274.816 163.501C280.225 163.501 284.61 162.283 284.61 160.782C284.61 159.28 280.225 158.063 274.816 158.063C269.406 158.063 265.021 159.28 265.021 160.782C265.021 162.283 269.406 163.501 274.816 163.501Z" stroke="black" stroke-width="0.75" stroke-miterlimit="10"/>
<path d="M227.862 116.862C228.217 118.372 228.946 118.958 229.866 118.999C230.44 119.025 230.898 119.496 230.881 120.07C230.617 128.856 241.371 134.299 262.503 136.59C272.187 137.393 281.815 137.203 291.378 135.918V173.61C290.44 177.924 289.853 181.99 291.173 184.711" stroke="black" stroke-width="0.75" stroke-miterlimit="10"/>
<path d="M294.982 110.015C299.879 111.297 304.111 113.061 307.377 115.064C313.226 118.647 315.987 122.985 313.967 126.649L318.764 127.647L324.424 128.881L329.881 130.201L336.117 131.789L341.669 134.057L346.464 136.564L346.703 136.703" stroke="black" stroke-width="0.75" stroke-miterlimit="10"/>
<path d="M291.377 135.918C300.904 134.749 308.27 131.731 313.966 126.648" stroke="black" stroke-width="0.75" stroke-miterlimit="10"/>
<path d="M279.513 136.956L279.979 158.47" stroke="black" stroke-width="0.75" stroke-miterlimit="10"/>
<path d="M268.133 136.945L268.599 158.68" stroke="black" stroke-width="0.75" stroke-miterlimit="10"/>
<path d="M217.38 158.68L217.148 110.301" stroke="black" stroke-width="0.75" stroke-miterlimit="10"/>
<path d="M211.682 157.025V109.044L206.154 108.91L200.698 109.338L195.03 109.899L189.359 110.435L183.788 111.039L177.94 111.665" stroke="black" stroke-width="0.75" stroke-miterlimit="10"/>
<path d="M294.61 172.379C293.358 175.323 293.657 178.825 294.676 182.586C294.519 185.186 294.701 187.856 295.147 190.581H252.915C253.392 188.839 253.234 186.108 252.915 183.5C251.908 185.201 265.179 184.827 274.465 184.352V163.497" stroke="black" stroke-width="0.75" stroke-miterlimit="10"/>
<path d="M280.037 163.081L279.619 184.512C288.54 185.347 293.982 184.994 294.653 183.012" stroke="black" stroke-width="0.75" stroke-miterlimit="10"/>
<path d="M274.467 184.352L279.943 184.543" stroke="black" stroke-width="0.75" stroke-miterlimit="10"/>
<path d="M256.982 152.875L257.495 166.464V172.734" stroke="black" stroke-width="0.75" stroke-miterlimit="10"/>
<path d="M268.602 162.656L268.296 184.286" stroke="black" stroke-width="0.75" stroke-miterlimit="10"/>
<path d="M254.449 171.585C259.518 175.987 261.766 180.426 258.473 184.936" stroke="black" stroke-width="0.75" stroke-miterlimit="10"/>
<path d="M22.3293 155.66C27.8542 165.432 35.0972 167.588 43.7428 163.524L56.4351 150.04" stroke="black" stroke-width="0.75" stroke-miterlimit="10"/>
<path d="M23.0338 116.327C37.2321 125.66 52.5741 128.21 70.1729 123.545" stroke="black" stroke-width="0.75" stroke-miterlimit="10"/>
<path d="M25.714 160.469C35.4104 145.028 44.9489 129.645 33.6032 121.831" stroke="black" stroke-width="0.75" stroke-miterlimit="10"/>
<path d="M49.4574 157.454C45.8365 142.244 46.963 129.919 60.8348 125.341" stroke="black" stroke-width="0.75" stroke-miterlimit="10"/>
<path d="M35.5205 165.46V143.392" stroke="black" stroke-width="0.75" stroke-miterlimit="10"/>
<path d="M34.5652 122.552L35.5205 143.712" stroke="black" stroke-width="0.75" stroke-miterlimit="10"/>
<path d="M54.3613 152.244C54.0548 141.271 58.5222 132.216 65.886 124.541" stroke="black" stroke-width="0.75" stroke-miterlimit="10"/>
<path d="M56.321 95.8315L25.1302 89.7238" stroke="black" stroke-width="0.75" stroke-miterlimit="10"/>
<path d="M39.7955 96.0883L19.9782 89.2592L19.0481 100.704C12.5852 97.3498 6.34514 94.1464 1.91888 90.4876" stroke="black" stroke-width="0.75" stroke-miterlimit="10"/>
<path d="M33.2941 96.8878L13.8868 88.9693L12.8572 98.4459" stroke="black" stroke-width="0.75" stroke-miterlimit="10"/>
<path d="M29.3866 97.9839L9.65953 89.0209" stroke="black" stroke-width="0.75" stroke-miterlimit="10"/>
<path d="M26.8033 99.8742L7.15981 89.2605" stroke="black" stroke-width="0.75" stroke-miterlimit="10"/>
<path d="M26.8033 102.515L4.64947 89.5954" stroke="black" stroke-width="0.75" stroke-miterlimit="10"/>
<path d="M8.66044 89.0778L6.6251 95.8315" stroke="black" stroke-width="0.75" stroke-miterlimit="10"/>
<path d="M25.714 89.7238L24.5517 102.459" stroke="black" stroke-width="0.75" stroke-miterlimit="10"/>
<path d="M31.4941 90.4889L31.0213 97.4226" stroke="black" stroke-width="0.75" stroke-miterlimit="10"/>
<path d="M37.1428 91.3652L36.9362 96.3504" stroke="black" stroke-width="0.75" stroke-miterlimit="10"/>
<path d="M42.8958 92.2389L42.6163 95.76" stroke="black" stroke-width="0.75" stroke-miterlimit="10"/>
<path d="M48.5313 93.7082V95.8315" stroke="black" stroke-width="0.75" stroke-miterlimit="10"/>
<path d="M54.0694 94.8254V95.76" stroke="black" stroke-width="0.75" stroke-miterlimit="10"/>
<path d="M187.201 99.1699C175.492 104.511 166.882 114.463 161.239 125.729C159.366 129.47 156.387 132.548 152.716 134.566C140.229 141.437 125.798 145.551 108.617 145.76C104.049 145.816 99.6521 147.616 96.4399 150.855C91.804 155.529 92.9265 159.777 97.8065 163.748C102.412 167.496 108.322 169.273 114.246 168.806C125.196 167.942 134.62 164.423 143.067 159.202C146.644 156.992 149.931 154.336 152.819 151.283C163.538 139.946 180.423 133.744 208.701 137.031L210.064 135.717H211.229L216.888 134.764L222.521 133.752L228.258 132.742L233.935 131.755" stroke="black" stroke-width="0.75" stroke-miterlimit="10"/>
<path d="M5.44025 95.2927L5.60715 97.1433" stroke="black" stroke-width="0.75" stroke-miterlimit="10"/>
<path d="M10.3136 97.4226L11.464 102.306" stroke="black" stroke-width="0.75" stroke-miterlimit="10"/>
<path d="M15.8359 99.5737L17.765 108.882" stroke="black" stroke-width="0.75" stroke-miterlimit="10"/>
<path d="M21.6394 101.559L23.5049 116.627" stroke="black" stroke-width="0.75" stroke-miterlimit="10"/>
<path d="M33.2941 104.624L34.5652 121.831" stroke="black" stroke-width="0.75" stroke-miterlimit="10"/>
<path d="M38.7593 106.02L40.7601 124.147V164.695" stroke="black" stroke-width="0.75" stroke-miterlimit="10"/>
<path d="M43.7972 106.987L45.7038 125.136" stroke="black" stroke-width="0.75" stroke-miterlimit="10"/>
<path d="M49.9934 107.985L51.4728 125.753L52.9602 153.733" stroke="black" stroke-width="0.75" stroke-miterlimit="10"/>
<path d="M55.2967 108.685L56.8955 125.675" stroke="black" stroke-width="0.75" stroke-miterlimit="10"/>
<path d="M61.3058 109.318L62.4058 125.136" stroke="black" stroke-width="0.75" stroke-miterlimit="10"/>
<path d="M66.5269 109.737L68.0554 124.071" stroke="black" stroke-width="0.75" stroke-miterlimit="10"/>
<path d="M79.2895 120.048L77.4479 109.737" stroke="black" stroke-width="0.75" stroke-miterlimit="10"/>
<path d="M84.6697 118.557L83.7184 109.097" stroke="black" stroke-width="0.75" stroke-miterlimit="10"/>
<path d="M90.0287 117.379L89.2565 110.317L89.6426 108.29" stroke="black" stroke-width="0.75" stroke-miterlimit="10"/>
<path d="M94.9897 107.315V110.162L95.8296 116.453" stroke="black" stroke-width="0.75" stroke-miterlimit="10"/>
<path d="M100.755 115.957L100.45 109.929V105.991C120.385 100.545 139.262 96.2961 156.454 93.9465L155.709 124.129" stroke="black" stroke-width="0.75" stroke-miterlimit="10"/>
<path d="M106.107 104.115L105.891 109.892L106.107 115.728" stroke="black" stroke-width="0.75" stroke-miterlimit="10"/>
<path d="M111.531 115.728V101.52C124.218 96.8375 137.324 93.789 150.78 92.0972L149.826 130.393" stroke="black" stroke-width="0.75" stroke-miterlimit="10"/>
<path d="M117.79 94.1954L117.205 110.663L117.497 116.344" stroke="black" stroke-width="0.75" stroke-miterlimit="10"/>
<path d="M145.447 89.516L144.158 134.021" stroke="black" stroke-width="0.75" stroke-miterlimit="10"/>
<path d="M167.295 96.4073L166.621 107" stroke="black" stroke-width="0.75" stroke-miterlimit="10"/>
<path d="M172.876 97.3657L173.645 102" stroke="black" stroke-width="0.75" stroke-miterlimit="10"/>
<path d="M126.609 139.742V124.13" stroke="black" stroke-width="0.75" stroke-miterlimit="10"/>
<path d="M120.89 140.595V126.083" stroke="black" stroke-width="0.75" stroke-miterlimit="10"/>
<path d="M115.323 141.111L115.564 126.925" stroke="black" stroke-width="0.75" stroke-miterlimit="10"/>
<path d="M147.716 131.936C136.672 130.847 123.758 129.269 109.919 127.449L109.562 141.37L87.1695 136.829" stroke="black" stroke-width="0.75" stroke-miterlimit="10"/>
<path d="M103.809 141.901L104.131 128.308" stroke="black" stroke-width="0.75" stroke-miterlimit="10"/>
<path d="M98.2908 129.833L98.0945 143.827C91.8544 141.975 85.8864 140.506 80.9387 140.465" stroke="black" stroke-width="0.75" stroke-miterlimit="10"/>
<path d="M92.5524 147.595L92.8504 131.936" stroke="black" stroke-width="0.75" stroke-miterlimit="10"/>
<path d="M96.8937 171.608L95.543 180.984" stroke="black" stroke-width="0.75" stroke-miterlimit="10"/>
<path d="M102.438 173.368L101.243 181.994" stroke="black" stroke-width="0.75" stroke-miterlimit="10"/>
<path d="M108.174 174.331L106.829 182.666" stroke="black" stroke-width="0.75" stroke-miterlimit="10"/>
<path d="M113.866 174.867C112.172 177.446 111.676 180.242 112.459 183.268C115.046 188.103 117.146 192.635 118.214 196.517" stroke="black" stroke-width="0.75" stroke-miterlimit="10"/>
<path d="M119.041 174.961C116.841 177.385 117.414 180.401 119.792 183.801" stroke="black" stroke-width="0.75" stroke-miterlimit="10"/>
<path d="M124.882 174.578C123.342 177.425 123.993 180.484 125.751 183.65" stroke="black" stroke-width="0.75" stroke-miterlimit="10"/>
<path d="M130.71 173.627C129.64 176.58 129.853 179.714 131.197 183.002" stroke="black" stroke-width="0.75" stroke-miterlimit="10"/>
<path d="M136.975 171.904C135.898 175.418 135.763 178.768 137.128 181.857V202.842" stroke="black" stroke-width="0.75" stroke-miterlimit="10"/>
<path d="M142.932 169.51C141.135 172.798 141.24 176.235 143.246 179.821V202.968" stroke="black" stroke-width="0.75" stroke-miterlimit="10"/>
<path d="M148.533 166.505C146.832 170.196 147.492 173.76 148.778 177.287" stroke="black" stroke-width="0.75" stroke-miterlimit="10"/>
<path d="M154.174 162.575C153.151 166.427 153.115 170.339 153.891 174.3L154.682 197.248" stroke="black" stroke-width="0.75" stroke-miterlimit="10"/>
<path d="M160.142 157.144C158.544 162.035 158.446 166.282 160.552 169.578" stroke="black" stroke-width="0.75" stroke-miterlimit="10"/>
<path d="M166.289 152.077L165.304 165.987" stroke="black" stroke-width="0.75" stroke-miterlimit="10"/>
<path d="M172.103 148.63C171.311 153.287 171.109 157.786 171.658 162.087" stroke="black" stroke-width="0.75" stroke-miterlimit="10"/>
<path d="M177.703 146.504C176.922 150.932 176.735 155.144 177.431 159.032" stroke="black" stroke-width="0.75" stroke-miterlimit="10"/>
<path d="M183.391 145.405C182.638 149.047 182.542 152.818 182.989 156.695" stroke="black" stroke-width="0.75" stroke-miterlimit="10"/>
<path d="M189.001 144.816L188.849 155.005" stroke="black" stroke-width="0.75" stroke-miterlimit="10"/>
<path d="M194.47 144.788V154.216" stroke="black" stroke-width="0.75" stroke-miterlimit="10"/>
<path d="M199.788 154.262L200.035 145.405" stroke="black" stroke-width="0.75" stroke-miterlimit="10"/>
<path d="M205.484 146.754L205.699 155.239" stroke="black" stroke-width="0.75" stroke-miterlimit="10"/>
<path d="M140.531 77.2767L139.702 87.3225L138.345 136.594" stroke="black" stroke-width="0.75" stroke-miterlimit="10"/>
<path d="M135.017 79.2544L134.286 88.359L132.405 138.464" stroke="black" stroke-width="0.75" stroke-miterlimit="10"/>
<path d="M129.123 81.7457L128.626 89.7119L128.017 113.047L127.949 118.935" stroke="black" stroke-width="0.75" stroke-miterlimit="10"/>
<path d="M123.455 84.4712L123.402 86.9439L123.3 91.7213L122.499 111.569L122.428 117.088" stroke="black" stroke-width="0.75" stroke-miterlimit="10"/>
<path d="M118.766 86.944C119.2 89.5901 119.283 92.0549 118.612 94.1305" stroke="black" stroke-width="0.75" stroke-miterlimit="10"/>
<path d="M113.605 89.8734V97.2783C123.957 92.7419 134.188 89.4074 144.159 88.6145" stroke="black" stroke-width="0.75" stroke-miterlimit="10"/>
<path d="M107.994 97.0758V93.2793" stroke="black" stroke-width="0.75" stroke-miterlimit="10"/>
<path d="M43.4416 97.6066C61.9361 100.556 81.8237 99.2401 102.567 95.2993V97.5192" stroke="black" stroke-width="0.75" stroke-miterlimit="10"/>
<path d="M64.4729 109.586C89.5736 101.387 113.634 93.7916 113.605 100.176" stroke="black" stroke-width="0.75" stroke-miterlimit="10"/>
<path d="M208.7 137.031C205.507 128.602 199.308 123.061 189.658 120.834C189.231 120.735 188.788 120.703 188.352 120.752C186.56 120.952 185.116 121.317 184.012 121.845C181.691 122.956 181.071 125.972 182.757 127.913C183.419 128.675 183.759 129.662 183.707 130.668L183.39 136.826" stroke="black" stroke-width="0.75" stroke-miterlimit="10"/>
<path d="M149.299 154.641V140.771" stroke="black" stroke-width="0.75" stroke-miterlimit="10"/>
<path d="M143.067 159.202L143.732 142.864" stroke="black" stroke-width="0.75" stroke-miterlimit="10"/>
<path d="M131.993 164.695L132.444 145.784" stroke="black" stroke-width="0.75" stroke-miterlimit="10"/>
<path d="M126.609 166.578V146.504" stroke="black" stroke-width="0.75" stroke-miterlimit="10"/>
<path d="M120.331 167.015L121.152 146.541" stroke="black" stroke-width="0.75" stroke-miterlimit="10"/>
<path d="M114.316 166.644L115.323 146.927" stroke="black" stroke-width="0.75" stroke-miterlimit="10"/>
<path d="M108.605 165.311L109.562 147.777" stroke="black" stroke-width="0.75" stroke-miterlimit="10"/>
<path d="M103.215 162.853L103.705 149.502" stroke="black" stroke-width="0.75" stroke-miterlimit="10"/>
<path d="M229.015 76.2747V90.3565" stroke="black" stroke-width="0.75" stroke-miterlimit="10"/>
<path d="M234.663 78.0048L234.495 88.4689" stroke="black" stroke-width="0.75" stroke-miterlimit="10"/>
<path d="M240.076 80.0579V86.8116" stroke="black" stroke-width="0.75" stroke-miterlimit="10"/>
<path d="M245.765 82.8655V87.8044" stroke="black" stroke-width="0.75" stroke-miterlimit="10"/>
<path d="M294.982 91.5439V101.894C303.694 103.124 313.34 102.534 323.559 100.83C343.018 90.3909 368.539 90.113 398.943 98.0209" stroke="black" stroke-width="0.75" stroke-miterlimit="10"/>
<path d="M400.707 117.591L400.183 107.603" stroke="black" stroke-width="0.75" stroke-miterlimit="10"/>
<path d="M395.291 118.467L394.826 109.147" stroke="black" stroke-width="0.75" stroke-miterlimit="10"/>
<path d="M391.894 118.904C392.973 114.582 375.609 113.857 352.73 114.206" stroke="black" stroke-width="0.75" stroke-miterlimit="10"/>
<path d="M384.626 120.553L383.983 110.58" stroke="black" stroke-width="0.75" stroke-miterlimit="10"/>
<path d="M289.951 103.53C293.354 105.047 295.388 107.202 295.176 110.403C295.017 112.807 293.578 114.947 291.453 116.093C277.103 123.816 260.559 125.536 241.32 119.885C240.522 119.651 239.769 119.277 239.099 118.786C225.353 108.703 211.779 103.746 198.389 104.331C198.086 104.344 197.782 104.339 197.481 104.317C181.14 103.043 172.704 109.244 169.774 120.65" stroke="black" stroke-width="0.75" stroke-miterlimit="10"/>
<path d="M323.558 113.368C322.897 110.28 323.158 105.668 323.558 100.83L343.975 107.842" stroke="black" stroke-width="0.75" stroke-miterlimit="10"/>
<path d="M328.086 98.6312L328.784 116.107C330.38 114.622 332.214 113.229 334.359 111.961C341.375 107.809 351.719 104.969 367.986 104.465C370.182 104.397 372.374 104.22 374.554 103.946C390.676 101.921 404.39 99.5366 401.011 94.6137C400.496 93.8631 399.734 93.3151 398.869 93.0291C389.376 89.8773 375.824 88.1605 360.796 86.9651L374.395 86.8447C369.313 86.0226 364.29 85.4111 359.362 85.153C349.87 84.6552 340.416 86.4529 331.655 90.1315C324.593 93.0967 315.966 94.7765 305.63 95.0545C295.294 95.3324 285.073 94.108 275.113 91.5347L266.04 89.1916" stroke="black" stroke-width="0.75" stroke-miterlimit="10"/>
<path d="M338.993 94.9446L339.594 109.384" stroke="black" stroke-width="0.75" stroke-miterlimit="10"/>
<path d="M395.559 97.1711C375.638 101.246 356.829 103.213 343.975 93.8816L344.004 94.3224L344.864 107.582" stroke="black" stroke-width="0.75" stroke-miterlimit="10"/>
<path d="M351.06 92.9206C359.756 97.0665 371.396 97.7919 385.979 95.0942" stroke="black" stroke-width="0.75" stroke-miterlimit="10"/>
<path d="M350.239 97.3869V106.27" stroke="black" stroke-width="0.75" stroke-miterlimit="10"/>
<path d="M366.313 96.5741V100.413V104.526" stroke="black" stroke-width="0.75" stroke-miterlimit="10"/>
<path d="M371.822 96.6893V100.413V104.237" stroke="black" stroke-width="0.75" stroke-miterlimit="10"/>
<path d="M377.115 96.3464V100.116V103.618" stroke="black" stroke-width="0.75" stroke-miterlimit="10"/>
<path d="M382.899 99.4161V102.81" stroke="black" stroke-width="0.75" stroke-miterlimit="10"/>
<path d="M223.449 74.8649L223.177 80.0579" stroke="black" stroke-width="0.75" stroke-miterlimit="10"/>
<path d="M296.05 110.112L294.982 101.894C280.111 100.089 266.315 98.2579 257.978 94.2761C248.232 89.6219 240.941 92.6863 242.493 95.8619" stroke="black" stroke-width="0.75" stroke-miterlimit="10"/>
<path d="M300.653 102.504L302.57 112.597C327.859 116.605 349.202 121.323 351.061 129.54" stroke="black" stroke-width="0.75" stroke-miterlimit="10"/>
<path d="M345.704 116.145L346.703 129.464" stroke="black" stroke-width="0.75" stroke-miterlimit="10"/>
<path d="M351.06 114.603L352.059 128.741" stroke="black" stroke-width="0.75" stroke-miterlimit="10"/>
<path d="M356.687 114.156L357.508 126.042" stroke="black" stroke-width="0.75" stroke-miterlimit="10"/>
<path d="M367.53 114.166L368.519 123.83" stroke="black" stroke-width="0.75" stroke-miterlimit="10"/>
<path d="M378.907 114.603L379.064 121.871C390.761 118.908 403.83 116.879 417.777 115.445" stroke="black" stroke-width="0.75" stroke-miterlimit="10"/>
<path d="M300.653 89.8919V95.0703" stroke="black" stroke-width="0.75" stroke-miterlimit="10"/>
<path d="M306.427 94.9446L306.025 87.312C313.794 88.0572 320.404 89.6775 325.857 92.1714" stroke="black" stroke-width="0.75" stroke-miterlimit="10"/>
<path d="M311.331 83.4599L311.713 94.7103" stroke="black" stroke-width="0.75" stroke-miterlimit="10"/>
<path d="M317.426 94.0219L316.808 78.4509C325.434 80.8839 332.876 83.865 338.515 87.6799" stroke="black" stroke-width="0.75" stroke-miterlimit="10"/>
<path d="M322.106 74.9284L323.03 92.9206" stroke="black" stroke-width="0.75" stroke-miterlimit="10"/>
<path d="M327.738 72.2611L328.056 91.483" stroke="black" stroke-width="0.75" stroke-miterlimit="10"/>
<path d="M338.039 69.5422L338.993 87.5423" stroke="black" stroke-width="0.75" stroke-miterlimit="10"/>
<path d="M349.182 69.0405L349.751 85.4203" stroke="black" stroke-width="0.75" stroke-miterlimit="10"/>
<path d="M354.856 69.3688V85.0868" stroke="black" stroke-width="0.75" stroke-miterlimit="10"/>
<path d="M360.11 69.9168V85.0868" stroke="black" stroke-width="0.75" stroke-miterlimit="10"/>
<path d="M365.809 70.7971V85.6745" stroke="black" stroke-width="0.75" stroke-miterlimit="10"/>
<path d="M371.064 71.8852V86.2371" stroke="black" stroke-width="0.75" stroke-miterlimit="10"/>
<path d="M376.356 73.2698V86.8685" stroke="black" stroke-width="0.75" stroke-miterlimit="10"/>
<path d="M387.5 77.1973L387.816 87.537" stroke="black" stroke-width="0.75" stroke-miterlimit="10"/>
<path d="M393.123 79.7402L393.327 88.3299" stroke="black" stroke-width="0.75" stroke-miterlimit="10"/>
<path d="M398.9 82.7715V89.6827C402.223 89.0725 405.843 89.1771 409.58 89.5689" stroke="black" stroke-width="0.75" stroke-miterlimit="10"/>
<path d="M404.237 85.9697L404.418 91.8404C407.737 91.4261 411.169 91.4089 414.671 91.6525" stroke="black" stroke-width="0.75" stroke-miterlimit="10"/>
<path d="M119.105 91.4738C126.555 87.9103 134.24 85.611 141.422 85.2416" stroke="black" stroke-width="0.75" stroke-miterlimit="10"/>
<path d="M119.105 89.516C126.43 86.5508 133.767 84.1548 141.126 82.7504" stroke="black" stroke-width="0.75" stroke-miterlimit="10"/>
<path d="M142.106 80.316C135.872 81.3538 129.637 83.5632 123.402 86.944" stroke="black" stroke-width="0.75" stroke-miterlimit="10"/>
<path d="M115.715 98.4684C125.626 95.0849 135.537 92.4414 145.449 90.5379" stroke="black" stroke-width="0.75" stroke-miterlimit="10"/>
<path d="M94.9897 110.162C118.911 103.468 141.524 98.3161 161.872 95.8315" stroke="black" stroke-width="0.75" stroke-miterlimit="10"/>
<path d="M117.205 110.663C120.072 104.043 144.611 101.11 179.665 99C170.748 102.934 163.378 108.538 158.852 118.62C156.298 124.312 152.189 129.195 146.874 132.478C137.565 138.227 124.681 141.131 108.478 141.394C103.623 141.474 98.8706 142.922 94.8955 145.702C90.7757 148.581 88.3079 152.252 87.9085 156.914C87.8594 157.483 87.7625 158.047 87.6445 158.605C86.7621 162.815 88.7192 166.4 93.0857 169.452C95.8243 171.366 98.9516 172.652 102.226 173.324C120.514 177.085 136.47 174.399 150.169 165.474C153.38 163.383 156.326 160.917 159.04 158.214C164.706 152.575 170.697 148.643 177.057 146.656C187.564 144.107 197.083 144.03 205.484 146.753L211.301 146.656L217 145.158L222.429 143.552L228.531 142.158L233.935 140.927L239.581 139.647L245.619 138.356L251.389 137.714L256.439 137.031L262.504 136.59V174.791C263.014 178.457 263.129 181.845 262.504 184.712" stroke="black" stroke-width="0.75" stroke-miterlimit="10"/>
<path d="M122.473 112C125.3 106.635 142.359 102.969 173.645 101" stroke="black" stroke-width="0.75" stroke-miterlimit="10"/>
<path d="M128.493 113C128.967 109.333 144.094 106.386 170.635 104" stroke="black" stroke-width="0.75" stroke-miterlimit="10"/>
<path d="M131.156 114.238C134.282 110.795 146.088 108.485 166.599 107.315" stroke="black" stroke-width="0.75" stroke-miterlimit="10"/>
<path d="M132.405 115.728C133.505 113.385 143.974 111.592 163.812 110.349" stroke="black" stroke-width="0.75" stroke-miterlimit="10"/>
<path d="M132.854 117.227C138.199 114.773 147.183 113.329 161.652 113.407L161.872 95.3007" stroke="black" stroke-width="0.75" stroke-miterlimit="10"/>
<path d="M132.771 118.841C139.147 116.829 148.768 116.18 160.022 116.218" stroke="black" stroke-width="0.75" stroke-miterlimit="10"/>
<path d="M133.096 120.048C140.218 118.909 149.19 118.608 158.852 118.618" stroke="black" stroke-width="0.75" stroke-miterlimit="10"/>
<path d="M131.603 121.831H130.956C140.722 121.668 149.791 121.713 156.886 122.346" stroke="black" stroke-width="0.75" stroke-miterlimit="10"/>
<path d="M128.664 123.476C137.523 123.622 146.17 124.321 154.588 125.621" stroke="black" stroke-width="0.75" stroke-miterlimit="10"/>
<path d="M122.991 125.6C133.984 126.655 144.042 127.729 151.596 128.857" stroke="black" stroke-width="0.75" stroke-miterlimit="10"/>
<path d="M98.2908 130.755L141.419 135.342" stroke="black" stroke-width="0.75" stroke-miterlimit="10"/>
<path d="M129.247 139.218C113.792 136.551 98.8813 134.066 89.701 133.501" stroke="black" stroke-width="0.75" stroke-miterlimit="10"/>
<path d="M92.5683 146.746C87.3353 145.085 82.1687 144.044 77.0923 143.826" stroke="black" stroke-width="0.75" stroke-miterlimit="10"/>
<path d="M90.2185 150.315C84.744 148.775 79.5124 147.564 75.2082 147.595" stroke="black" stroke-width="0.75" stroke-miterlimit="10"/>
<path d="M88.5467 153.733C83.8697 152.233 79.3426 151.247 75.0278 150.993" stroke="black" stroke-width="0.75" stroke-miterlimit="10"/>
<path d="M86.2924 157.029C81.1205 155.459 76.0109 154.307 70.9876 153.733" stroke="black" stroke-width="0.75" stroke-miterlimit="10"/>
<path d="M86.0456 160.103C80.4054 157.977 74.8792 156.814 69.5427 157.249" stroke="black" stroke-width="0.75" stroke-miterlimit="10"/>
<path d="M88.0306 163.649C81.9962 161.571 75.5094 160.388 68.5715 160.103" stroke="black" stroke-width="0.75" stroke-miterlimit="10"/>
<path d="M85.5627 165.666C79.9277 163.4 74.0565 162.23 67.8762 162.489" stroke="black" stroke-width="0.75" stroke-miterlimit="10"/>
<path d="M91.5042 169.502C81.1404 166.618 71.0327 163.869 69.4764 165.666" stroke="black" stroke-width="0.75" stroke-miterlimit="10"/>
<path d="M91.3158 170.817C81.6592 168.471 72.2056 166.23 70.9399 168.183" stroke="black" stroke-width="0.75" stroke-miterlimit="10"/>
<path d="M72.5294 170.549C74.9853 169.34 82.986 170.888 91.0769 172.481L113.677 175.165" stroke="black" stroke-width="0.75" stroke-miterlimit="10"/>
<path d="M75.4099 173.005C78.9007 171.587 84.3951 172.216 90.8607 173.84" stroke="black" stroke-width="0.75" stroke-miterlimit="10"/>
<path d="M80.9387 139.742C80.9825 150.189 80.2315 162.166 78.9525 175.165C81.216 173.893 85.6224 174.214 90.6935 175.165" stroke="black" stroke-width="0.75" stroke-miterlimit="10"/>
<path d="M117.456 179.672C123.676 177.734 129.875 176.467 136.049 176" stroke="black" stroke-width="0.75" stroke-miterlimit="10"/>
<path d="M101.641 179.115C109.964 177.101 122.834 175.549 136.43 174.073C156.124 163.763 178.294 151.298 182.719 154.264" stroke="black" stroke-width="0.75" stroke-miterlimit="10"/>
<path d="M99.8273 160.103C111.652 162.649 124.4 163.224 137.947 162.088V144.541" stroke="black" stroke-width="0.75" stroke-miterlimit="10"/>
<path d="M97.8702 156.178C113.098 159.209 128.188 160.248 143.092 158.596" stroke="black" stroke-width="0.75" stroke-miterlimit="10"/>
<path d="M103.564 153.352C120.069 156.211 135.627 157.018 149.299 153.733" stroke="black" stroke-width="0.75" stroke-miterlimit="10"/>
<path d="M109.436 150.087C124.781 152.675 140.011 152.614 155.089 149.048V137.871" stroke="black" stroke-width="0.75" stroke-miterlimit="10"/>
<path d="M132.387 148.156C141.873 148.076 151.263 146.972 160.552 144.784L160.951 133.701" stroke="black" stroke-width="0.75" stroke-miterlimit="10"/>
<path d="M149.299 142.864L166.395 141.532L166.804 126.925" stroke="black" stroke-width="0.75" stroke-miterlimit="10"/>
<path d="M155.089 139.218L172.103 139.3L172.46 119.011" stroke="black" stroke-width="0.75" stroke-miterlimit="10"/>
<path d="M158.852 135.342L177.941 137.501" stroke="black" stroke-width="0.75" stroke-miterlimit="10"/>
<path d="M161.771 132.967L183.391 135.734" stroke="black" stroke-width="0.75" stroke-miterlimit="10"/>
<path d="M164.247 130.393L183.552 133.702" stroke="black" stroke-width="0.75" stroke-miterlimit="10"/>
<path d="M166.966 126.664L183.637 132.047" stroke="black" stroke-width="0.75" stroke-miterlimit="10"/>
<path d="M168.859 123.02C173.075 123.004 176.292 124.18 177.941 127.228L183.707 130.667" stroke="black" stroke-width="0.75" stroke-miterlimit="10"/>
<path d="M172.46 118.764C178.072 118.764 186.216 116.749 194.987 114.238L195.073 112.08V107.161" stroke="black" stroke-width="0.75" stroke-miterlimit="10"/>
<path d="M194.81 122.469L194.987 114.238C203.05 112.933 210.615 112.071 217.156 112.121" stroke="black" stroke-width="0.75" stroke-miterlimit="10"/>
<path d="M205.638 131.117V129.148" stroke="black" stroke-width="0.75" stroke-miterlimit="10"/>
<path d="M312.786 117.154C328.316 120.395 342.347 123.696 346.547 127.398" stroke="black" stroke-width="0.75" stroke-miterlimit="10"/>
<path d="M312.786 116.145C327.391 118.686 341.049 121.325 346.204 124.866" stroke="black" stroke-width="0.75" stroke-miterlimit="10"/>
<path d="M302.346 111.414C310.957 112.34 320.053 114.193 329.532 116.78" stroke="black" stroke-width="0.75" stroke-miterlimit="10"/>
<path d="M296.05 109.727C307.733 110.334 318.805 112.144 328.784 116.107" stroke="black" stroke-width="0.75" stroke-miterlimit="10"/>
<path d="M295.704 107.446C305.068 108.128 313.487 109.218 318.1 111.961" stroke="black" stroke-width="0.75" stroke-miterlimit="10"/>
<path d="M295.551 106.27C311.25 107.278 325.801 108.511 334.296 110.937" stroke="black" stroke-width="0.75" stroke-miterlimit="10"/>
<path d="M295.551 104.237C313.368 105.068 329.998 106.248 338.831 109.703" stroke="black" stroke-width="0.75" stroke-miterlimit="10"/>
<path d="M339.546 108.228C330.675 105.978 322.479 103.79 317.519 101.895C317.337 105.722 317.372 109.277 318.1 111.961" stroke="black" stroke-width="0.75" stroke-miterlimit="10"/>
<path d="M344.821 106.928L328.159 100.463" stroke="black" stroke-width="0.75" stroke-miterlimit="10"/>
<path d="M348.905 106.574L333.656 100.549" stroke="black" stroke-width="0.75" stroke-miterlimit="10"/>
<path d="M350.239 105.647L333.501 98.0196" stroke="black" stroke-width="0.75" stroke-miterlimit="10"/>
<path d="M354.147 105.374L339.262 98.0196" stroke="black" stroke-width="0.75" stroke-miterlimit="10"/>
<path d="M344.379 97.3869L361.036 104.847V100.14V95.9784" stroke="black" stroke-width="0.75" stroke-miterlimit="10"/>
<path d="M315.938 110.58L334.358 111.961L333.412 96.5741" stroke="black" stroke-width="0.75" stroke-miterlimit="10"/>
<path d="M341.929 138.358L345.704 140.359L346.007 141.463L341.929 149.494L341.281 121.671C353.518 119.002 363.217 118.22 362.934 124.866L361.948 114.155C397.39 105.68 485.975 109.265 516.406 119.795" stroke="black" stroke-width="0.75" stroke-miterlimit="10"/>
<path d="M245.321 157.581C257.453 149.269 278.869 148.537 309.569 155.383C310.211 155.526 310.845 155.705 311.469 155.913L319.602 158.632L320.225 158.83C323.105 159.749 326.226 159.566 328.979 158.318L330.604 157.581C330.864 162.415 330.604 171.5 330.604 175.269L363.45 175.269C363.706 170.323 366.907 159.036 369.926 148.14L366.938 149.92L342.156 149.048" stroke="black" stroke-width="0.75" stroke-miterlimit="10"/>
<path d="M245.618 161.917C264.963 170.727 285.946 170.306 308.278 162.284" stroke="black" stroke-width="0.75" stroke-miterlimit="10"/>
<path d="M330.717 147.622C334.894 147.121 338.771 147.032 341.783 148.139" stroke="black" stroke-width="0.75" stroke-miterlimit="10"/>
<path d="M332.461 145.491C336.294 145.219 339.804 145.2 341.781 146.39" stroke="black" stroke-width="0.75" stroke-miterlimit="10"/>
<path d="M335.036 143.33C339.308 142.7 343.033 142.41 344.821 143.33" stroke="black" stroke-width="0.75" stroke-miterlimit="10"/>
<path d="M330.717 147.622L330.604 157.581" stroke="black" stroke-width="0.75" stroke-miterlimit="10"/>
<path d="M319.886 157.152C323.843 156.768 327.039 157.02 328.98 158.318" stroke="black" stroke-width="0.75" stroke-miterlimit="10"/>
<path d="M319.886 155.385C324.063 154.888 327.75 154.88 330.606 155.706" stroke="black" stroke-width="0.75" stroke-miterlimit="10"/>
<path d="M336.25 147.319L336.484 154.012C330.562 153.849 324.124 153.41 319.778 152.083C313.504 149.488 302.991 147.911 291.378 147.509C254.937 145.285 239.338 149.236 234.645 156.42C234.206 157.091 234.218 157.967 234.678 158.625C237.63 162.851 242.326 166.123 248.766 168.443L253.561 171.124C266.28 177.852 279.94 178.43 294.611 172.378C293.577 168.516 307.803 165.415 320.01 162.214C320.613 162.056 321.211 161.898 321.802 161.739L330.604 157.58C335.167 155.132 339.01 152.458 341.929 149.494" stroke="black" stroke-width="0.75" stroke-miterlimit="10"/>
<path d="M330.717 149.727C334.476 149.469 338.175 149.506 340.867 150.521" stroke="black" stroke-width="0.75" stroke-miterlimit="10"/>
<path d="M90.241 178.314C98.9383 176.065 106.774 174.991 112.865 176.297" stroke="black" stroke-width="0.75" stroke-miterlimit="10"/>
<path d="M155.236 161.703C172.494 154.604 193.982 144.002 194.47 150.786" stroke="black" stroke-width="0.75" stroke-miterlimit="10"/>
<path d="M288.85 93.8803C298.399 91.9344 307.287 91.9265 315.358 94.3158" stroke="black" stroke-width="0.75" stroke-miterlimit="10"/>
<path d="M300.653 90.3565C309.298 90.2612 316.886 90.7709 320.842 93.3601" stroke="black" stroke-width="0.75" stroke-miterlimit="10"/>
<path d="M310.219 84.3971C318.24 85.7897 325.033 87.8057 329.666 90.9151" stroke="black" stroke-width="0.75" stroke-miterlimit="10"/>
<path d="M313.487 81.4108C321.042 82.5611 327.765 85.0947 333.411 89.422L332.966 70.5774" stroke="black" stroke-width="0.75" stroke-miterlimit="10"/>
<path d="M322.158 75.9292C330.797 79.4596 338.596 82.9251 344.381 86.2371L343.773 68.965" stroke="black" stroke-width="0.75" stroke-miterlimit="10"/>
<path d="M327.773 74.3195L354.147 85.0709" stroke="black" stroke-width="0.75" stroke-miterlimit="10"/>
<path d="M333.007 72.2611C343.845 76.137 354.502 79.9202 360.11 81.1235C369.009 83.1766 383.524 83.4546 398.898 83.4599" stroke="black" stroke-width="0.75" stroke-miterlimit="10"/>
<path d="M338.039 70.5774C349.615 74.0283 361.245 77.5746 371.064 77.8605L390.58 78.5409" stroke="black" stroke-width="0.75" stroke-miterlimit="10"/>
<path d="M349.182 69.9168L382.237 75.1654V87.0829C390.907 86.2463 398.958 85.7645 404.237 86.8685" stroke="black" stroke-width="0.75" stroke-miterlimit="10"/>
<path d="M408.617 94.2523C412.732 93.1496 417.037 92.9603 421.49 93.4885L422.603 115.314" stroke="black" stroke-width="0.75" stroke-miterlimit="10"/>
<path d="M409.611 96.8865C415.717 94.9975 421.518 94.0286 426.857 94.4482" stroke="black" stroke-width="0.75" stroke-miterlimit="10"/>
<path d="M409.368 98.8972C418.315 96.6747 426.751 95.3205 434.221 95.6157" stroke="black" stroke-width="0.75" stroke-miterlimit="10"/>
<path d="M408.881 100.556C420.65 97.5523 432.224 96.3517 443.609 96.8865L445.427 115.739" stroke="black" stroke-width="0.75" stroke-miterlimit="10"/>
<path d="M407.407 102.99C419.254 100.291 432.334 98.0898 455.052 99.7828C472.21 100.662 488.59 102.569 504.186 105.512C517.749 107.157 530.621 107.501 542.448 105.872C554.454 103.088 566.575 99.207 578.772 94.5753" stroke="black" stroke-width="0.75" stroke-miterlimit="10"/>
<path d="M406.679 116.744L405.479 104.813C422.861 100.422 441.448 99.9734 460.689 102.083C478.822 103.571 498.121 108.594 518.749 110.19C521.091 110.371 525.592 110.588 526.466 110.588C531.807 110.588 530.817 110.674 537.7 110.019C541.535 109.654 545.327 108.923 549.018 107.826C559.156 104.813 570.827 100.179 582.856 95.1643" stroke="black" stroke-width="0.75" stroke-miterlimit="10"/>
<path d="M405.625 106.27C428.712 102.466 450.897 101.727 471.824 105.284C492.698 108.827 512.507 112.049 525.871 113.331C526.501 113.392 527.132 113.429 527.767 113.444C548.481 113.944 567.905 105.291 587.325 96.3252C587.408 96.2868 587.506 96.3279 587.537 96.4139L591.106 106.27" stroke="black" stroke-width="0.75" stroke-miterlimit="10"/>
<path d="M400.183 108.416C425.798 105.415 449.307 103.933 466.729 106.834C484.94 109.063 505.4 112.647 527.043 116.941C550.873 115.932 571.116 109.545 588.397 98.7146" stroke="black" stroke-width="0.75" stroke-miterlimit="10"/>
<path d="M344.821 122.805C353.317 120.74 358.921 120.863 358.129 125.829" stroke="black" stroke-width="0.75" stroke-miterlimit="10"/>
</g>
<defs>
<clipPath id="clip0_23_364">
<rect width="595" height="236" fill="white" transform="translate(0.0613403)"/>
</clipPath>
</defs>
</svg>
