<svg width="595" height="232" viewBox="0 0 595 232" fill="none" xmlns="http://www.w3.org/2000/svg">
<g clip-path="url(#clip0_46_8294)">
<path d="M592.534 35.1045C597.064 39.8638 590.862 49.1905 587.846 53.2783C580.784 62.8511 570.127 68.4655 565.209 79.8611C561.893 87.5485 561.659 95.3361 560.963 103.562L561.401 151.342C557.171 151.926 552.933 151.609 548.679 151.764C542.059 152.001 534.868 152.802 528.215 152.197C527.272 152.11 526.421 152.118 525.746 151.33C524.382 149.741 525.879 142.312 525.958 139.888C526.392 126.282 527.689 101.267 519.864 90.0554C507.042 71.6772 464.33 62.6008 443.14 61.6665C424.841 60.8614 390.854 65.5373 373.59 71.7774C368.676 73.5543 363.608 75.3145 362.899 81.1082C361.998 88.487 362.428 96.5415 362.011 103.995C361.594 111.449 360.822 118.749 360.351 126.111C360.217 128.201 360.409 137.014 359.542 138.232C358.465 139.751 350.978 139.342 348.859 139.263C344.042 139.083 337.376 138.666 332.663 137.94C330.59 137.623 328.671 137.778 328.254 135.258C326.339 123.6 332.308 120.25 337.668 112.188C338.231 111.341 339.403 109.827 339.282 108.796C329.372 118.002 315.552 122.495 304.486 129.894C299.535 133.206 297.241 135.121 297.341 141.557C297.425 146.946 298.467 152.831 299.056 158.212C299.006 159.618 298.363 160.51 296.974 160.752L251.162 160.623C248.276 159.301 251.438 151.672 251.838 148.986C252.601 143.872 253.21 138.495 249.39 134.449C243.804 128.534 216.896 117.406 208.416 114.941C189.191 109.351 168.978 116.851 157.044 132.614C150.892 140.739 150.9 145.774 151.793 155.718C153.424 173.875 157.607 195.002 161.92 212.746C162.4 214.715 164.915 221.601 164.41 222.969C163.134 226.436 153.799 228.692 150.462 229.472C144.514 230.861 128.096 233.598 123.041 230.77C121.848 230.102 117.927 225.476 116.763 224.117C113.723 219 113.526 219 113.723 212.5C113.777 211.991 113.723 212 113.723 206C113.723 202.5 113.723 200.5 113.723 192.737C113.723 188 114.035 176.273 113.41 171.164C112.963 167.526 112.909 163.852 108.517 163.126C106.173 162.738 103.386 162.884 100.813 162.488C87.9698 160.515 72.7868 152.31 70.9181 138.157C68.9159 122.974 76.5366 103.286 88.1909 93.3798C92.4663 89.7467 101.522 85.8509 104.463 82.5431C107.549 79.0727 102.857 76.7911 99.7492 76.374C88.7081 74.889 70.9222 82.0509 63.7896 90.6685C54.4879 101.91 55.7392 119.162 51.2385 132.343C47.7097 142.675 35.4048 144.172 26.1448 141.219C23.3335 140.322 15.4041 136.956 15.3791 133.632C23.4252 107.566 30.1533 78.8391 16.2967 53.4618C13.8441 48.9694 -0.0333707 30.0157 -1.43351e-06 27.2377C0.0417102 23.7631 10.1109 22.2281 12.6845 22.0363C34.7082 20.3928 58.5548 32.6227 83.1896 31.2253C105.827 29.9406 112.55 17.6691 131.066 9.02641C157.182 -3.1659 204.274 -3.0783 230.223 9.70631C236.964 13.0266 242.14 18.4783 248.693 22.103C261.836 29.3692 285.516 35.4757 300.186 31.7426C312.637 28.5766 318.731 18.8245 328.508 12.0964C353.189 -4.88024 382.625 0.625688 406.605 15.6002C417.917 22.6661 423.315 29.803 437.163 33.4277C461.051 39.6803 490.032 40.9024 514.396 37.3945C535.06 34.4163 554.86 27.1751 576.079 30.0783C579.383 30.5287 590.436 32.9021 592.534 35.1045ZM189.659 16.3134C183.531 16.6471 171.852 18.057 177.717 26.758C183.01 34.6123 196.541 33.3777 204.604 35.3256C212.667 37.2735 220.433 41.7075 224.579 49.1363C228.542 56.2356 229.118 59.3682 236.33 64.4987C249.189 73.6502 275.451 73.9881 289.024 66.4591C294.647 63.3391 292.878 58.8718 287.856 56.3524C279.493 52.1604 266.083 51.7433 256.489 48.0935C244.764 43.6304 240.601 36.969 231.412 29.7904C219.824 20.739 204.5 15.5042 189.659 16.3134ZM133.331 18.3865C126.795 19.325 124.918 25.223 128.497 30.5121C136.585 42.4499 158.934 47.3135 172.436 48.7234C181.279 49.6452 190.543 48.9903 199.102 51.6724C219.032 57.9249 208.858 72.9286 218.727 84.6037C226.636 93.9596 251.062 99.5781 263.008 101.222C282.167 103.862 322.393 104.246 336.141 88.5454C342.29 81.5254 345.347 73.8546 337.601 66.6719C336.008 65.1911 328.187 60.2691 327.891 59.2722C326.881 55.8769 331.958 53.5077 334.473 52.2605C341.923 48.569 352.655 45.8202 360.951 45.3697C372.209 44.7566 396.652 48.373 405.529 41.9786C411.118 37.9534 408.987 33.3693 403.743 30.5621C391.547 24.0342 359.642 28.585 346.165 32.2473C321.363 38.9879 311.557 44.0892 284.352 39.4133C278.429 38.3956 263.851 33.8949 258.971 35.5675C254.045 37.2568 259.976 40.819 262.107 41.6407C274.129 46.2832 289.036 45.7368 301.446 49.8537C313.434 53.8372 314.91 63.0096 304.007 69.7502C287.481 79.9653 248.238 85.5422 231.036 76.0486C217.113 68.3654 220.959 50.8673 203.624 44.231C188.486 38.4373 175.205 42.7002 159.664 32.7144C152.302 27.9843 142.566 17.0559 133.34 18.3782L133.331 18.3865ZM110.406 42.5917C102.744 43.3592 91.899 47.8599 83.8028 49.7745C77.4793 51.2678 57.3618 53.9748 53.3742 56.8863C50.1207 59.2639 50.7005 62.1795 53.5661 64.5654C62.3255 71.8483 89.5632 66.7595 101.518 67.5019C106.202 67.7939 109.326 69.258 114.161 68.04C121.498 66.188 128.055 59.5141 128.801 51.81C129.585 43.7346 116.284 42.0078 110.402 42.5917H110.406ZM182.968 61.3495C169.416 62.9595 166.763 82.8393 158.471 92.3245C146.85 105.618 137.444 100.988 123.429 106.502C113.443 110.432 105.489 118.932 112.233 129.777C119.5 141.461 134.453 133.264 142.199 126.52C155.246 115.157 168.815 96.4122 186.73 93.0503C192.053 92.0492 195.79 93.6801 197.796 87.0146C200.574 77.7797 194.973 59.9187 182.968 61.3453V61.3495ZM268.894 118.494C265.202 119.028 261.332 121.539 263.054 125.786C265.215 131.112 282.208 131.091 284.106 125.364C286.621 117.76 273.516 117.827 268.898 118.494H268.894Z" fill="black"/>
</g>
<defs>
<clipPath id="clip0_46_8294">
<rect width="594.136" height="232" fill="white"/>
</clipPath>
</defs>
</svg>
