<svg width="596" height="222" viewBox="0 0 596 222" fill="none" xmlns="http://www.w3.org/2000/svg">
<g clip-path="url(#clip0_38_8100)">
<path d="M470.096 41.5145C471.387 41.498 472.711 41.4528 474.007 41.5145C474.439 41.535 474.76 41.9299 474.825 41.9299H481.817C484.416 41.9299 487.489 42.3041 490.248 42.3411C490.491 43.5092 489.582 43.2665 488.821 43.1514C483.841 42.3987 478.613 42.773 473.571 42.3576C472.855 42.3 472.267 41.971 471.547 41.9134C470.412 41.8229 469.183 42.0121 468.035 41.9299C468.002 41.1854 469.565 41.5268 470.092 41.5186L470.096 41.5145Z" fill="black"/>
<path d="M145.597 8.20093L145.72 9.08929C137.342 13.3131 130.022 20.5969 137.972 29.3612C148.871 41.3747 169.689 43.4064 184.89 44.8582C198.438 46.5074 212.393 51.2824 219.726 63.6125C223.703 71.5173 226.865 77.3492 235.116 81.4661C247.882 87.8368 269.898 89.083 282.417 81.6882C287.492 78.69 291.004 74.2441 289.758 68.0625L290.367 67.0097L291.062 66.4627C304.001 71.0196 318.889 71.3857 331.7 66.0061C333.127 64.9039 333.707 64.8381 333.851 66.8205C330.323 71.7764 327.427 77.1641 324.713 82.8439C323.656 85.1841 322.216 86.8991 320.39 87.9849C320.411 88.2892 320.411 88.5853 320.361 88.8773C320.102 90.3415 316.207 93.3726 314.772 94.4625C296.158 108.569 269.577 107.064 248.223 100.739C232.002 95.9308 215.629 87.5242 208.712 71.3075C204.981 64.6942 198.66 60.0714 191.162 58.78C173.416 55.716 162.998 69.7035 153.806 82.4532C145.074 95.0835 131.124 98.7316 117.107 102.281C107.833 104.901 97.8144 110.21 94.5036 119.814C91.7563 127.78 96.0171 134.27 103.811 136.767C119.415 141.772 134.065 130.009 145.379 120.686C151.091 115.981 157.405 110.622 162.796 105.575C172.392 96.5929 176.932 87.1459 181.197 75.2352C186.737 60.5032 204.747 64.6284 203.019 80.7464C201.165 87.5942 200.688 94.8902 206.532 99.9243C206.795 100.714 206.433 101.047 205.643 100.735L204.06 100.915C180.987 91.5178 160.88 111.633 148.299 128.841C143.581 134.41 137.832 138.65 130.926 141.003L131.202 141.455C130.507 143.17 129.039 144.503 126.805 145.457C122.771 147.694 118.855 150.014 115.154 152.765C114.027 153.604 109.491 159.185 110.642 160.024C111.016 160.296 118.765 160.111 119.863 160.004C139.012 158.165 152.646 145.568 165.124 131.897C176.443 121.29 185.857 116.203 201.646 118.012C205.656 118.473 219.479 121.409 221.951 123.778C222.362 124.173 221.897 124.971 221.276 124.593C212.664 121.903 201.115 120.513 192.265 121.286C180.502 122.31 161.423 137.022 160.407 149.27C157.75 160.271 154.546 171.158 150.795 181.929C143.121 199.964 127.599 197.471 119.596 181.242C117.28 176.788 114.718 172.507 111.905 168.394C111.847 169.262 111.411 169.418 110.642 169.011C110.486 165.84 109.639 163.849 106.813 162.352C102.524 160.078 97.1194 160.177 92.4308 159.05C78.8627 155.788 68.5478 146.983 66.2241 132.818C66.3681 131.79 66.3681 130.762 66.2241 129.734C65.7511 126.974 65.7594 123.519 66.2241 120.686C66.3557 119.563 66.3557 118.395 66.2241 117.19C67.7047 107.06 73.2487 96.4983 81.0178 89.8274C81.7581 89.194 85.3239 86.5043 85.9655 86.3439L87.7545 85.0154C98.0571 82.301 108.249 79.3233 118.325 76.0866C120.99 75.1653 125.181 72.5989 125.469 69.5431L126.267 69.0702L126.657 68.0584C135.878 64.9697 144.453 55.3335 132.905 48.7941C124.782 44.2207 117.013 39.5691 120.406 28.7978C122.713 21.4729 130.684 15.3695 137.108 11.7379L136.964 11.0799C139.798 9.99822 142.755 9.22501 145.601 8.20093H145.597Z" fill="black"/>
<path d="M547.321 75.3915L548.712 74.573C548.777 74.5319 548.855 74.5072 548.93 74.499C563.115 72.821 577.127 67.3757 587.413 57.361C588.203 57.0978 588.536 57.4639 588.223 58.2494C582.395 65.8868 574.861 72.784 570.575 81.2111C570.55 81.2604 570.522 81.3016 570.485 81.3386C563.711 88.4743 555.411 97.6869 549.542 106.78C538.512 123.869 538.166 142.183 539.651 161.76C539.663 161.945 539.589 162.13 539.441 162.249L539.022 162.595C538.923 162.677 538.8 162.722 538.668 162.722C535.797 162.776 533.001 162.912 530.278 163.125C530.245 163.125 530.212 163.125 530.179 163.125C529.126 163.027 528.382 162.846 527.675 162.056C527.592 161.962 527.543 161.838 527.531 161.715C526.996 154.789 527.613 147.678 527.366 140.698C527.259 137.61 526.7 133.97 526.511 130.861C525.289 110.766 525.289 98.0612 506.514 86.6975C493.946 79.0889 475.504 74.4538 461.134 71.8257L461.031 71.5501C454.126 70.6577 447.204 69.794 440.261 68.9591C440.196 68.9509 440.126 68.9591 440.06 68.9714C438.44 69.3827 436.692 69.4321 434.824 69.1236C434.8 69.1236 434.775 69.1154 434.75 69.1154C429.811 69.0167 428.869 69.0989 431.933 69.3539C431.579 70.0654 430.35 69.757 429.671 69.7652C412.274 69.9256 394.988 72.2987 379.002 79.5536C375.51 81.137 372.261 83.1811 368.872 84.9414C368.74 85.0113 368.637 85.1264 368.588 85.2704C368.09 86.7716 367.79 88.3344 367.749 89.9096C367.732 90.5718 366.778 90.6664 366.614 90.0248C366.503 89.5929 366.49 89.0871 366.527 88.5935C366.564 88.1 366.03 87.8121 365.631 88.0753C357.315 93.6111 353.519 101.944 351.421 111.444C351.421 111.457 351.413 111.473 351.413 111.485C348.332 122.285 336.8 125.226 326.827 126.678C326.716 126.694 326.601 126.678 326.498 126.629L325.581 126.193C325.469 126.139 325.342 126.123 325.223 126.147C320.082 127.196 314.636 127.978 309.857 130.186C309.808 130.211 309.75 130.227 309.697 130.231L308.089 130.437C308.039 130.445 307.99 130.458 307.945 130.474C291 137.548 274.718 138.757 256.819 133.003C251.797 131.387 246.031 129.248 242.112 125.868C241.996 125.769 241.844 125.716 241.696 125.732C241.005 125.802 240.66 125.493 240.845 124.934C240.939 124.654 240.828 124.346 240.557 124.227L239.812 123.898C239.738 123.865 239.677 123.82 239.623 123.762C236.588 120.422 233.088 117.564 229.214 115.248C229.123 115.195 229.049 115.117 229.004 115.026L228.346 113.768C227.98 113.028 228.194 112.555 229.004 112.629C248.458 120.994 269.585 121.368 290.766 120.628C291.695 120.595 292.608 120.83 293.497 121.097C293.653 121.142 293.822 121.126 293.961 121.039L294.381 120.788C294.447 120.751 294.517 120.727 294.591 120.714C302.203 119.546 309.787 118.296 317.009 115.824C325.733 112.838 332.761 109.404 339.934 103.79C348.337 97.2139 353.737 89.7698 356.858 79.932C356.867 79.9073 356.879 79.8785 356.891 79.8539C363.472 66.1542 381.601 61.297 395.856 58.7059C425.924 53.2441 456.556 56.7318 485.811 65.0149C503.993 70.1189 521.855 74.7046 540.827 75.0625C540.86 75.0625 540.893 75.0625 540.922 75.0542C543.048 74.7129 545.022 74.8404 546.844 75.4367C547.001 75.4861 547.169 75.4737 547.313 75.3874L547.321 75.3915Z" fill="black"/>
<path d="M419.097 25.8859C431.411 36.0938 449.873 38.9728 465.354 40.7042L470.096 41.5145C476.623 42.189 483.096 42.5632 489.52 42.6414L490.248 42.337C497.47 42.4357 504.729 42.3494 511.828 41.5021C535.378 38.689 559.137 30.3853 582.901 35.847C587.577 36.9205 596.938 39.4992 595.865 45.7506C595.235 49.411 590.44 54.9427 588.133 57.9656C587.964 57.143 587.1 58.3933 586.899 58.5825C576.226 68.6095 561.486 73.8533 547.005 75.2393L545.36 74.3715C541.214 74.9021 536.077 75.2516 532.4 73.1418C530.237 74.2563 528.444 74.7869 526.178 73.5613C524.265 74.0713 521.95 73.4544 520.358 72.2904C519.667 72.7182 519.165 72.8333 518.367 72.6853C512.005 71.5049 505.86 70.0078 499.86 67.935C497.771 68.1242 496.043 67.5731 494.682 66.2817L493.481 66.9068C484.856 64.6077 476.146 62.3786 467.34 60.2235L467.097 59.5778C465.641 59.9192 458.021 58.854 457.441 58.1219C457.445 57.4268 457.305 56.8551 457.013 56.4069C455.055 57.2376 452.756 56.193 453.616 53.8981L452.11 54.4451C451.025 56.3575 449.38 55.757 449.26 53.7171C447.603 53.8405 445.921 53.7541 444.222 53.4539C443.445 55.502 441.849 54.6137 440.665 53.4374C439.184 54.8933 438.518 55.391 436.642 54.2189C435.408 54.9304 434.376 54.9386 433.541 54.2518C431.477 56.9703 427.549 51.9404 427.812 49.8922C428.001 48.4322 430.337 47.3382 431.736 47.6877C429.7 45.072 432.739 43.3282 434.059 46.1249C434.631 44.5538 435.754 44.5086 437.185 44.5209C436.675 42.9169 437.202 41.1196 439.044 41.9874C441.129 45.5121 441.351 43.0773 440.899 40.3793C441.467 39.0838 442.425 39.4293 443.498 40.0051L444.428 38.8617C438.945 37.5415 433.586 35.8676 428.388 33.3794C426.607 34.823 425.32 33.6714 424.045 32.1414C422.959 33.5439 421.314 34.1197 419.652 33.404C417.917 33.5973 417.382 39.1496 417.921 40.6467C418.291 42.3617 415.157 45.3599 413.779 46.0838C412.78 46.6102 408.071 48.2594 409.222 46.0467L409.181 45.4833C414.17 43.1884 418.525 40.951 412.788 35.8511L412.924 34.9381L412.545 34.2307C410.9 32.8283 409.683 31.0145 412.755 29.8136C411.595 28.8388 415.342 23.6238 415.708 23.6033C416.934 24.6315 418.065 25.3964 419.093 25.89L419.097 25.8859Z" fill="black"/>
<path d="M35.3741 52.619C38.4957 52.1296 41.2389 52.5408 43.5997 53.8528C48.9751 54.2518 56.0614 55.8557 56.4274 62.5925C56.6248 66.2529 54.5602 69.5266 52.1378 72.0725C42.4111 81.0178 36.5503 89.0459 33.7166 102.322C32.7748 106.743 31.1749 115.314 31.4052 119.575C31.4505 120.439 34.9957 103.659 34.9751 102.696C37.1878 84.2792 51.6648 74.207 67.8486 67.8898C82.7369 62.0825 104.432 59.5161 119.921 63.6618C122.314 64.3034 127.76 66.1665 126.267 69.066C126.686 73.0061 121.113 75.8398 118.045 77.0901C111.3 79.8415 103.955 81.1699 96.9631 83.1523C93.2533 84.2052 89.6588 85.402 85.9614 86.3397C87.4954 83.543 83.5389 82.1693 81.4496 81.5977C74.8897 79.8086 61.4533 79.8621 56.1395 84.6905C55.3375 85.4184 55.2676 85.9696 54.7042 86.751C50.6819 93.2286 47.3341 100.348 46.2359 108.273L43.9575 123.277C42.9375 135.097 34.786 151.556 20.9793 148.85C18.3883 147.814 14.7608 145.687 14.7772 142.475C14.7772 141.829 15.1556 141.352 15.2091 140.818C17.4999 118.855 27.2143 95.8074 20.7819 73.9849C17.2531 62.0044 9.99818 50.6613 3.29023 40.2724C2.81726 39.0057 3.14628 38.7219 4.5364 38.9522C13.1362 45.216 23.0892 49.0738 33.6097 51.381L35.37 52.6107L35.3741 52.619Z" fill="black"/>
<path d="M419.097 25.8859C418.711 26.9141 418.015 25.7666 417.658 25.4746C417.07 24.9893 416.691 24.1009 415.807 24.2407C416.156 25.6843 413.681 27.2307 413.376 28.2014C413.121 29.028 413.94 30.229 413.75 30.4099C413.331 30.8089 410.596 30.7472 412.093 32.6843C412.504 33.2148 414.158 34.1155 412.928 34.934C411.929 35.2342 410.851 34.9833 409.695 34.1814C396.892 30.7677 382.193 29.4352 368.757 28.6743C362.271 28.3083 356.373 28.3494 349.895 28.8306C349.558 28.8553 349.204 28.6579 348.847 28.3988C345.54 29.0239 342.225 29.5586 338.902 29.9986L337.75 31.1831C330.685 33.8976 323.882 37.2001 317.334 41.0908C311.067 44.4345 304.359 46.3017 297.293 46.3593L296.129 45.6272C294.907 45.7136 293.764 45.8987 292.699 46.1866L292.016 45.6272C291.555 46.0755 291.013 46.2894 290.383 46.2442C286.382 45.9439 282.047 45.3147 278.444 43.5708L277.358 44.0932C266.467 40.2107 254.849 35.0039 250.119 23.7102C248.737 22.3448 248.445 21.2878 249.243 20.5392C258.053 25.5075 267.331 29.8136 277.198 32.273C285.51 34.3417 296.524 36.0938 304.881 34.021C316.578 31.1173 322.903 19.0833 332.342 12.1286C352.906 -3.01881 381.111 0.415373 402.379 12.3795C409.432 16.3483 413.187 20.9834 419.101 25.8859H419.097Z" fill="black"/>
<path d="M136.96 11.0798L139.428 11.4911C138.313 11.7708 136.943 12.5604 135.989 13.1938C128.15 18.3883 117.844 26.6879 121.113 37.414C123.289 44.5456 133.867 46.4663 137.976 52.22C138.794 53.3675 139.563 55.1031 139.415 56.5097C138.745 62.9462 131.831 67.1741 126.267 69.0701C126.094 67.4415 124.128 66.0884 122.684 65.455C119.843 64.2047 115.964 63.6783 112.912 63.2999C93.7469 60.9268 72.9732 64.4432 56.2095 74.4826C50.6736 77.7975 44.2536 82.4572 40.951 88.0136C34.2965 99.2086 35.6496 113.143 30.2454 125.016L29.2049 126.649C28.843 125.399 29.8917 124.56 30.0233 123.565C31.7713 110.49 32.0427 96.3256 39.5403 84.9619C41.8394 81.4743 44.9157 78.4103 47.7042 75.4408C51.5209 71.3774 56.3411 67.8692 55.5144 61.4738C55.2306 59.2735 51.8664 56.3698 49.8881 55.5843C48.0332 54.8481 45.3147 55.1525 43.5997 53.8528L45.4422 53.0878C62.2799 53.3017 78.0648 46.8529 92.5171 38.7054C97.3456 35.81 101.738 32.7748 105.703 29.5874C105.699 29.1679 111.465 25.0756 112.304 24.467C120.036 18.8982 128.043 14.4852 136.96 11.0798Z" fill="black"/>
<path d="M110.638 169.011C111.67 168.431 110.7 167.09 110.638 166.132C111.222 166.424 111.876 167.066 112.287 167.567C118.041 174.617 122.643 189.316 131.198 192.664C137.931 195.3 144.219 192.096 147.731 186.157C153.522 176.369 155.41 161.875 159.375 150.915C159.605 150.281 159.568 149.459 160.399 149.265C160.016 153.896 160.831 158.531 161.209 163.056C162.122 174.057 163.274 184.911 164.947 195.921L168.637 213.643C168.674 215.411 162.068 218.759 160.403 219.393C150.326 223.23 133.896 223.016 124.478 217.472C120.743 215.271 118.127 212.45 116.885 208.202L110.634 169.007L110.638 169.011Z" fill="black"/>
<path d="M308.167 129.52C308.759 129.483 308.99 130.277 308.463 130.548C303.277 133.217 296.244 138.346 295.701 144.116C295.245 148.936 296.055 154.443 295.73 159.358C295.722 159.486 295.668 159.609 295.578 159.704L295.339 159.954C295.129 154.974 294.981 150.043 294.895 145.165C295.006 151.54 295.158 157.919 295.343 164.31C295.347 164.503 295.249 164.688 295.084 164.791L295.023 164.828C294.94 164.877 294.846 164.906 294.751 164.91C280.171 165.264 264.374 165.264 249.659 164.91C249.432 164.873 249.255 164.832 249.255 164.783C249.062 158.655 249.21 152.412 249.457 146.275C249.486 145.523 249.531 143.639 249.247 144.754L248.894 144.499C249.416 143.433 247.306 139.962 247.191 139.452C247.179 139.403 247.158 139.353 247.129 139.308C244.637 135.257 238.505 131.868 233.705 129.458C233.495 129.351 233.36 129.121 233.413 128.891C233.787 127.254 239.175 126.764 240.693 128.113C240.841 128.245 241.038 128.294 241.227 128.233C241.593 128.117 241.725 127.669 241.486 127.369C240.726 126.415 240.1 125.152 241.758 125.403C241.815 125.411 241.873 125.432 241.922 125.456C247.096 128.023 252.324 130.54 257.876 132.214C270.724 136.088 282.705 136.993 295.734 133.448C299.44 132.44 303.927 130.281 307.525 129.606C307.756 129.565 307.97 129.532 308.175 129.52H308.167Z" fill="black"/>
<path d="M570.448 80.9973C568.589 84.67 566.869 88.9966 565.924 92.9243C563.867 105.987 563.308 119.365 564.233 133.061L565.734 159.757C565.718 160.148 565.368 160.493 564.69 160.785C556.649 163.237 551.73 162.611 543.492 162.825C540.395 162.903 537.253 163.278 534.049 163.253C533.371 163.249 532.137 163.553 531.787 162.842C534.086 162.788 536.418 162.648 538.779 162.43C538.907 161.711 538.401 160.966 538.351 160.185C538.125 156.566 538.532 152.7 538.384 149.047C537.331 122.565 544.118 109.676 560.98 90.2469C563.279 87.5983 566.508 83.613 569.008 81.4127C569.559 80.9273 569.617 80.3433 570.448 81.0014V80.9973Z" fill="black"/>
<path d="M241.013 124.182C241.215 124.449 241.918 125.074 241.836 125.415C241.824 125.477 241.519 125.526 241.478 125.707C241.293 126.476 243.107 127.525 243.773 127.809C244.197 127.99 244.921 128.154 244.304 128.706C244.209 128.792 242.955 128.648 242.465 128.718C241.91 128.8 241.425 129.195 240.812 129.146C240.158 129.092 239.887 128.393 239.171 128.286C237.699 128.068 234.548 127.904 234.022 129.528C235.317 129.865 236.703 130.581 237.863 131.239C239.414 132.123 247.865 137.795 247.54 139.107C247.495 139.288 247.195 139.337 247.183 139.399C241.783 133.32 233.475 129.195 225.911 126.328C224.439 125.769 222.703 125.041 221.272 124.593L221.506 124.157C206.968 118.691 191.339 115.055 177.125 123.425C165.289 130.4 157.91 142.409 146.806 150.273C139.617 155.365 129.137 160.177 120.32 160.802C116.848 161.049 113.196 160.292 109.816 161.197C109.532 157.861 111.695 154.657 114.126 152.556C119.258 148.118 126.045 145.63 131.202 141.459L131.14 140.908C138.428 138.083 145.642 134.965 151.507 129.224L163.294 118.345C180.683 104.025 195.6 105.575 215.72 113.39C224.196 117.029 232.627 120.628 241.013 124.186V124.182Z" fill="black"/>
<path d="M100.356 31.6437C100.841 31.4546 103.206 31.3805 102.705 32.1825C102.396 32.6761 94.6887 37.4757 93.4014 38.1872C76.0701 47.7741 54.7494 51.2247 35.3741 52.6231C27.3007 50.9122 18.9641 48.317 11.6351 44.488C9.13862 43.1842 6.83546 41.169 4.38013 39.8117C3.2779 39.2031 4.0511 39.6842 3.29024 40.2847C0.477091 35.9252 -2.75967 33.1655 3.99764 30.5045C11.5981 27.5104 23.4223 28.4193 31.4505 29.6038C42.2013 31.1913 52.6807 34.8435 63.5261 35.7771C75.4203 36.8012 88.9637 35.5221 100.352 31.6479L100.356 31.6437Z" fill="black"/>
<path d="M367.687 90.868C367.876 91.8016 367.354 92.4267 367.288 93.1423C365.873 108.092 363.953 123.079 362.353 137.972C362.258 138.844 362.423 139.732 362.308 140.6C360.519 141.25 358.656 141.92 356.764 142.253C350.2 143.409 343.582 142.952 337.068 141.842C332.835 141.122 328.719 139.785 324.511 138.971C324.561 137.684 324.4 136.343 324.482 135.06C324.61 133.04 324.746 130.943 324.894 128.891C324.964 127.887 325.564 126.933 325.321 125.823C331.174 124.622 336.467 124.231 341.912 121.233C350.52 116.499 350.233 111.012 352.968 102.676C355.509 94.919 360.844 89.922 367.477 85.5172C368.123 86.1012 367.334 87.1747 367.284 87.7916C367.165 89.3133 367.465 89.7863 367.683 90.8638L367.687 90.868Z" fill="black"/>
<path d="M54.7042 86.7552C54.7864 88.8527 54.1531 90.6212 54.2806 92.7064C52.2982 108.475 52.401 124.638 50.6037 140.439C50.4351 141.904 50.6202 143.257 49.9621 144.733C49.2383 146.358 46.4745 147.958 44.8376 148.657C38.0063 151.573 27.86 151.614 20.9793 148.858C21.5716 147.999 22.6203 148.953 23.628 148.858C32.5239 148.032 39.2936 139.399 41.4528 131.288C45.3723 116.54 43.8012 100.586 53.4745 87.7875C53.8652 87.2693 54.4574 87.0431 54.297 86.1424C54.8358 85.4843 54.696 86.4508 54.7042 86.7552Z" fill="black"/>
<path d="M249.239 20.5393C249.301 21.5634 250.16 22.1844 250.818 23.2784C252.138 25.4788 253.208 27.9588 254.812 29.9781C259.583 35.9705 271.255 41.387 278.44 43.5709C279.435 44.1796 280.644 44.6443 281.779 44.9322C284.539 45.6273 289.503 46.7254 292.012 45.6273C293.377 45.6602 294.759 45.6026 296.125 45.6273C296.947 46.5568 296.199 46.9969 293.879 46.9434C294.504 49.5303 292.752 49.6373 290.729 49.736C288.907 50.1472 289.33 50.2377 292 49.9992C295.804 51.6608 299.773 52.8946 303.902 53.6925C305.132 54.1696 305.346 55.0415 303.939 55.0826C287.87 53.5567 269.708 46.055 255.12 39.125C251.785 37.5416 242.506 33.2643 240.66 30.5539C237.596 26.0545 239.434 18.8243 236.839 13.8108C235.354 10.9401 232.574 9.47179 229.786 8.11457C229.456 7.95417 228.07 7.75264 229.086 7.37427C232.266 8.67802 234.894 9.70622 237.863 11.5529C239.249 12.4124 249.198 19.8113 249.239 20.5352V20.5393Z" fill="black"/>
<path d="M105.703 29.5874C105.703 29.6285 106.291 29.7395 105.727 30.1919C88.9226 43.6408 65.5455 54.8645 43.5997 53.8528C40.8482 53.7253 38.0803 53.1948 35.3741 52.619L38.471 51.8088C54.9715 50.0773 77.2834 46.1331 92.003 38.3024C95.5483 36.4146 98.7932 33.8276 102.408 32.0509L100.352 31.6396C102.149 31.0268 103.856 30.0809 105.699 29.5833L105.703 29.5874Z" fill="black"/>
<path d="M295.713 159.551C295.911 160.526 295.343 161.143 295.29 161.838C295.22 162.751 296.092 164.145 295.713 165.309H248.828C249.037 159.811 248.556 154.118 248.811 148.636C248.84 147.99 249.186 147.497 249.227 146.995C249.288 146.242 249.223 145.494 249.239 144.745C249.251 144.272 248.955 143.405 249.65 143.512V164.898H294.891V145.157C295.607 145.062 295.294 146.094 295.302 146.596C295.384 150.602 294.99 155.036 295.302 158.955" fill="black"/>
<path d="M565.924 92.9243C565.093 96.3667 564.936 99.5129 564.677 102.988C563.361 120.439 564.928 139.033 565.94 156.45C565.981 157.129 566.084 160.641 565.915 160.777C565.747 160.913 565.002 160.691 564.69 160.785C563.542 160.329 565.483 160.308 565.463 159.769C565.459 159.613 565.109 159.124 565.085 158.544C564.089 136.799 562.234 114.216 565.529 92.731L565.928 92.9284L565.924 92.9243Z" fill="black"/>
<path d="M66.22 132.818C65.344 127.48 65.4427 122.524 66.22 117.19L66.5819 117.436C67.1207 118.428 66.22 120.217 66.22 120.686V129.734C66.22 130.079 67.1125 131.679 66.5819 132.572L66.22 132.818Z" fill="black"/>
<path d="M320.39 87.9889C321.821 87.3474 323.01 86.0559 323.956 84.1024L328.92 74.8568C329.475 72.2987 330.759 71.0237 332.77 71.0278C334.271 68.7493 335.702 68.2435 337.068 69.5061C338.548 69.0989 340.382 68.7493 340.563 70.7728L342.135 69.4608C340.44 67.0713 342.694 64.9615 344.997 66.5367C345.791 65.5578 346.938 65.1383 348.452 65.274C350.422 63.7893 352.597 62.8845 354.275 65.2082C356.052 64.4021 358.647 64.0073 359.873 65.7758C358.211 65.5701 358.956 61.4574 360.757 61.7617C363.015 62.1401 361.925 67.6923 359.873 65.7758C360.404 67.1453 361.547 65.9855 361.868 64.8093C361.535 62.5514 363.217 61.2887 365.01 62.9339C366.527 60.6595 371.076 62.6377 369.012 65.0972C369.345 65.3028 369.731 65.5825 369.789 65.9732C369.962 67.133 364.212 70.2834 362.781 70.3163L362.555 71.6776C360.099 73.8533 358.265 76.5307 356.92 79.64C355.575 79.8456 354.798 80.5777 354.592 81.8321C353.124 82.6629 353.066 83.4978 354.419 84.3368C354.65 84.9866 351.491 93.8456 349.266 92.6899C349.681 94.5941 348.078 95.7045 346.371 96.0007L346.593 97.4566C346.231 98.5136 341.324 101.816 340.103 102.61C339.856 104.099 338.31 105.674 336.759 105.078C336.336 106.25 333.818 107.998 332.593 108.705C327.896 111.415 322.039 113.665 316.923 115.541C314.558 116.408 311.614 117.297 309.158 117.687C304.827 118.654 300.419 119.538 295.94 120.34C295.142 120.443 292.946 120.612 292.419 120.069C292.357 120.003 294.155 120.324 293.653 120.891C277.708 122.549 261.137 121.796 245.431 118.321C240.487 117.227 234.519 115.701 229.901 113.698C229.465 113.509 228.498 112.612 228.26 113.488C227.499 113.48 226.693 113.468 225.989 113.139C219.063 109.91 212.512 105.945 206.162 101.931L205.639 100.739C206.458 100.574 205.208 99.698 205.022 99.5047C201.119 95.4866 200.634 91.6617 201.099 86.1217C201.267 84.1024 202.176 81.6265 202.337 79.5454C202.802 73.4502 199.561 67.643 193.083 67.0302C183.57 66.1295 181.23 78.1306 178.293 84.7028C176.965 87.6805 175.258 91.2175 173.638 94.0306C168.834 102.388 161.92 107.298 154.838 113.48C141.661 124.979 121.714 144.647 102.404 137.137C90.8515 132.646 90.3538 121.15 97.8761 112.452C108.902 99.6939 127.13 101.207 140.793 93.2657C155.385 84.7851 159.778 67.0014 174.785 60.2194C186.988 54.7042 200.745 57.908 208.296 69.0784C210.258 71.9779 211.681 75.6629 213.668 78.5131C227.318 98.127 265.703 106.879 288.084 104.008C299.633 102.528 312.975 97.1029 320.382 87.9807L320.39 87.9889Z" fill="black"/>
<path d="M205.643 100.739C208.675 102.203 211.883 104.736 214.963 106.431C219.36 108.849 223.937 110.934 228.264 113.488C233.129 116.359 237.629 119.625 241.013 124.181C240.931 124.691 239.525 124.186 239.253 124.091C221.26 117.868 203.678 105.505 183.657 108.977C163.204 112.526 156.413 130.922 138.893 138.654C137.034 139.473 132.148 140.686 131.202 141.451C129.516 141.657 127.665 142.434 126.045 142.673C125.625 142.734 124.511 142.973 124.622 142.278C130.618 141.229 136.499 138.186 141.287 134.468C149.167 128.352 153.888 119.238 161.217 112.448C173.379 101.175 189.316 92.842 205.648 100.739H205.643Z" fill="black"/>
<path d="M339.021 29.9781C342.377 29.3817 345.758 28.9211 349.163 28.5962C349.85 28.5304 350.533 28.7812 351.026 29.2624C354.662 32.8036 353.498 34.3212 348.3 34.9052C348.008 34.9381 347.72 35.0162 347.461 35.1561C347.025 35.3905 346.609 35.6455 346.219 35.9252C346.001 36.0814 345.762 36.2007 345.503 36.2747C340.226 37.7841 334.222 40.6507 330.668 45.0021C328.887 47.1819 328.04 49.6701 325.716 51.5661C321.398 55.0907 316.068 55.6912 310.733 55.8722C310.314 55.8886 309.919 55.7447 309.537 55.5637C309.417 55.5061 309.253 55.4938 309.097 55.4815C307.887 55.3827 306.645 55.3005 305.469 55.21C305.004 55.173 304.589 54.9632 304.211 54.6918C303.98 54.5273 303.38 54.408 303.223 54.3628C300.69 53.6389 298.099 53.2235 295.697 52.4257C294.578 52.0555 292.382 50.8422 291.621 50.7518C291.041 50.6818 290.486 51.052 289.771 50.978C287.089 50.7106 288.467 49.3123 290.589 48.9174C292.251 48.609 293.085 49.0203 293.184 48.21C293.324 47.0626 294.175 46.129 295.327 46.0508C295.397 46.0467 295.463 46.0385 295.533 46.0303C296.001 45.9768 296.092 45.619 296.129 45.6149C299.078 45.3476 301.953 45.3722 304.951 44.7718C317.281 42.3 326.658 33.2971 338.787 30.0192C338.865 29.9986 338.947 29.9781 339.025 29.9657L339.021 29.9781Z" fill="black"/>
<path d="M229.086 7.37835C238.225 10.5411 239.414 16.3154 239.718 25.3348C240.446 29.3201 241.071 30.4017 244.357 32.5774C246.047 33.6961 247.886 34.6585 249.696 35.5797C266.718 44.2166 285.024 51.3358 303.939 55.0908C305.041 54.005 310.68 54.0626 309.697 55.9133C309.347 56.1313 308.994 56.337 308.615 56.485C305.3 57.8011 291.502 56.082 287.151 55.4445C271.818 53.203 259.134 47.8153 245.681 40.803C241.807 38.9234 237.76 37.632 233.619 36.5668C224.673 34.2677 219.253 39.9187 229.247 45.4175C234.898 48.5227 241.198 49.8017 247.656 50.8053L266.899 53.7911C274.656 55.3622 283.116 57.2541 288.722 63.2053C289.446 63.9744 290.98 66.1213 290.363 67.0138C293.032 77.6083 283.507 83.251 274.747 85.7393C260.677 89.7328 236.148 87.4337 225.989 75.6629C222.892 72.0725 221.239 67.5566 218.739 63.5837C210.332 50.2583 195.46 46.7418 180.778 45.1995C171.335 44.2084 162.87 43.5832 153.818 40.0791C147.156 37.5004 136.014 31.7919 134.163 24.3642C134.048 23.9076 133.637 21.5099 133.661 21.1809C133.707 20.5105 134.307 18.6803 134.583 17.9564C135.59 15.3366 137.758 13.457 139.859 11.7173L145.597 8.2009C149.471 6.80256 153.082 5.02583 157.1 3.87014C178.561 -2.27848 208.403 -1.10222 229.086 7.37835Z" fill="black"/>
<path d="M183.735 16.1057C186.26 15.7561 189.661 15.8836 192.084 16.6239C198.002 18.4294 198.133 21.4976 192.092 23.2291C188.579 24.2367 182.312 24.1832 179.178 22.1268C174.699 19.1862 180.749 16.5211 183.735 16.1057Z" fill="black"/>
<path d="M412.928 34.934C414.972 36.283 416.913 39.1044 416.161 41.6625C415.609 43.5421 410.999 45.471 409.226 46.0385C408.762 46.1866 408.449 46.4375 408.404 46.4498C398.619 48.9792 388.749 50.8135 378.784 51.9568C363.344 54.7371 348.855 59.1172 334.97 66.3063C334.62 66.4873 334.312 66.4832 333.962 66.1912C333.868 65.5167 334.23 65.3645 334.575 64.9491C345.24 52.2159 363.225 50.7641 378.072 46.3429C380.963 45.4833 385.463 44.085 386.935 41.2266C388.868 37.4675 383.637 35.481 380.86 34.716C372.178 32.3224 354.678 33.7495 345.889 36.1678L345.593 35.6702C346.49 35.6332 347.025 34.5639 347.526 34.3089C348.715 33.7043 354.07 34.4035 351.841 31.2489C351.244 30.4058 350.525 30.2824 349.998 29.7889C349.41 29.2378 349.85 28.2795 348.213 28.8265C347.843 28.9499 347.592 29.4681 347.275 29.538C346.922 29.6162 346.284 29.1473 345.684 29.1391C344.532 29.1267 342.258 29.9534 340.966 30.2125C340.35 30.3359 339.26 30.8294 338.898 29.9987C354.687 25.7872 370.879 27.8641 386.799 29.5997C394.281 30.4141 406.594 30.7554 412.928 34.934Z" fill="black"/>
<path d="M278.44 43.5708C282.791 44.8951 287.504 45.5203 292.012 45.6272C292.102 46.9556 290.745 47.1119 289.812 46.8035C287.796 46.1331 288.537 46.6389 286.883 46.4662C285.366 46.3058 284.848 45.6354 282.421 45.5367C280.973 45.4791 279.665 44.1877 278.205 44.0068L278.44 43.5708Z" fill="black"/>
<path d="M409.226 46.0385C409.716 47.0543 410.547 46.2318 411.077 46.0385C411.982 45.7053 413.541 45.4051 414.162 45.0103C414.783 44.6154 414.923 43.871 415.408 43.3775C415.688 43.0896 416.313 42.9827 416.658 42.5714C417.621 41.4239 416.769 39.2483 416.79 38.0185C416.798 37.5003 417.259 36.8505 417.378 36.2953C417.534 35.5632 417.308 34.8023 417.653 34.1073C417.756 33.9016 419.179 32.5485 419.356 32.5115C419.71 32.4375 420.504 32.9845 421.351 32.894C422.243 32.7994 423.58 31.9028 423.629 31.0309C423.642 30.8212 421.935 30.7183 422.803 30.0027C423.128 29.7354 424.814 30.3893 425.094 30.8129C425.279 31.0926 424.752 31.5532 425.036 32.055C425.225 32.3881 426.34 33.1449 426.714 33.2888C427.746 33.6919 427.047 32.1948 427.532 32.0591C429.922 33.1942 432.542 34.3787 435.026 35.2589C436.19 35.6701 437.37 35.6742 438.3 36.5091L445.834 38.2283C445.238 39.7377 443.017 40.7042 444.189 42.337H442.544C442.421 41.8558 443.033 41.2759 442.947 40.9263C442.848 40.5315 441.939 40.0503 441.722 40.2806C441.458 40.5644 442.014 41.4609 442.046 41.7941C442.092 42.2629 441.705 42.777 441.689 43.3693C441.668 44.089 442.203 44.7429 441.722 45.6272L439.032 43.5914L438.431 42.337C437.099 42.7524 438.415 44.5003 438.02 45.6272C437.769 45.8822 436.103 44.8375 435.219 45.7136C434.861 46.0631 434.989 47.2476 433.706 46.861C433.093 46.676 433.356 45.072 431.855 45.6313C431.378 46.7459 433.496 47.7453 433.496 47.8933C433.496 48.8269 430.749 48.3622 430.058 48.5637C429.774 48.646 428.622 49.7688 428.577 49.9867C428.54 50.1513 429.868 52.8821 430 53.0343C430.346 53.4291 432.32 54.6918 432.636 54.2188C432.756 54.042 432.525 53.4867 432.883 53.425C434.195 53.2071 434.738 54.1941 434.931 54.1941C435.125 54.1941 435.639 53.2235 436.992 53.4291C437.662 53.5279 438.008 54.1736 438.213 54.1818C438.97 54.2229 439.916 52.5943 440.689 52.5943C441.536 52.5943 441.726 53.7047 442.746 53.8569C443.889 54.0255 443.12 52.9891 443.371 52.623C443.687 52.1706 448.195 54.0625 447.858 52.0349C447.685 50.9985 445.67 49.8757 445.838 48.5226C446.739 48.6419 447.146 47.5026 447.734 47.3258C448.096 47.2188 449.861 47.1983 449.943 47.2723C449.988 47.3134 450.14 48.3499 449.659 48.4897C448.627 48.7899 449.26 49.6783 449.12 50.7641C449.005 51.6524 448.24 52.1418 448.302 53.0261C450.654 52.4626 449.799 54.042 450.358 54.6712C451.066 55.465 451.123 54.0132 451.424 53.8281C451.794 53.6019 452.493 53.5772 452.941 53.3469C453.492 53.0631 454.562 52.0719 455.084 52.1994C455.438 52.2858 455.911 52.9233 455.508 53.4497C455.318 53.6965 453.723 54.1982 454.241 55.0825C455.211 56.7317 456.688 55.2758 457.346 55.6747C458.498 56.378 458.012 57.7023 458.201 57.9244C458.79 58.6154 461.858 58.2493 462.886 58.3809C463.7 58.4879 464.7 59.1912 465.362 59.1829C465.958 59.1747 466.571 58.5455 467.393 58.8004C468.002 58.9896 467.883 59.9808 468.278 60.0384C473.435 60.7622 478.358 62.4978 483.47 63.707C484.034 63.8386 484.754 63.633 485.436 63.7975C487.291 64.2417 491.988 66.4173 493.267 66.1212C493.818 65.9937 494.435 65.2781 494.933 65.3891C495.336 65.4796 496.08 66.7217 497.104 66.9396C497.984 67.1288 498.898 66.9314 499.831 67.0918C501.094 67.3057 502.541 68.2722 503.689 68.5807C504.836 68.8891 506.613 68.8398 507.662 69.1318C508.155 69.2675 508.686 70.0654 509.439 70.234C511.269 70.6412 513.37 70.6864 515.447 71.2169C516.344 71.4473 519.453 72.8168 519.856 71.3321C520.017 70.744 518.701 70.1641 519.034 69.2798C519.108 68.5436 521.032 69.5348 521.041 70.1024C521.045 70.4314 519.507 70.7604 521.279 71.9696C521.781 72.311 523.693 73.043 524.265 73.1294C525.01 73.2446 525.511 72.714 526.215 72.7551C527.124 72.8086 527.666 73.7751 529.098 73.6065C530.031 73.4954 531.442 72.3521 532.404 72.3521C533.025 72.3521 533.264 73.0019 533.692 73.1253C535.423 73.6353 540.445 74.1288 542.254 73.9972C543.887 73.8738 546.548 72.5042 546.997 75.2434C520.847 77.7481 489.191 65.2945 463.211 60.1165C452.073 57.8956 442.894 57.1389 431.616 56.7523C412.533 56.0983 381.214 58.8046 365.232 70.5342C356.649 76.8309 357.915 81.4496 353.362 89.5106C341.97 109.696 315.352 118.637 293.649 120.895L292.415 120.073C293.542 119.982 294.792 120.208 295.899 120.06C298.416 119.727 301.558 118.321 304.149 118.029C305.222 117.909 306.431 118.173 307.431 118.02C308.122 117.918 308.373 117.284 309.059 117.181C309.94 117.05 311.042 117.383 311.893 117.136C312.535 116.947 313.02 115.779 313.649 115.602C314.233 115.438 314.933 115.619 315.582 115.479C318.046 114.948 320.366 112.871 323.039 112.242C326.14 111.514 329.714 110.288 332.297 108.339C333 107.808 333.74 106.64 334.374 106.291C334.773 106.069 335.365 106.167 335.538 106.032C335.83 105.81 336.085 104.119 336.006 103.617C336.13 103.461 337.261 105.094 338.495 104.255C339.21 103.77 339.128 102.31 339.35 102.03C339.42 101.939 340.477 101.672 340.929 101.347C341.76 100.751 342.348 99.7515 343.261 99.1551C344.174 98.5588 345.721 98.5135 345.803 97.181C345.832 96.7203 345.207 95.651 345.466 95.396C345.544 95.322 347.045 95.067 347.518 94.7709C349.303 93.6522 348.6 92.04 346.7 91.6904C346.395 90.7198 348.341 89.5723 348.752 90.0494C348.925 90.2509 349.019 91.8138 349.784 92.0976C351.886 91.0077 352.264 88.3549 352.959 86.2327C353.112 85.7639 353.963 84.5259 353.667 84.3162C353.543 84.2298 353.136 84.456 352.852 84.0406C352.663 83.7692 352.256 82.4531 352.474 82.2557C352.667 82.0829 353.399 82.1816 353.889 81.4084C354.185 80.9437 354.403 79.5083 354.543 79.3891C354.695 79.2616 355.571 79.4507 356.159 79.1587C357.549 78.476 357.196 76.872 357.837 75.8973C358.281 75.2187 359.33 75.0048 359.782 73.7216C359.931 73.298 359.754 72.5084 359.881 72.3891C359.963 72.3109 360.658 72.3768 361.082 72.1588C362.217 71.5748 361.905 70.1312 361.913 69.0742C362.937 69.8227 364.524 68.9919 365.59 68.4367C366.77 67.8239 368.103 66.6805 369.312 65.9896L368.078 65.784C367.765 64.6406 368.938 64.3404 368.905 63.3163C368.242 63.4109 367.062 62.5513 366.63 62.576C366.198 62.6007 365.767 64.0319 364.644 63.6864C364.093 63.5178 363.969 62.576 363.143 63.0983C362.057 63.781 362.517 64.6077 362.258 65.5084C362.151 65.8786 361.65 66.2939 361.407 66.7258C360.901 67.6347 361.428 68.083 359.856 67.8404C359.848 67.1576 359.865 66.4667 359.856 65.784C362.538 65.5207 361.094 62.5102 360.473 62.4978C359.651 62.4814 359.848 65.1465 359.856 65.784C358.705 65.895 357.858 65.2987 356.768 65.3439C355.826 65.385 354.522 66.113 353.881 66.1459C353.469 66.1664 353.371 65.1588 353.206 65.0313C353.132 64.9737 351.569 64.5419 351.413 64.5378C350.854 64.5296 349.414 65.9156 348.476 66.1253C347.827 66.2693 347.127 66.0842 346.543 66.2487C346.001 66.4009 345.639 67.3098 345.211 67.4044C344.643 67.5278 344.022 66.697 343.611 66.7011C343.34 66.7052 342.233 67.3715 342.167 67.6429C341.999 68.3174 343.467 68.6259 342.797 69.9091C342.69 70.1106 340.058 72.2739 339.877 72.3397C339.609 72.4384 339.194 72.3397 338.877 72.3644C338.618 71.5583 339.548 71.3444 339.679 70.9003C340.164 69.2839 337.487 70.3697 337.031 70.3368C336.303 70.2792 335.969 69.3744 335.414 69.4978C334.904 69.613 333.724 71.4678 333.127 71.7598C332.498 72.0683 331.894 71.8544 331.326 72.0148C330.113 72.3562 330.142 74.3139 329.611 75.2351C328.151 77.7768 327.337 77.8755 326.35 81.0218C325.901 82.4407 323.154 86.8332 322.015 87.7915C321.542 88.1863 320.806 88.9965 320.366 87.993C324.108 83.3826 326.526 77.9537 329.068 72.6359L333.526 65.784C332.93 66.0801 332.552 66.5284 331.89 66.8204C320.349 71.8709 305.082 71.8462 293.209 68.0583C292.427 67.8074 290.918 67.4291 290.342 67.0178C289.68 66.5448 288.644 64.328 287.879 63.5178C277.029 51.9732 247.273 54.1941 232.064 47.77C229.28 46.5937 222.407 42.9128 222.95 39.3511C223.493 35.7894 227.906 35.0491 230.925 35.3329C241.235 36.3035 254.66 44.7964 264.423 48.72C278.263 54.2805 294.846 56.3081 309.668 55.9133L310.585 55.0619C316.565 54.918 323.294 53.9803 327.065 48.8598C330.421 41.3088 345.606 35.5879 345.861 36.1719C346.441 35.5632 347.255 35.1355 348.073 34.8846C355.119 32.7336 380.297 30.85 385.767 35.9416C393.224 42.8799 380.515 46.8281 375.074 48.0414L357.245 52.6107C348.287 55.0208 340.304 59.5407 333.934 66.1952L334.871 66.3186C348.193 59.4832 363.023 54.8234 378.072 52.076C388.444 50.8216 398.545 48.9462 408.375 46.4498C408.153 45.3187 408.428 45.1995 409.198 46.0385H409.226Z" fill="black"/>
<path d="M408.404 46.4498C409.44 46.8118 407.935 47.1038 407.684 47.1655C401.47 48.7612 395.148 49.6578 388.86 50.5503C388.169 50.649 387.947 51.2371 387.56 51.344C386.154 51.7265 384.833 51.6114 383.04 52.1707C382.411 52.3681 381.959 51.7841 381.481 51.7677C381.074 51.7553 381.449 52.6026 381.037 52.6437C380.392 52.7095 379.902 52.2036 379.1 52.2735C377.2 52.4422 374.683 53.3717 372.738 53.7583C363.414 55.6131 352.388 58.1918 344.121 62.5678C342.92 63.2053 341.637 64.2788 340.839 64.6325C339.827 65.0849 338.663 64.9697 337.549 65.455C336.763 65.7964 334.25 68.2805 333.962 66.1871C334.538 65.854 334.97 65.4427 335.599 65.1507C350.788 58.0808 363.311 54.4122 379.84 51.4057C389.156 49.7113 399.376 49.0697 408.404 46.4498Z" fill="black"/>
<path d="M420.742 47.6836C420.927 48.5514 419.854 51.7799 420.121 52.2077C421.01 53.6266 422.338 51.418 422.593 51.4221C422.753 51.4221 423.074 52.0308 423.477 52.146C424.065 52.3187 424.756 52.1336 425.402 52.2776C426.109 52.4339 428.992 54.2599 428.145 55.0866C428.051 55.1812 426.056 55.066 425.488 55.0989C423.14 55.2429 421.277 54.918 418.879 54.6877C417.473 54.5519 414.273 55.1977 415.593 52.6066C416.362 51.0972 417.67 52.401 418.279 52.0267C419.689 51.1589 418.669 50.0855 418.875 49.7318L420.742 47.6836Z" fill="black"/>
<path d="M428.088 41.572C428.404 41.8517 428.256 43.978 429.4 45.0103C429.84 45.4052 430.625 44.9774 430.177 46.6308C429.914 47.5973 427.421 47.1613 426.944 47.7207C426.817 47.8687 427.006 48.753 426.714 49.3411C426.138 50.505 424.473 51.0068 424.041 49.5056C423.872 48.9216 425.02 48.5103 424.855 47.8975C424.649 47.1449 422.391 47.0832 422.799 46.2483C423.177 45.4669 424.6 45.3969 425.258 45.0062C425.505 44.8582 427.031 43.3652 427.134 43.1719C427.602 42.2836 426.895 41.9874 426.911 41.1073C427.212 41.3171 427.972 41.4733 428.084 41.572H428.088Z" fill="black"/>
<path d="M381.259 59.1994C381.584 59.5613 381.63 61.2681 381.202 61.6136C381.041 61.7411 380.589 61.6259 380.338 61.7576C379.52 62.1853 379.384 62.7035 378.241 62.4362C377.838 62.3416 375.588 61.3298 375.506 61.046C375.362 60.5443 375.654 59.7546 376.118 59.6148C377.377 59.2323 377.2 60.207 377.558 61.0214C377.743 61.4409 378.269 61.3422 378.574 61.2476C378.899 61.1489 380.351 58.1918 381.259 59.1994Z" fill="black"/>
<path d="M424.448 34.5227C424.098 34.5104 423.592 34.6296 423.395 34.9052C422.893 35.6044 423.823 36.8711 422.392 36.5791C422.494 36.0156 422.243 33.8564 422.392 33.7001C422.609 33.4698 424.468 33.6919 424.448 34.5227Z" fill="black"/>
</g>
<defs>
<clipPath id="clip0_38_8100">
<rect width="595.951" height="222" fill="white"/>
</clipPath>
</defs>
</svg>
