<svg width="595" height="397" viewBox="0 0 595 397" fill="none" xmlns="http://www.w3.org/2000/svg">
<g clip-path="url(#clip0_38_8167)">
<path d="M594.498 0H0V396.332H594.498V0Z" fill="black"/>
<path d="M460.194 150.56C461.41 150.544 462.656 150.502 463.875 150.56C464.282 150.579 464.583 150.951 464.645 150.951H471.225C473.671 150.951 476.562 151.303 479.159 151.338C479.388 152.437 478.532 152.209 477.816 152.1C473.129 151.392 468.21 151.744 463.465 151.353C462.791 151.299 462.238 150.989 461.561 150.935C460.492 150.85 459.335 151.028 458.255 150.951C458.224 150.25 459.695 150.571 460.19 150.564L460.194 150.56Z" fill="white"/>
<path d="M154.817 119.209L154.933 120.045C147.049 124.02 140.16 130.875 147.641 139.123C157.898 150.428 177.49 152.34 191.795 153.706C204.545 155.258 217.677 159.752 224.578 171.356C228.321 178.795 231.297 184.283 239.061 188.157C251.075 194.152 271.793 195.325 283.575 188.366C288.351 185.545 291.656 181.361 290.484 175.543L291.056 174.553L291.711 174.038C303.887 178.326 317.898 178.671 329.954 173.608C331.297 172.571 331.843 172.509 331.979 174.374C328.658 179.038 325.933 184.109 323.378 189.454C322.384 191.656 321.029 193.27 319.311 194.292C319.33 194.578 319.33 194.857 319.284 195.132C319.04 196.509 315.374 199.362 314.024 200.388C296.506 213.663 271.491 212.247 251.396 206.294C236.131 201.769 220.723 193.858 214.213 178.597C210.702 172.373 204.754 168.023 197.698 166.808C180.997 163.924 171.193 177.088 162.543 189.086C154.326 200.972 141.197 204.405 128.007 207.745C119.279 210.211 109.851 215.208 106.735 224.245C104.149 231.742 108.159 237.85 115.494 240.199C130.178 244.909 143.965 233.84 154.612 225.066C159.988 220.638 165.929 215.595 171.003 210.846C180.033 202.393 184.306 193.502 188.32 182.293C193.533 168.43 210.482 172.312 208.856 187.48C207.111 193.924 206.662 200.79 212.162 205.528C212.409 206.271 212.069 206.584 211.326 206.29L209.835 206.46C188.122 197.616 169.2 216.547 157.36 232.741C152.921 237.981 147.51 241.972 141.011 244.185L141.271 244.611C140.617 246.225 139.235 247.479 137.133 248.377C133.336 250.483 129.652 252.666 126.168 255.255C125.108 256.044 120.839 261.297 121.922 262.086C122.275 262.342 129.567 262.167 130.6 262.067C148.621 260.337 161.451 248.482 173.194 235.616C183.845 225.634 192.705 220.847 207.564 222.55C211.337 222.983 224.346 225.747 226.672 227.976C227.059 228.348 226.622 229.099 226.037 228.742C217.932 226.211 207.064 224.903 198.735 225.631C187.666 226.594 169.711 240.439 168.755 251.965C166.254 262.318 163.239 272.563 159.709 282.7C152.487 299.672 137.88 297.326 130.348 282.054C128.169 277.862 125.758 273.833 123.111 269.963C123.056 270.779 122.646 270.926 121.922 270.543C121.775 267.559 120.978 265.686 118.319 264.277C114.282 262.137 109.196 262.229 104.784 261.169C92.0156 258.1 82.3086 249.813 80.1218 236.483C80.2573 235.516 80.2573 234.548 80.1218 233.58C79.6767 230.983 79.6844 227.732 80.1218 225.066C80.2457 224.009 80.2457 222.91 80.1218 221.776C81.5152 212.243 86.7325 202.304 94.0437 196.026C94.7404 195.43 98.0961 192.898 98.6999 192.747L100.384 191.497C110.079 188.943 119.67 186.141 129.152 183.095C131.66 182.228 135.604 179.812 135.875 176.937L136.626 176.492L136.994 175.539C145.671 172.633 153.741 163.564 142.873 157.41C135.229 153.106 127.918 148.729 131.111 138.592C133.282 131.699 140.783 125.955 146.829 122.538L146.693 121.919C149.36 120.901 152.143 120.173 154.821 119.209H154.817Z" fill="white"/>
<path d="M532.866 182.441L534.174 181.67C534.236 181.632 534.309 181.608 534.379 181.601C547.728 180.022 560.915 174.897 570.594 165.473C571.338 165.225 571.651 165.569 571.357 166.309C565.873 173.496 558.782 179.987 554.749 187.917C554.726 187.964 554.699 188.002 554.664 188.037C548.289 194.752 540.479 203.422 534.956 211.98C524.575 228.061 524.25 245.296 525.647 263.72C525.659 263.894 525.589 264.068 525.45 264.18L525.055 264.505C524.962 264.583 524.846 264.625 524.722 264.625C522.021 264.676 519.389 264.803 516.826 265.005C516.795 265.005 516.765 265.005 516.734 265.005C515.743 264.912 515.042 264.741 514.376 263.998C514.299 263.909 514.253 263.793 514.241 263.677C513.738 257.159 514.318 250.467 514.086 243.899C513.986 240.992 513.459 237.567 513.281 234.641C512.132 215.73 512.132 203.774 494.463 193.08C482.635 185.92 465.28 181.558 451.757 179.085L451.66 178.826C445.162 177.986 438.648 177.173 432.114 176.387C432.052 176.38 431.987 176.387 431.925 176.399C430.4 176.786 428.755 176.832 426.998 176.542C426.974 176.542 426.951 176.534 426.928 176.534C422.28 176.441 421.393 176.519 424.277 176.759C423.944 177.428 422.787 177.138 422.148 177.146C405.776 177.297 389.509 179.53 374.464 186.357C371.178 187.848 368.121 189.771 364.931 191.428C364.808 191.494 364.711 191.602 364.664 191.737C364.196 193.15 363.913 194.621 363.875 196.103C363.859 196.726 362.961 196.815 362.807 196.212C362.702 195.805 362.69 195.329 362.725 194.865C362.76 194.4 362.257 194.129 361.881 194.377C354.055 199.587 350.483 207.428 348.509 216.369C348.509 216.38 348.501 216.396 348.501 216.408C345.602 226.571 334.75 229.339 325.364 230.705C325.259 230.72 325.151 230.705 325.054 230.658L324.191 230.248C324.087 230.198 323.967 230.182 323.854 230.206C319.016 231.193 313.892 231.928 309.395 234.006C309.348 234.03 309.294 234.045 309.244 234.049L307.73 234.242C307.684 234.25 307.637 234.262 307.595 234.277C291.649 240.934 276.326 242.072 259.481 236.658C254.756 235.137 249.329 233.124 245.641 229.942C245.532 229.85 245.389 229.799 245.25 229.815C244.6 229.881 244.275 229.59 244.449 229.064C244.538 228.801 244.433 228.51 244.178 228.398L243.477 228.088C243.408 228.058 243.35 228.015 243.299 227.961C240.443 224.818 237.149 222.128 233.503 219.949C233.418 219.899 233.348 219.825 233.306 219.74L232.686 218.556C232.342 217.859 232.543 217.414 233.306 217.483C251.613 225.356 271.495 225.708 291.428 225.011C292.303 224.981 293.162 225.201 293.998 225.453C294.145 225.495 294.304 225.48 294.435 225.399L294.83 225.162C294.892 225.128 294.958 225.104 295.028 225.093C302.192 223.994 309.329 222.817 316.125 220.491C324.334 217.681 330.949 214.449 337.699 209.166C345.606 202.977 350.688 195.972 353.626 186.714C353.634 186.69 353.645 186.663 353.657 186.64C359.849 173.748 376.91 169.177 390.325 166.738C418.622 161.598 447.449 164.88 474.979 172.676C492.091 177.479 508.9 181.794 526.754 182.131C526.785 182.131 526.816 182.131 526.843 182.123C528.844 181.802 530.702 181.922 532.417 182.483C532.564 182.53 532.722 182.518 532.858 182.437L532.866 182.441Z" fill="white"/>
<path d="M412.201 135.852C423.789 145.459 441.163 148.168 455.732 149.797L460.194 150.56C466.337 151.195 472.429 151.547 478.474 151.62L479.159 151.334C485.956 151.427 492.787 151.346 499.468 150.548C521.63 147.901 543.989 140.086 566.353 145.226C570.753 146.237 579.562 148.663 578.552 154.546C577.96 157.991 573.447 163.197 571.276 166.042C571.117 165.267 570.304 166.444 570.115 166.622C560.071 176.058 546.199 180.993 532.571 182.297L531.023 181.481C527.122 181.98 522.288 182.309 518.827 180.323C516.792 181.372 515.104 181.872 512.972 180.718C511.172 181.198 508.993 180.618 507.495 179.522C506.845 179.925 506.372 180.033 505.622 179.894C499.634 178.783 493.852 177.374 488.205 175.423C486.238 175.602 484.613 175.083 483.332 173.868L482.202 174.456C474.085 172.292 465.888 170.195 457.601 168.166L457.373 167.559C456.003 167.88 448.831 166.878 448.285 166.189C448.289 165.535 448.157 164.997 447.882 164.575C446.04 165.356 443.877 164.373 444.686 162.214L443.269 162.728C442.247 164.528 440.699 163.963 440.587 162.043C439.027 162.16 437.444 162.078 435.845 161.796C435.114 163.723 433.612 162.887 432.497 161.78C431.104 163.15 430.477 163.619 428.712 162.516C427.551 163.185 426.58 163.193 425.794 162.547C423.851 165.105 420.155 160.371 420.402 158.444C420.58 157.07 422.779 156.04 424.095 156.369C422.179 153.908 425.039 152.267 426.282 154.899C426.82 153.42 427.876 153.377 429.223 153.389C428.743 151.88 429.239 150.188 430.973 151.005C432.935 154.322 433.144 152.031 432.718 149.492C433.252 148.272 434.154 148.598 435.164 149.139L436.039 148.063C430.88 146.821 425.836 145.246 420.944 142.904C419.268 144.263 418.057 143.179 416.857 141.739C415.835 143.059 414.287 143.601 412.723 142.927C411.09 143.109 410.587 148.334 411.094 149.743C411.442 151.357 408.493 154.179 407.196 154.86C406.256 155.355 401.824 156.907 402.908 154.825L402.869 154.295C407.564 152.135 411.663 150.03 406.264 145.23L406.391 144.371L406.035 143.705C404.487 142.385 403.342 140.679 406.233 139.548C405.141 138.631 408.667 133.723 409.012 133.704C410.165 134.672 411.229 135.392 412.197 135.856L412.201 135.852Z" fill="white"/>
<path d="M51.0897 161.01C54.0274 160.549 56.6089 160.936 58.8306 162.171C63.8892 162.547 70.558 164.056 70.9024 170.396C71.0882 173.841 69.1453 176.921 66.8656 179.317C57.712 187.735 52.1966 195.29 49.5299 207.784C48.6436 211.945 47.138 220.011 47.3547 224.021C47.3973 224.833 50.7336 209.042 50.7143 208.136C52.7966 190.805 66.4205 181.326 81.6506 175.381C95.6616 169.916 116.078 167.501 130.654 171.402C132.907 172.006 138.031 173.759 136.626 176.488C137.021 180.196 131.777 182.862 128.889 184.039C122.542 186.628 115.629 187.879 109.049 189.744C105.558 190.735 102.176 191.861 98.696 192.744C100.14 190.112 96.4163 188.819 94.4501 188.281C88.2768 186.597 75.6321 186.648 70.6315 191.192C69.8768 191.877 69.811 192.395 69.2807 193.131C65.4954 199.227 62.3449 205.926 61.3115 213.385L59.1673 227.504C58.2074 238.628 50.5362 254.117 37.5432 251.57C35.1048 250.595 31.6911 248.594 31.7066 245.571C31.7066 244.964 32.0627 244.515 32.113 244.011C34.2688 223.343 43.4108 201.653 37.3574 181.117C34.0366 169.842 27.2091 159.168 20.8965 149.391C20.4514 148.199 20.761 147.932 22.0692 148.149C30.1623 154.043 39.5287 157.674 49.4293 159.845L51.0858 161.002L51.0897 161.01Z" fill="white"/>
<path d="M412.201 135.852C411.837 136.82 411.183 135.74 410.846 135.465C410.293 135.008 409.937 134.172 409.105 134.304C409.434 135.663 407.104 137.118 406.817 138.031C406.577 138.809 407.347 139.939 407.169 140.11C406.775 140.485 404.201 140.427 405.61 142.25C405.997 142.749 407.553 143.597 406.395 144.367C405.455 144.65 404.441 144.414 403.353 143.659C391.304 140.446 377.472 139.192 364.827 138.476C358.723 138.132 353.173 138.171 347.077 138.623C346.76 138.647 346.427 138.461 346.09 138.217C342.978 138.805 339.859 139.308 336.731 139.723L335.648 140.837C328.998 143.392 322.597 146.5 316.435 150.161C310.536 153.308 304.224 155.065 297.574 155.119L296.479 154.43C295.329 154.512 294.253 154.686 293.251 154.957L292.608 154.43C292.175 154.852 291.664 155.053 291.072 155.011C287.306 154.728 283.227 154.136 279.836 152.495L278.814 152.987C268.565 149.333 257.631 144.433 253.18 133.805C251.88 132.52 251.605 131.525 252.356 130.821C260.646 135.496 269.378 139.548 278.663 141.863C286.485 143.81 296.85 145.459 304.715 143.508C315.723 140.775 321.675 129.45 330.558 122.906C349.91 108.651 376.454 111.883 396.468 123.142C403.105 126.877 406.639 131.239 412.205 135.852H412.201Z" fill="white"/>
<path d="M146.689 121.919L149.012 122.306C147.963 122.569 146.674 123.312 145.776 123.908C138.399 128.796 128.7 136.607 131.777 146.701C133.824 153.412 143.779 155.22 147.645 160.635C148.416 161.714 149.139 163.348 149 164.671C148.369 170.729 141.863 174.708 136.626 176.492C136.464 174.959 134.614 173.686 133.255 173.09C130.581 171.913 126.931 171.418 124.059 171.062C106.023 168.828 86.4732 172.138 70.6973 181.585C65.4877 184.705 59.446 189.09 56.338 194.319C50.0756 204.854 51.349 217.967 46.2633 229.141L45.284 230.678C44.9435 229.501 45.9304 228.712 46.0543 227.775C47.6992 215.471 47.9546 202.141 55.0104 191.447C57.174 188.165 60.0691 185.282 62.6932 182.487C66.285 178.663 70.8212 175.362 70.0432 169.343C69.7761 167.272 66.6101 164.54 64.7484 163.801C63.0029 163.108 60.4445 163.394 58.8306 162.171L60.5645 161.451C76.4101 161.653 91.2648 155.584 104.865 147.916C109.409 145.192 113.543 142.335 117.274 139.336C117.27 138.941 122.697 135.09 123.486 134.517C130.763 129.276 138.298 125.123 146.689 121.919Z" fill="white"/>
<path d="M121.919 270.543C122.89 269.997 121.977 268.736 121.919 267.834C122.468 268.109 123.084 268.712 123.471 269.185C128.885 275.819 133.216 289.651 141.267 292.802C147.603 295.283 153.521 292.268 156.826 286.679C162.276 277.467 164.052 263.828 167.783 253.513C168 252.917 167.965 252.143 168.747 251.961C168.387 256.319 169.153 260.681 169.509 264.939C170.369 275.292 171.452 285.506 173.028 295.867L176.499 312.545C176.534 314.209 170.318 317.36 168.751 317.956C159.268 321.567 143.806 321.366 134.943 316.148C131.428 314.078 128.967 311.423 127.798 307.424L121.915 270.539L121.919 270.543Z" fill="white"/>
<path d="M307.808 233.379C308.365 233.344 308.582 234.091 308.086 234.347C303.206 236.859 296.587 241.685 296.076 247.115C295.647 251.652 296.409 256.834 296.103 261.459C296.096 261.579 296.045 261.695 295.96 261.784L295.736 262.021C295.538 257.333 295.399 252.693 295.318 248.102C295.422 254.102 295.565 260.105 295.74 266.119C295.744 266.301 295.651 266.475 295.496 266.572L295.438 266.607C295.36 266.653 295.271 266.681 295.182 266.684C281.462 267.017 266.595 267.017 252.747 266.684C252.534 266.65 252.368 266.611 252.368 266.564C252.186 260.797 252.325 254.922 252.557 249.147C252.584 248.439 252.627 246.667 252.36 247.715L252.027 247.475C252.519 246.473 250.533 243.206 250.425 242.726C250.413 242.68 250.394 242.634 250.367 242.591C248.021 238.779 242.25 235.589 237.734 233.321C237.536 233.221 237.408 233.004 237.459 232.787C237.811 231.247 242.881 230.786 244.309 232.056C244.449 232.179 244.634 232.226 244.813 232.168C245.157 232.06 245.281 231.638 245.056 231.355C244.34 230.457 243.752 229.269 245.312 229.505C245.366 229.513 245.42 229.532 245.467 229.555C250.336 231.97 255.255 234.339 260.48 235.914C272.571 239.56 283.846 240.412 296.107 237.076C299.595 236.127 303.817 234.095 307.204 233.461C307.421 233.422 307.622 233.391 307.815 233.379H307.808Z" fill="white"/>
<path d="M554.633 187.716C552.883 191.172 551.266 195.244 550.375 198.94C548.44 211.233 547.914 223.823 548.785 236.712L550.197 261.835C550.182 262.202 549.853 262.528 549.214 262.802C541.647 265.109 537.018 264.521 529.266 264.722C526.352 264.796 523.395 265.148 520.379 265.125C519.741 265.121 518.58 265.407 518.251 264.738C520.414 264.687 522.609 264.556 524.83 264.351C524.95 263.673 524.474 262.973 524.428 262.237C524.215 258.831 524.598 255.193 524.459 251.756C523.468 226.834 529.854 214.705 545.723 196.421C547.887 193.928 550.925 190.178 553.278 188.107C553.797 187.65 553.851 187.101 554.633 187.72V187.716Z" fill="white"/>
<path d="M244.611 228.355C244.801 228.607 245.463 229.195 245.385 229.517C245.374 229.575 245.087 229.621 245.049 229.791C244.874 230.515 246.581 231.502 247.208 231.769C247.607 231.939 248.288 232.094 247.708 232.613C247.619 232.694 246.438 232.559 245.978 232.625C245.455 232.702 244.998 233.073 244.422 233.027C243.806 232.977 243.551 232.319 242.877 232.218C241.492 232.013 238.527 231.858 238.032 233.387C239.251 233.704 240.555 234.378 241.647 234.997C243.106 235.829 251.059 241.167 250.754 242.401C250.711 242.572 250.429 242.618 250.417 242.676C245.335 236.956 237.517 233.073 230.399 230.376C229.013 229.849 227.38 229.164 226.033 228.742L226.254 228.332C212.572 223.188 197.864 219.767 184.488 227.643C173.349 234.208 166.405 245.509 155.955 252.909C149.19 257.701 139.328 262.229 131.03 262.818C127.763 263.05 124.326 262.338 121.145 263.189C120.877 260.05 122.913 257.035 125.201 255.058C130.031 250.881 136.417 248.54 141.271 244.615L141.213 244.096C148.071 241.437 154.86 238.504 160.379 233.101L171.472 222.863C187.836 209.386 201.874 210.846 220.808 218.199C228.785 221.625 236.719 225.011 244.611 228.359V228.355Z" fill="white"/>
<path d="M112.243 141.271C112.699 141.093 114.925 141.023 114.453 141.778C114.162 142.242 106.909 146.759 105.698 147.429C89.3876 156.451 69.3233 159.698 51.0897 161.014C43.492 159.404 35.6467 156.962 28.7496 153.358C26.4002 152.131 24.2328 150.235 21.9221 148.958C20.8848 148.385 21.6125 148.838 20.8965 149.403C18.2491 145.3 15.2031 142.703 21.5622 140.199C28.7147 137.381 39.8422 138.236 47.3973 139.351C57.5146 140.845 67.3765 144.282 77.5828 145.161C88.7761 146.124 101.521 144.921 112.239 141.275L112.243 141.271Z" fill="white"/>
<path d="M363.821 197.005C363.999 197.884 363.507 198.472 363.445 199.145C362.114 213.214 360.306 227.318 358.801 241.333C358.712 242.154 358.866 242.99 358.758 243.806C357.074 244.418 355.321 245.049 353.541 245.362C347.363 246.45 341.136 246.02 335.005 244.975C331.023 244.298 327.148 243.04 323.189 242.273C323.235 241.062 323.084 239.8 323.162 238.593C323.282 236.692 323.409 234.718 323.549 232.787C323.615 231.843 324.18 230.945 323.951 229.9C329.459 228.77 334.44 228.402 339.565 225.58C347.665 221.125 347.394 215.962 349.968 208.117C352.36 200.817 357.38 196.115 363.623 191.969C364.231 192.519 363.488 193.529 363.441 194.11C363.329 195.542 363.612 195.987 363.817 197.001L363.821 197.005Z" fill="white"/>
<path d="M69.2807 193.134C69.3581 195.108 68.7621 196.773 68.8821 198.735C67.0165 213.574 67.1133 228.785 65.4219 243.655C65.2632 245.033 65.4374 246.306 64.8181 247.696C64.1369 249.225 61.536 250.73 59.9956 251.388C53.5668 254.132 44.0184 254.171 37.5432 251.578C38.1005 250.769 39.0875 251.667 40.0357 251.578C48.4075 250.8 54.7782 242.676 56.8102 235.043C60.4987 221.164 59.0202 206.151 68.1235 194.106C68.4911 193.618 69.0485 193.405 68.8975 192.558C69.4046 191.938 69.273 192.848 69.2807 193.134Z" fill="white"/>
<path d="M252.352 130.821C252.41 131.784 253.219 132.369 253.838 133.398C255.081 135.469 256.087 137.803 257.597 139.703C262.086 145.343 273.071 150.44 279.832 152.495C280.769 153.068 281.907 153.505 282.975 153.776C285.572 154.43 290.244 155.464 292.605 154.43C293.89 154.461 295.19 154.407 296.475 154.43C297.249 155.305 296.545 155.719 294.362 155.669C294.95 158.103 293.301 158.204 291.397 158.297C289.682 158.684 290.081 158.769 292.593 158.545C296.173 160.108 299.908 161.269 303.794 162.02C304.951 162.469 305.153 163.29 303.829 163.328C288.707 161.892 271.615 154.833 257.887 148.311C254.748 146.821 246.016 142.796 244.278 140.245C241.395 136.011 243.125 129.207 240.683 124.489C239.286 121.787 236.669 120.405 234.045 119.128C233.735 118.977 232.431 118.787 233.387 118.431C236.379 119.658 238.852 120.626 241.647 122.364C242.951 123.173 252.313 130.136 252.352 130.817V130.821Z" fill="white"/>
<path d="M117.274 139.335C117.274 139.374 117.828 139.479 117.297 139.904C101.483 152.561 79.4832 163.123 58.8306 162.171C56.2412 162.051 53.6364 161.552 51.0897 161.01L54.0041 160.247C69.5323 158.618 90.5294 154.906 104.382 147.537C107.718 145.76 110.772 143.326 114.174 141.654L112.239 141.267C113.93 140.69 115.536 139.8 117.27 139.332L117.274 139.335Z" fill="white"/>
<path d="M296.088 261.641C296.274 262.559 295.74 263.139 295.689 263.793C295.624 264.652 296.444 265.965 296.088 267.06H251.965C252.162 261.885 251.71 256.528 251.95 251.369C251.977 250.761 252.302 250.297 252.341 249.825C252.399 249.117 252.337 248.412 252.352 247.708C252.364 247.263 252.085 246.446 252.739 246.547V266.673H295.314V248.095C295.987 248.006 295.693 248.977 295.701 249.449C295.778 253.219 295.407 257.392 295.701 261.08" fill="white"/>
<path d="M550.375 198.94C549.594 202.18 549.446 205.141 549.203 208.411C547.964 224.833 549.439 242.332 550.391 258.723C550.43 259.362 550.526 262.667 550.368 262.795C550.209 262.922 549.508 262.713 549.214 262.802C548.134 262.373 549.961 262.353 549.942 261.846C549.938 261.699 549.609 261.239 549.586 260.693C548.649 240.23 546.904 218.977 550.004 198.758L550.379 198.944L550.375 198.94Z" fill="white"/>
<path d="M80.1184 236.483C79.2933 231.459 79.3863 226.796 80.1184 221.776L80.4593 222.008C80.9668 222.941 80.1184 224.624 80.1184 225.066V233.58C80.1184 233.906 80.959 235.411 80.4593 236.251L80.1184 236.483Z" fill="white"/>
<path d="M319.311 194.296C320.658 193.692 321.776 192.476 322.666 190.638L327.338 181.937C327.86 179.53 329.068 178.33 330.961 178.334C332.373 176.19 333.72 175.714 335.005 176.902C336.399 176.519 338.125 176.19 338.295 178.094L339.774 176.859C338.179 174.611 340.3 172.625 342.467 174.107C343.214 173.186 344.294 172.791 345.719 172.919C347.572 171.522 349.62 170.67 351.199 172.857C352.871 172.099 355.313 171.727 356.467 173.391C354.903 173.198 355.604 169.327 357.299 169.614C359.424 169.97 358.398 175.195 356.467 173.391C356.966 174.68 358.042 173.589 358.344 172.482C358.03 170.357 359.613 169.169 361.301 170.717C362.729 168.577 367.01 170.438 365.067 172.753C365.38 172.946 365.744 173.209 365.798 173.577C365.961 174.669 360.55 177.633 359.203 177.664L358.99 178.945C356.68 180.993 354.953 183.513 353.688 186.439C352.422 186.632 351.691 187.321 351.497 188.502C350.115 189.283 350.061 190.069 351.335 190.859C351.551 191.47 348.579 199.807 346.485 198.719C346.876 200.511 345.366 201.557 343.76 201.835L343.969 203.205C343.629 204.2 339.011 207.308 337.862 208.055C337.629 209.456 336.174 210.938 334.715 210.377C334.316 211.48 331.948 213.125 330.794 213.791C326.374 216.342 320.863 218.459 316.048 220.224C313.822 221.04 311.051 221.876 308.74 222.244C304.665 223.154 300.516 223.986 296.301 224.74C295.55 224.837 293.483 224.996 292.988 224.485C292.93 224.423 294.621 224.725 294.149 225.259C279.143 226.819 263.549 226.111 248.768 222.84C244.116 221.81 238.5 220.375 234.153 218.49C233.743 218.312 232.834 217.468 232.609 218.292C231.893 218.285 231.134 218.273 230.473 217.963C223.955 214.925 217.789 211.194 211.813 207.416L211.322 206.294C212.092 206.139 210.915 205.315 210.741 205.133C207.068 201.351 206.611 197.752 207.049 192.538C207.207 190.638 208.063 188.308 208.214 186.35C208.651 180.614 205.601 175.149 199.505 174.572C190.553 173.724 188.351 185.018 185.587 191.203C184.337 194.005 182.731 197.334 181.206 199.981C176.685 207.846 170.179 212.467 163.514 218.285C151.113 229.106 132.342 247.615 114.17 240.547C103.298 236.321 102.83 225.503 109.909 217.317C120.285 205.311 137.439 206.735 150.297 199.261C164.029 191.281 168.163 174.545 182.286 168.162C193.769 162.972 206.716 165.987 213.822 176.499C215.668 179.228 217.007 182.696 218.877 185.378C231.723 203.836 267.845 212.072 288.908 209.371C299.777 207.978 312.332 202.872 319.303 194.288L319.311 194.296Z" fill="white"/>
<path d="M211.326 206.294C214.178 207.672 217.197 210.056 220.096 211.651C224.233 213.927 228.541 215.889 232.613 218.292C237.192 220.994 241.426 224.067 244.611 228.355C244.534 228.835 243.21 228.359 242.955 228.27C226.022 222.414 209.476 210.78 190.634 214.047C171.387 217.387 164.997 234.699 148.508 241.976C146.759 242.746 142.161 243.888 141.271 244.607C139.684 244.801 137.942 245.532 136.417 245.757C136.022 245.815 134.974 246.039 135.078 245.385C140.721 244.398 146.256 241.534 150.761 238.035C158.177 232.28 162.62 223.703 169.517 217.313C180.962 206.704 195.96 198.863 211.329 206.294H211.326Z" fill="white"/>
<path d="M336.84 139.703C339.998 139.142 343.18 138.709 346.384 138.403C347.031 138.341 347.673 138.577 348.138 139.03C351.559 142.362 350.464 143.79 345.571 144.34C345.297 144.371 345.026 144.445 344.782 144.576C344.372 144.797 343.981 145.037 343.613 145.3C343.408 145.447 343.183 145.559 342.94 145.629C337.974 147.049 332.323 149.747 328.979 153.842C327.303 155.893 326.506 158.235 324.319 160.019C320.255 163.336 315.239 163.901 310.219 164.072C309.824 164.087 309.453 163.952 309.093 163.781C308.98 163.727 308.826 163.715 308.679 163.704C307.541 163.611 306.372 163.534 305.265 163.448C304.827 163.414 304.437 163.216 304.08 162.961C303.864 162.806 303.299 162.694 303.152 162.651C300.767 161.97 298.329 161.579 296.069 160.828C295.016 160.48 292.949 159.338 292.233 159.253C291.687 159.187 291.165 159.535 290.491 159.466C287.968 159.214 289.264 157.898 291.262 157.527C292.825 157.236 293.611 157.623 293.704 156.861C293.835 155.781 294.637 154.902 295.72 154.829C295.786 154.825 295.848 154.817 295.914 154.81C296.355 154.759 296.44 154.423 296.475 154.419C299.25 154.167 301.956 154.19 304.777 153.625C316.381 151.299 325.205 142.827 336.619 139.742C336.693 139.723 336.77 139.703 336.844 139.692L336.84 139.703Z" fill="white"/>
<path d="M233.387 118.435C241.987 121.412 243.106 126.846 243.392 135.334C244.077 139.084 244.665 140.102 247.758 142.149C249.349 143.202 251.079 144.108 252.782 144.975C268.801 153.103 286.029 159.802 303.829 163.336C304.866 162.314 310.173 162.369 309.247 164.11C308.919 164.315 308.586 164.509 308.23 164.648C305.11 165.887 292.125 164.269 288.03 163.669C273.601 161.56 261.664 156.489 249.004 149.89C245.358 148.121 241.55 146.906 237.652 145.904C229.234 143.74 224.133 149.058 233.538 154.233C238.856 157.155 244.785 158.359 250.862 159.303L268.972 162.113C276.271 163.592 284.233 165.372 289.508 170.972C290.189 171.696 291.633 173.717 291.053 174.556C293.564 184.527 284.601 189.837 276.357 192.179C263.116 195.937 240.033 193.773 230.473 182.696C227.558 179.317 226.002 175.067 223.649 171.329C215.738 158.788 201.742 155.479 187.925 154.028C179.038 153.095 171.073 152.507 162.554 149.209C156.284 146.782 145.799 141.41 144.057 134.42C143.949 133.991 143.562 131.734 143.585 131.424C143.628 130.794 144.193 129.071 144.452 128.39C145.401 125.925 147.44 124.156 149.418 122.519L154.817 119.209C158.463 117.893 161.861 116.221 165.643 115.134C185.839 109.347 213.923 110.454 233.387 118.435Z" fill="white"/>
<path d="M190.704 126.648C193.08 126.319 196.281 126.439 198.561 127.136C204.13 128.835 204.254 131.722 198.569 133.352C195.263 134.3 189.365 134.25 186.415 132.315C182.201 129.547 187.894 127.039 190.704 126.648Z" fill="white"/>
<path d="M406.395 144.367C408.319 145.637 410.146 148.292 409.437 150.699C408.919 152.468 404.58 154.283 402.912 154.817C402.475 154.957 402.18 155.193 402.138 155.204C392.93 157.585 383.641 159.311 374.263 160.387C359.733 163.003 346.098 167.125 333.031 173.891C332.702 174.061 332.412 174.057 332.083 173.782C331.994 173.148 332.335 173.004 332.66 172.613C342.696 160.631 359.621 159.264 373.593 155.104C376.314 154.295 380.549 152.979 381.934 150.289C383.753 146.751 378.83 144.882 376.218 144.162C368.047 141.909 351.578 143.252 343.307 145.528L343.029 145.06C343.872 145.025 344.376 144.019 344.848 143.779C345.966 143.21 351.006 143.868 348.908 140.899C348.347 140.106 347.669 139.99 347.174 139.525C346.62 139.006 347.035 138.105 345.494 138.619C345.146 138.736 344.91 139.223 344.612 139.289C344.279 139.363 343.679 138.921 343.114 138.914C342.03 138.902 339.89 139.68 338.674 139.924C338.094 140.04 337.068 140.504 336.728 139.723C351.586 135.759 366.824 137.714 381.806 139.347C388.847 140.113 400.435 140.435 406.395 144.367Z" fill="white"/>
<path d="M279.832 152.495C283.927 153.741 288.363 154.33 292.605 154.43C292.69 155.68 291.413 155.828 290.534 155.537C288.637 154.906 289.334 155.382 287.778 155.22C286.35 155.069 285.862 154.438 283.579 154.345C282.216 154.291 280.986 153.076 279.612 152.905L279.832 152.495Z" fill="white"/>
<path d="M402.912 154.817C403.373 155.773 404.154 154.999 404.654 154.817C405.505 154.504 406.972 154.221 407.556 153.85C408.141 153.478 408.273 152.777 408.729 152.313C408.992 152.042 409.581 151.941 409.906 151.554C410.811 150.475 410.01 148.427 410.03 147.27C410.037 146.782 410.471 146.171 410.583 145.648C410.73 144.959 410.517 144.243 410.842 143.589C410.939 143.396 412.278 142.122 412.445 142.087C412.778 142.018 413.525 142.532 414.322 142.447C415.162 142.358 416.42 141.514 416.466 140.694C416.478 140.497 414.872 140.4 415.688 139.726C415.994 139.475 417.581 140.09 417.844 140.489C418.018 140.752 417.523 141.185 417.79 141.658C417.968 141.971 419.017 142.683 419.369 142.819C420.341 143.198 419.683 141.789 420.139 141.662C422.388 142.73 424.853 143.844 427.191 144.673C428.286 145.06 429.397 145.064 430.272 145.849L437.363 147.467C436.801 148.888 434.711 149.797 435.814 151.334H434.266C434.15 150.881 434.727 150.335 434.646 150.006C434.553 149.635 433.697 149.182 433.492 149.399C433.245 149.666 433.767 150.509 433.798 150.823C433.841 151.264 433.477 151.748 433.461 152.305C433.442 152.983 433.945 153.598 433.492 154.43L430.961 152.514L430.396 151.334C429.142 151.725 430.38 153.37 430.009 154.43C429.773 154.67 428.205 153.687 427.373 154.511C427.036 154.84 427.156 155.955 425.949 155.591C425.372 155.417 425.62 153.908 424.207 154.434C423.758 155.483 425.751 156.423 425.751 156.563C425.751 157.441 423.166 157.004 422.516 157.194C422.249 157.271 421.165 158.328 421.122 158.533C421.088 158.688 422.338 161.258 422.462 161.401C422.787 161.772 424.644 162.961 424.942 162.515C425.055 162.349 424.838 161.826 425.175 161.768C426.409 161.563 426.92 162.492 427.102 162.492C427.284 162.492 427.768 161.579 429.041 161.772C429.672 161.865 429.997 162.473 430.191 162.481C430.903 162.519 431.793 160.987 432.521 160.987C433.318 160.987 433.496 162.032 434.456 162.175C435.532 162.334 434.808 161.358 435.044 161.014C435.342 160.588 439.584 162.368 439.267 160.46C439.104 159.485 437.208 158.428 437.367 157.155C438.214 157.267 438.597 156.195 439.151 156.029C439.491 155.928 441.152 155.909 441.229 155.978C441.272 156.017 441.415 156.992 440.962 157.124C439.991 157.406 440.587 158.242 440.455 159.264C440.347 160.1 439.627 160.561 439.685 161.393C441.899 160.863 441.094 162.349 441.62 162.941C442.286 163.688 442.34 162.322 442.623 162.148C442.971 161.935 443.629 161.912 444.051 161.695C444.569 161.428 445.576 160.495 446.067 160.615C446.4 160.696 446.845 161.296 446.466 161.792C446.288 162.024 444.786 162.496 445.274 163.328C446.187 164.88 447.577 163.51 448.196 163.886C449.28 164.547 448.823 165.794 449.001 166.003C449.555 166.653 452.442 166.308 453.409 166.432C454.176 166.533 455.116 167.195 455.739 167.187C456.301 167.179 456.877 166.587 457.651 166.827C458.224 167.005 458.112 167.938 458.484 167.992C463.337 168.673 467.97 170.307 472.781 171.445C473.311 171.568 473.989 171.375 474.631 171.53C476.377 171.948 480.797 173.995 482 173.716C482.519 173.596 483.1 172.923 483.568 173.028C483.947 173.113 484.648 174.282 485.611 174.487C486.44 174.665 487.299 174.479 488.178 174.63C489.366 174.831 490.728 175.741 491.808 176.031C492.888 176.321 494.56 176.275 495.547 176.55C496.011 176.677 496.511 177.428 497.219 177.587C498.941 177.97 500.919 178.013 502.874 178.512C503.717 178.729 506.643 180.018 507.023 178.62C507.174 178.067 505.935 177.521 506.249 176.689C506.318 175.996 508.13 176.929 508.137 177.463C508.141 177.773 506.694 178.082 508.362 179.22C508.834 179.541 510.634 180.23 511.172 180.312C511.872 180.42 512.345 179.921 513.006 179.959C513.862 180.01 514.373 180.919 515.72 180.761C516.598 180.656 517.926 179.58 518.831 179.58C519.416 179.58 519.64 180.192 520.043 180.308C521.672 180.788 526.398 181.252 528.101 181.128C529.638 181.012 532.142 179.723 532.564 182.301C507.955 184.658 478.165 172.939 453.715 168.066C443.234 165.976 434.595 165.263 423.983 164.9C406.024 164.284 376.55 166.831 361.51 177.869C353.432 183.795 354.624 188.142 350.34 195.728C339.619 214.724 314.569 223.138 294.145 225.263L292.984 224.489C294.044 224.404 295.221 224.616 296.262 224.477C298.631 224.164 301.588 222.84 304.026 222.565C305.036 222.453 306.174 222.701 307.115 222.557C307.765 222.461 308.001 221.865 308.648 221.768C309.476 221.644 310.513 221.958 311.314 221.725C311.918 221.547 312.375 220.448 312.967 220.282C313.517 220.127 314.175 220.297 314.786 220.166C317.104 219.666 319.287 217.712 321.803 217.119C324.721 216.434 328.085 215.281 330.516 213.446C331.177 212.947 331.874 211.848 332.47 211.519C332.846 211.31 333.403 211.403 333.565 211.275C333.84 211.066 334.08 209.475 334.007 209.003C334.123 208.856 335.187 210.393 336.348 209.603C337.022 209.146 336.944 207.772 337.153 207.509C337.219 207.424 338.214 207.172 338.64 206.867C339.421 206.305 339.975 205.365 340.834 204.804C341.693 204.243 343.149 204.2 343.226 202.946C343.253 202.512 342.665 201.506 342.909 201.266C342.982 201.197 344.395 200.957 344.84 200.678C346.52 199.625 345.858 198.108 344.07 197.779C343.783 196.866 345.614 195.786 346.001 196.235C346.164 196.424 346.253 197.895 346.973 198.162C348.95 197.136 349.306 194.64 349.961 192.643C350.104 192.202 350.905 191.037 350.626 190.839C350.51 190.758 350.127 190.971 349.86 190.58C349.682 190.324 349.299 189.086 349.504 188.9C349.686 188.738 350.375 188.83 350.835 188.103C351.114 187.665 351.319 186.315 351.451 186.202C351.594 186.082 352.418 186.261 352.972 185.986C354.28 185.343 353.947 183.834 354.551 182.916C354.969 182.278 355.956 182.077 356.382 180.869C356.521 180.47 356.355 179.727 356.475 179.615C356.552 179.541 357.206 179.603 357.605 179.398C358.673 178.849 358.379 177.49 358.387 176.495C359.35 177.2 360.844 176.418 361.847 175.896C362.957 175.319 364.212 174.243 365.349 173.593L364.188 173.399C363.894 172.323 364.997 172.041 364.966 171.077C364.343 171.166 363.232 170.357 362.826 170.38C362.419 170.403 362.013 171.75 360.956 171.425C360.438 171.266 360.322 170.38 359.544 170.872C358.522 171.514 358.955 172.292 358.712 173.14C358.611 173.488 358.139 173.879 357.91 174.285C357.434 175.141 357.93 175.563 356.451 175.334C356.444 174.692 356.459 174.042 356.451 173.399C358.975 173.151 357.616 170.318 357.032 170.307C356.258 170.291 356.444 172.799 356.451 173.399C355.368 173.504 354.57 172.942 353.545 172.985C352.658 173.024 351.431 173.709 350.828 173.74C350.441 173.759 350.348 172.811 350.193 172.691C350.123 172.637 348.652 172.23 348.505 172.226C347.979 172.219 346.624 173.523 345.742 173.72C345.13 173.856 344.472 173.682 343.923 173.836C343.412 173.98 343.071 174.835 342.669 174.924C342.135 175.04 341.55 174.258 341.163 174.262C340.908 174.266 339.866 174.893 339.805 175.149C339.646 175.783 341.028 176.074 340.397 177.281C340.296 177.471 337.819 179.507 337.649 179.569C337.397 179.661 337.006 179.569 336.708 179.592C336.464 178.833 337.339 178.632 337.463 178.214C337.92 176.693 335.4 177.715 334.97 177.684C334.285 177.629 333.972 176.778 333.449 176.894C332.969 177.002 331.859 178.748 331.297 179.023C330.705 179.313 330.136 179.112 329.602 179.263C328.46 179.584 328.487 181.426 327.988 182.293C326.614 184.685 325.848 184.778 324.919 187.739C324.497 189.074 321.912 193.208 320.839 194.11C320.394 194.481 319.702 195.244 319.287 194.299C322.809 189.961 325.085 184.852 327.477 179.847L331.673 173.399C331.112 173.678 330.756 174.1 330.132 174.374C319.272 179.127 304.905 179.104 293.731 175.539C292.996 175.303 291.575 174.947 291.033 174.56C290.41 174.115 289.435 172.029 288.715 171.266C278.505 160.402 250.502 162.492 236.189 156.447C233.569 155.34 227.101 151.876 227.612 148.524C228.123 145.172 232.276 144.475 235.117 144.742C244.82 145.656 257.453 153.648 266.642 157.341C279.666 162.573 295.271 164.482 309.22 164.11L310.084 163.309C315.711 163.173 322.043 162.291 325.592 157.472C328.751 150.366 343.04 144.982 343.28 145.532C343.826 144.959 344.592 144.557 345.363 144.321C351.993 142.296 375.687 140.524 380.835 145.315C387.852 151.845 375.892 155.56 370.772 156.702L353.994 161.002C345.564 163.27 338.051 167.524 332.056 173.786L332.938 173.902C345.475 167.47 359.432 163.084 373.593 160.499C383.355 159.318 392.86 157.554 402.111 155.204C401.902 154.14 402.161 154.028 402.885 154.817H402.912Z" fill="white"/>
<path d="M402.138 155.204C403.113 155.545 401.697 155.82 401.461 155.878C395.612 157.38 389.663 158.223 383.746 159.063C383.095 159.156 382.886 159.71 382.523 159.81C381.199 160.17 379.956 160.062 378.269 160.588C377.677 160.774 377.251 160.224 376.802 160.209C376.419 160.197 376.771 160.995 376.384 161.033C375.776 161.095 375.316 160.619 374.561 160.685C372.773 160.844 370.404 161.718 368.573 162.082C359.799 163.828 349.423 166.254 341.643 170.373C340.513 170.972 339.305 171.983 338.554 172.316C337.602 172.741 336.507 172.633 335.458 173.09C334.719 173.411 332.354 175.749 332.083 173.779C332.625 173.465 333.031 173.078 333.623 172.803C347.917 166.15 359.702 162.697 375.258 159.868C384.024 158.274 393.642 157.67 402.138 155.204Z" fill="white"/>
<path d="M413.749 156.365C413.923 157.182 412.913 160.22 413.165 160.623C414.001 161.958 415.251 159.88 415.491 159.884C415.642 159.884 415.944 160.457 416.323 160.565C416.876 160.727 417.527 160.553 418.134 160.689C418.8 160.836 421.513 162.554 420.716 163.332C420.627 163.421 418.75 163.313 418.216 163.344C416.006 163.479 414.252 163.174 411.996 162.957C410.672 162.829 407.661 163.437 408.903 160.998C409.627 159.578 410.858 160.805 411.431 160.453C412.758 159.636 411.798 158.626 411.992 158.293L413.749 156.365Z" fill="white"/>
<path d="M420.662 150.61C420.96 150.873 420.82 152.874 421.896 153.846C422.311 154.217 423.05 153.815 422.628 155.371C422.38 156.28 420.035 155.87 419.586 156.397C419.466 156.536 419.644 157.368 419.369 157.921C418.827 159.017 417.26 159.489 416.853 158.076C416.695 157.527 417.774 157.14 417.62 156.563C417.426 155.855 415.301 155.797 415.684 155.011C416.04 154.276 417.38 154.21 417.999 153.842C418.231 153.703 419.667 152.298 419.764 152.116C420.205 151.28 419.539 151.001 419.555 150.173C419.837 150.37 420.553 150.517 420.658 150.61H420.662Z" fill="white"/>
<path d="M376.593 167.203C376.899 167.543 376.941 169.149 376.539 169.475C376.388 169.595 375.962 169.486 375.726 169.61C374.956 170.013 374.828 170.5 373.752 170.249C373.373 170.16 371.256 169.207 371.178 168.94C371.043 168.468 371.318 167.725 371.755 167.594C372.939 167.234 372.773 168.151 373.11 168.917C373.284 169.312 373.779 169.219 374.066 169.13C374.371 169.037 375.738 166.254 376.593 167.203Z" fill="white"/>
<path d="M417.233 143.976C416.904 143.965 416.428 144.077 416.242 144.336C415.77 144.994 416.644 146.186 415.297 145.911C415.394 145.381 415.158 143.349 415.297 143.202C415.503 142.985 417.252 143.194 417.233 143.976Z" fill="white"/>
</g>
<defs>
<clipPath id="clip0_38_8167">
<rect width="594.498" height="396.332" fill="white"/>
</clipPath>
</defs>
</svg>
